<svg id="Layer_1" data-name="Layer 1" xmlns="http://www.w3.org/2000/svg" xmlns:xlink="http://www.w3.org/1999/xlink" viewBox="0 0 1591.33 318.88"><defs><style>.cls-1{font-size:288.2px;font-family:TwCenMT-CondensedExtraBold, Tw Cen MT Condensed Extra Bold;font-weight:800;}.cls-1,.cls-6{fill:#3d3d3d;}.cls-2{fill:#72cee3;opacity:0.14;}.cls-3{fill:url(#linear-gradient);}.cls-4{fill:url(#linear-gradient-2);}.cls-5{fill:url(#linear-gradient-3);}</style><linearGradient id="linear-gradient" x1="109.25" y1="282.31" x2="274.73" y2="282.31" gradientUnits="userSpaceOnUse"><stop offset="0" stop-color="#327e46"/><stop offset="0.22" stop-color="#4cb748"/><stop offset="1" stop-color="#8dc63f"/></linearGradient><linearGradient id="linear-gradient-2" x1="275.21" y1="281.31" x2="423.1" y2="281.31" gradientUnits="userSpaceOnUse"><stop offset="0" stop-color="#1b75bc"/><stop offset="0.22" stop-color="#2e3192"/><stop offset="1" stop-color="#2e3192"/></linearGradient><linearGradient id="linear-gradient-3" x1="902.79" y1="245.84" x2="1071.76" y2="245.84" xlink:href="#linear-gradient-2"/></defs><title>zakat_trackerlogo_final</title><text class="cls-1" transform="translate(328.14 238.03)">akat </text><path class="cls-2" d="M758.39,282.92c-.23-.24-.19-.4.08-.51C759.1,282.17,759.06,282.37,758.39,282.92Z" transform="translate(-109.25 -115.81)"/><path class="cls-3" d="M178.56,190.69h96.17l-110.41,244H123.4A13.93,13.93,0,0,1,109.25,421V143.64a13.94,13.94,0,0,1,14.15-13.72h55.16Z" transform="translate(-109.25 -115.81)"/><path class="cls-4" d="M423.1,142.64V420a13.93,13.93,0,0,1-14.16,13.73H378.47V370.35H275.21L385.33,128.92h23.61A13.94,13.94,0,0,1,423.1,142.64Z" transform="translate(-109.25 -115.81)"/><path class="cls-5" d="M1071.76,176.22h-53V368.79H954.85V176.22H902.79V122.9h169Z" transform="translate(-109.25 -115.81)"/><path class="cls-6" d="M1239.75,368.79h-42.26V355.56q-6,7.57-12.18,11.05a49.36,49.36,0,0,1-24.51,6q-22.18,0-39.51-15.27-20.64-18.21-20.65-48.25,0-30.54,21.17-48.76a57.41,57.41,0,0,1,38.61-14.5,55.22,55.22,0,0,1,23.86,5.27,47.33,47.33,0,0,1,13.21,10.15V249.59h42.26Zm-41-59.6a25.92,25.92,0,0,0-7.93-19.11,26.22,26.22,0,0,0-19.18-7.87,25.82,25.82,0,0,0-20.58,9.47,26.77,26.77,0,0,0,0,35,25.58,25.58,0,0,0,20.58,9.46,26.3,26.3,0,0,0,19.24-7.79A26,26,0,0,0,1198.78,309.19Z" transform="translate(-109.25 -115.81)"/><path class="cls-6" d="M1337.39,366.22a60.61,60.61,0,0,1-27.48,6.55q-32.64,0-51.77-22.09a63.21,63.21,0,0,1,0-82.72q19.14-22.09,51.77-22.1a58.72,58.72,0,0,1,27.48,6.68v35.84q-11.15-7.83-21.78-7.84-12.55,0-20.75,8.1t-8.2,20.68q0,12.58,8.2,20.68t20.75,8.09q10.52,0,21.78-7.71Z" transform="translate(-109.25 -115.81)"/><path class="cls-6" d="M1488.09,368.79H1429l-46.37-48.55v48.55h-42.26V175.86h42.26V292.49l44.06-42.9h57.8l-59.73,55Z" transform="translate(-109.25 -115.81)"/><path class="cls-6" d="M1608.21,317H1519.7q0,26.85,25.81,26.85,13.15,0,20.18-11.3h40.85q-4.89,16.13-14.39,25-17.22,16-46.11,16-36.75,0-55.24-22.35-13.87-16.69-13.87-40.72,0-28.52,17.34-46.37t48.94-17.85q38.93,0,55.62,28.31,9.38,16,9.38,37.06Zm-39.44-24q-4.47-20.16-23.89-20.16-10.73,0-17.38,6.41-5.24,5.12-6.64,13.75Z" transform="translate(-109.25 -115.81)"/><path class="cls-6" d="M1700.58,288.38a41,41,0,0,0-17.93-4.24q-20.76,0-26.9,17.08-2.31,6.16-2.31,16.57v51h-42.26V249.59h42.26v19.52q6.66-10.39,14.35-15,10.37-6.17,24.59-6.16c2.22,0,5,.13,8.2.38Z" transform="translate(-109.25 -115.81)"/><path class="cls-6" d="M1105.37,288.38a41,41,0,0,0-17.93-4.24q-20.76,0-26.9,17.08-2.31,6.16-2.31,16.57v51H1016V249.59h42.26v19.52q6.66-10.39,14.35-15,10.38-6.17,24.6-6.16,3.33,0,8.19.38Z" transform="translate(-109.25 -115.81)"/></svg>