<svg width="28" height="28" viewBox="0 0 28 28" fill="none" xmlns="http://www.w3.org/2000/svg">
<g clip-path="url(#clip0_130_132)">
<path d="M19.4955 5.13917C18.8231 5.131 18.1633 5.32251 17.5998 5.68947C17.0363 6.05643 16.5943 6.58233 16.3297 7.20061C16.0652 7.81889 15.9901 8.50175 16.1138 9.16275C16.2376 9.82375 16.5546 10.4332 17.0249 10.9139C17.4952 11.3946 18.0975 11.725 18.7556 11.8633C19.4137 12.0015 20.0981 11.9414 20.722 11.6905C21.346 11.4396 21.8815 11.0093 22.2607 10.454C22.64 9.89862 22.8459 9.24324 22.8525 8.57078C22.858 8.12488 22.7755 7.68228 22.6096 7.26833C22.4438 6.85438 22.1979 6.47722 21.886 6.15845C21.5742 5.83968 21.2025 5.58556 20.7923 5.41066C20.3821 5.23575 19.9414 5.14349 19.4955 5.13917ZM19.4955 10.5021C18.9955 10.4696 18.5266 10.2481 18.1839 9.8825C17.8413 9.51688 17.6506 9.03457 17.6506 8.53348C17.6506 8.0324 17.8413 7.55009 18.1839 7.18447C18.5266 6.81885 18.9955 6.59733 19.4955 6.56486C20.0189 6.57131 20.5191 6.7821 20.8892 7.15223C21.2593 7.52236 21.4701 8.02251 21.4766 8.54592C21.4733 8.80679 21.4186 9.06445 21.3155 9.30411C21.2124 9.54377 21.063 9.7607 20.8759 9.94247C20.6887 10.1242 20.4675 10.2672 20.2249 10.3633C19.9824 10.4593 19.7232 10.5065 19.4624 10.5021H19.4955Z" fill="white"/>
<path d="M26.6903 6.38247C26.5319 6.34334 26.3714 6.3129 26.2096 6.2913C26.1317 6.28939 26.0567 6.2614 25.9966 6.21181C25.9364 6.16221 25.8947 6.09389 25.878 6.01776C25.878 5.92658 25.7951 5.83541 25.7537 5.74423C25.7198 5.69098 25.7017 5.62916 25.7017 5.56602C25.7017 5.50287 25.7198 5.44105 25.7537 5.3878C25.8792 5.22024 25.9954 5.04591 26.1018 4.8656C26.3011 4.55686 26.3921 4.19068 26.3606 3.82459C26.3291 3.45851 26.1768 3.11326 25.9278 2.8431C25.6874 2.58615 25.4304 2.33748 25.1818 2.08881C24.9075 1.82205 24.5513 1.65564 24.1707 1.61653C23.7901 1.57742 23.4074 1.66789 23.0847 1.8733L22.6122 2.19657C22.5775 2.2271 22.5364 2.24961 22.492 2.26251C22.4476 2.2754 22.4009 2.27836 22.3552 2.27117C22.1713 2.26684 21.9963 2.1907 21.8677 2.05904C21.7392 1.92737 21.6672 1.75063 21.6673 1.56661C21.6673 1.48372 21.6673 1.39254 21.6175 1.30136C21.5625 0.962181 21.397 0.650681 21.1467 0.415325C20.8963 0.179969 20.5752 0.033955 20.2333 0H18.5755C18.5755 0 18.534 0.0497333 18.5009 0.0580222C18.1883 0.138058 17.9085 0.313647 17.7005 0.560302C17.4924 0.806957 17.3666 1.11238 17.3404 1.43398C17.3595 1.64622 17.296 1.85764 17.1633 2.02434C17.0305 2.19103 16.8387 2.30021 16.6276 2.32919C16.495 2.32919 16.4038 2.38721 16.2877 2.32919C16.1008 2.18342 15.9042 2.0505 15.6992 1.93132C15.4222 1.75145 15.0958 1.66274 14.7659 1.6776C14.4359 1.69246 14.1188 1.81016 13.8591 2.01421C13.5162 2.30033 13.2025 2.61963 12.9224 2.96744C12.7777 3.13837 12.6729 3.33938 12.6155 3.55587C12.5582 3.77236 12.5498 3.99891 12.5909 4.21906C12.7001 4.62921 12.9014 5.00906 13.1794 5.32978C13.2374 5.41267 13.3286 5.48727 13.2789 5.61989C13.1214 6.02605 12.9887 6.35761 12.45 6.40734C12.2416 6.41467 12.0368 6.46374 11.8478 6.55163C11.6587 6.63953 11.4892 6.76447 11.3493 6.91905C11.2094 7.07363 11.102 7.25472 11.0333 7.45158C10.9647 7.64844 10.9362 7.85707 10.9497 8.06513C10.9247 8.43771 10.9247 8.81155 10.9497 9.18413C10.9632 9.4682 11.0568 9.74265 11.2196 9.97584C11.3824 10.209 11.6077 10.3915 11.8697 10.5021C12.1567 10.6152 12.458 10.6877 12.7649 10.7176C12.8228 10.7162 12.8801 10.73 12.931 10.7577C12.9819 10.7853 13.0247 10.8258 13.0551 10.8751C13.2706 11.2812 13.3949 11.704 12.9805 12.0355C12.9324 12.0916 12.8907 12.1527 12.8561 12.2179C12.6595 12.512 12.5688 12.8643 12.5989 13.2168C12.629 13.5693 12.7782 13.901 13.0219 14.1575C13.2966 14.4708 13.5929 14.7644 13.9088 15.0361C14.0856 15.1879 14.2948 15.2974 14.5202 15.3563C14.7457 15.4152 14.9817 15.4219 15.2102 15.376C15.6024 15.2657 15.9668 15.0736 16.2794 14.8123C16.3706 14.7543 16.4452 14.6797 16.5779 14.7211C16.794 14.7526 16.9919 14.8599 17.1362 15.0239C17.2805 15.1879 17.3617 15.3979 17.3653 15.6163C17.3887 16.0129 17.5633 16.3853 17.8533 16.6568C18.1433 16.9282 18.5264 17.078 18.9236 17.0752C19.3236 17.1083 19.7256 17.1083 20.1255 17.0752C20.365 17.0566 20.5971 16.9834 20.804 16.8613C21.0109 16.7392 21.1871 16.5713 21.3191 16.3706C21.5133 16.0377 21.6216 15.6617 21.6341 15.2765C21.6341 15.0527 21.7833 14.9947 21.9491 14.9035C22.0921 14.7933 22.2722 14.743 22.4516 14.7631C22.631 14.7832 22.7955 14.8722 22.9106 15.0112C22.9714 15.0655 23.0381 15.1128 23.1095 15.1522C23.4092 15.3586 23.7712 15.4549 24.1338 15.4247C24.4965 15.3945 24.8375 15.2396 25.0989 14.9864C25.389 14.7294 25.6542 14.4393 25.9278 14.1575C26.0691 13.9937 26.1745 13.8021 26.2373 13.5951C26.3001 13.3881 26.3189 13.1703 26.2925 12.9556C26.2264 12.4937 26.0211 12.0629 25.704 11.7205C25.6588 11.6657 25.6342 11.5968 25.6342 11.5258C25.6342 11.4547 25.6588 11.3858 25.704 11.331C25.7545 11.2453 25.7936 11.1533 25.82 11.0574C25.8379 10.955 25.8923 10.8626 25.973 10.7971C26.0537 10.7316 26.1554 10.6974 26.2593 10.701C26.558 10.6957 26.8509 10.6173 27.1124 10.4729C27.3739 10.3284 27.5961 10.1221 27.7596 9.87211C27.8591 9.71462 27.9254 9.54885 28.0166 9.38307V7.72528C27.9755 7.38616 27.823 7.07028 27.5829 6.82723C27.3429 6.58419 27.0289 6.42775 26.6903 6.38247ZM26.5743 8.91889C26.5818 8.95944 26.5801 9.00117 26.5693 9.04097C26.5584 9.08076 26.5387 9.11758 26.5116 9.14867C26.4845 9.17977 26.4507 9.20433 26.4127 9.22052C26.3748 9.2367 26.3337 9.2441 26.2925 9.24216L25.331 9.40793C25.1804 9.42176 25.0374 9.48052 24.9207 9.57659C24.8039 9.67267 24.7187 9.80162 24.6761 9.94671C24.5373 10.387 24.3598 10.8142 24.1456 11.2232C24.0731 11.3519 24.0399 11.499 24.0502 11.6464C24.0605 11.7937 24.1139 11.9348 24.2037 12.0521C24.4026 12.3339 24.585 12.6157 24.7839 12.881C24.8153 12.9074 24.8405 12.9404 24.8578 12.9777C24.8751 13.0149 24.8841 13.0555 24.8841 13.0965C24.8841 13.1376 24.8751 13.1781 24.8578 13.2153C24.8405 13.2526 24.8153 13.2856 24.7839 13.312C24.5932 13.4861 24.4192 13.6602 24.2368 13.8508C24.2119 13.8804 24.1808 13.9043 24.1458 13.9206C24.1107 13.9369 24.0724 13.9454 24.0337 13.9454C23.995 13.9454 23.9568 13.9369 23.9217 13.9206C23.8866 13.9043 23.8556 13.8804 23.8307 13.8508L23.0018 13.2872C22.8807 13.1945 22.7347 13.1402 22.5825 13.1313C22.4303 13.1225 22.279 13.1594 22.148 13.2374C21.7544 13.4471 21.3406 13.6165 20.913 13.743C20.7675 13.7837 20.6377 13.867 20.5401 13.9823C20.4426 14.0975 20.3819 14.2394 20.3659 14.3896C20.3659 14.7046 20.2581 15.0195 20.2084 15.3345C20.1587 15.6495 20.0758 15.6744 19.8271 15.6495C19.5899 15.6288 19.3514 15.6288 19.1143 15.6495C19.074 15.6567 19.0327 15.6551 18.9931 15.6447C18.9535 15.6344 18.9167 15.6155 18.8852 15.5895C18.8536 15.5635 18.8281 15.5309 18.8104 15.494C18.7927 15.4571 18.7833 15.4169 18.7827 15.376C18.7827 15.0527 18.6749 14.7294 18.6252 14.4062C18.6092 14.256 18.5485 14.1141 18.451 13.9989C18.3535 13.8836 18.2236 13.8003 18.0781 13.7596C17.6378 13.6208 17.2106 13.4433 16.8017 13.2291C16.672 13.1567 16.5236 13.1251 16.3757 13.1384C16.2278 13.1517 16.0874 13.2093 15.9728 13.3037C15.7075 13.4944 15.434 13.6767 15.1439 13.8674C15.1174 13.8988 15.0844 13.924 15.0472 13.9413C15.01 13.9586 14.9694 13.9676 14.9284 13.9676C14.8873 13.9676 14.8467 13.9586 14.8095 13.9413C14.7723 13.924 14.7393 13.8988 14.7128 13.8674C14.5388 13.6767 14.3564 13.5027 14.1658 13.3286C14.1371 13.3022 14.1143 13.2702 14.0987 13.2345C14.083 13.1988 14.075 13.1603 14.075 13.1214C14.075 13.0824 14.083 13.0439 14.0987 13.0082C14.1143 12.9726 14.1371 12.9405 14.1658 12.9142L14.746 12.0853C14.8371 11.9688 14.8919 11.8281 14.9037 11.6808C14.9155 11.5334 14.8837 11.3858 14.8123 11.2564C14.5975 10.8573 14.4226 10.4381 14.2901 10.0047C14.2494 9.85409 14.163 9.71977 14.0427 9.62031C13.9225 9.52084 13.7743 9.46112 13.6187 9.44938L12.6489 9.2836C12.6102 9.28308 12.572 9.27407 12.5371 9.25722C12.5022 9.24037 12.4714 9.21607 12.4469 9.18605C12.4225 9.15602 12.4048 9.121 12.3953 9.08343C12.3858 9.04587 12.3847 9.00668 12.3919 8.96862C12.4044 8.72287 12.4044 8.47665 12.3919 8.23091C12.3834 8.18676 12.3847 8.14128 12.3958 8.09769C12.4068 8.0541 12.4273 8.01346 12.4557 7.97866C12.4842 7.94386 12.52 7.91575 12.5605 7.89632C12.6011 7.87688 12.6454 7.8666 12.6903 7.86619L13.6601 7.70041C13.8059 7.68357 13.9433 7.62315 14.0542 7.52703C14.1651 7.4309 14.2444 7.30356 14.2818 7.16163C14.4221 6.72186 14.5996 6.29483 14.8123 5.88514C14.887 5.75667 14.9207 5.60845 14.9088 5.46032C14.897 5.31218 14.8402 5.1712 14.746 5.05625C14.5636 4.791 14.3813 4.51747 14.1823 4.22735C14.1499 4.19563 14.1249 4.15711 14.1092 4.11456C14.0934 4.07202 14.0873 4.02651 14.0913 3.98131C14.0953 3.93612 14.1092 3.89237 14.1321 3.85322C14.155 3.81406 14.1863 3.78048 14.2238 3.75488C14.4144 3.58911 14.5885 3.39846 14.7709 3.2161C14.7941 3.191 14.8224 3.17096 14.8537 3.15727C14.8851 3.14357 14.919 3.1365 14.9532 3.1365C14.9875 3.1365 15.0213 3.14357 15.0527 3.15727C15.0841 3.17096 15.1123 3.191 15.1356 3.2161L15.9645 3.81291C16.0809 3.90397 16.2216 3.95881 16.369 3.9706C16.5163 3.98239 16.6639 3.95061 16.7934 3.87922C17.1779 3.65545 17.5832 3.46946 18.0035 3.32386C18.1542 3.28315 18.2885 3.19671 18.388 3.07646C18.4874 2.95621 18.5472 2.80807 18.5589 2.65246C18.6086 2.32919 18.6667 2.00592 18.7247 1.68265C18.7267 1.64409 18.7366 1.60635 18.7538 1.57178C18.771 1.5372 18.7951 1.50653 18.8246 1.48166C18.8541 1.45679 18.8885 1.43825 18.9255 1.4272C18.9625 1.41614 19.0013 1.41281 19.0397 1.41741C19.2854 1.42984 19.5316 1.42984 19.7774 1.41741C20.0095 1.41741 20.1006 1.52516 20.1338 1.73239L20.3079 2.72706C20.3263 2.86351 20.3839 2.99169 20.4736 3.09613C20.5633 3.20057 20.6814 3.27679 20.8135 3.31557C21.2621 3.45711 21.6975 3.63738 22.1149 3.85435C22.244 3.92682 22.3918 3.9592 22.5394 3.9474C22.687 3.93559 22.8278 3.88011 22.9437 3.78804C23.2256 3.58911 23.5157 3.39846 23.7726 3.19124C23.7959 3.16613 23.8241 3.1461 23.8555 3.1324C23.8869 3.1187 23.9208 3.11163 23.955 3.11163C23.9892 3.11163 24.0231 3.1187 24.0545 3.1324C24.0859 3.1461 24.1141 3.16613 24.1374 3.19124L24.7507 3.81291C24.7819 3.84405 24.8056 3.88188 24.8199 3.92353C24.8343 3.96518 24.839 4.00955 24.8336 4.05329C24.8018 4.10325 24.7657 4.15039 24.7259 4.1942C24.5435 4.46773 24.3529 4.73298 24.1622 5.02309C24.0724 5.1404 24.0191 5.28148 24.0088 5.42883C23.9985 5.57618 24.0316 5.72332 24.1042 5.85198C24.3108 6.26345 24.4854 6.69021 24.6264 7.12848C24.6641 7.26722 24.7428 7.39134 24.8523 7.48453C24.9617 7.57772 25.0968 7.63564 25.2398 7.65068L26.2925 7.81646C26.5163 7.81646 26.6406 7.94908 26.624 8.19775C26.5947 8.43707 26.5781 8.6778 26.5743 8.91889Z" fill="white"/>
<path d="M10.6347 27.9751C10.3176 28.0041 9.99854 28.0041 9.68146 27.9751C9.28613 27.9184 8.92172 27.7293 8.64772 27.4388C8.37372 27.1482 8.20632 26.7733 8.17287 26.3754C8.10656 25.7123 7.90763 25.2729 7.21136 25.0906C6.91296 25.016 6.70573 24.9497 6.46535 25.1735C6.25278 25.358 6.01906 25.5166 5.76908 25.6459C5.45019 25.8272 5.08388 25.9075 4.7184 25.8765C4.35293 25.8454 4.00544 25.7043 3.72172 25.4719C3.31011 25.1252 2.92755 24.7454 2.57785 24.3363C2.31785 24.0454 2.15946 23.6779 2.12657 23.2892C2.09368 22.9005 2.18806 22.5116 2.39549 22.1812C2.57785 21.8911 2.78507 21.6092 2.984 21.3523C3.01846 21.3118 3.03738 21.2604 3.03738 21.2072C3.03738 21.1541 3.01846 21.1026 2.984 21.0622C2.8872 20.8985 2.81197 20.723 2.7602 20.54C2.73355 20.3628 2.64112 20.2021 2.50134 20.09C2.36156 19.9778 2.18468 19.9225 2.00591 19.9349C1.47886 19.9017 0.980168 19.6847 0.596793 19.3215C0.242379 18.9738 0.0397779 18.5 0.0331455 18.0035V16.7685C0.0210409 16.3185 0.172139 15.8792 0.458552 15.5319C0.744965 15.1845 1.14736 14.9525 1.59146 14.8786C1.90893 14.8701 2.22273 14.8085 2.51982 14.6963C2.78507 14.5388 2.74363 14.1243 2.92598 13.8674C2.99975 13.7716 3.03399 13.6512 3.02165 13.5309C3.00932 13.4106 2.95135 13.2997 2.85967 13.2208C2.67687 12.9839 2.5107 12.7347 2.36233 12.4748C2.18317 12.1607 2.10241 11.8 2.13048 11.4394C2.15856 11.0788 2.29419 10.735 2.51982 10.4523C2.88796 10.0124 3.29584 9.60728 3.7383 9.24215C4.02272 9.01014 4.37132 8.87069 4.7373 8.84254C5.10327 8.81439 5.4691 8.89888 5.78566 9.08466C6.09235 9.26702 6.38246 9.47424 6.66429 9.68146C6.71197 9.72125 6.77211 9.74304 6.83421 9.74304C6.89631 9.74304 6.95645 9.72125 7.00413 9.68146C7.16531 9.5798 7.34156 9.50426 7.52634 9.45766C7.69737 9.43687 7.85331 9.34952 7.96037 9.21453C8.06743 9.07954 8.11698 8.9078 8.09827 8.73653C8.11333 8.5371 8.14945 8.33983 8.20603 8.14801C8.26125 7.97912 8.37755 7.83693 8.53215 7.74933C8.68674 7.66173 8.86849 7.63502 9.04175 7.67445C9.21501 7.71387 9.3673 7.81659 9.46877 7.96246C9.57025 8.10833 9.61358 8.28683 9.59028 8.46299C9.51568 8.95204 9.43279 9.4328 9.34161 9.91356C9.325 10.055 9.26637 10.1883 9.17329 10.2962C9.08021 10.404 8.95695 10.4815 8.81941 10.5186C8.24426 10.6929 7.6887 10.9262 7.16162 11.2149C7.03217 11.2863 6.88458 11.3181 6.73722 11.3063C6.58985 11.2945 6.44919 11.2397 6.33273 11.1486L5.25517 10.3943C5.20611 10.3427 5.14601 10.3028 5.07936 10.2776C5.01271 10.2525 4.94123 10.2427 4.87028 10.2491C4.79933 10.2555 4.73074 10.2778 4.66964 10.3144C4.60854 10.3511 4.55651 10.401 4.51746 10.4606L3.80461 11.1735C3.53107 11.447 3.52278 11.5962 3.74659 11.9195C3.97039 12.2427 4.21905 12.6075 4.46772 12.939C4.57821 13.074 4.64329 13.2404 4.65371 13.4145C4.66413 13.5886 4.61935 13.7616 4.52574 13.9088C4.25341 14.3872 4.04708 14.9002 3.91236 15.434C3.87532 15.6256 3.77189 15.7979 3.62027 15.9207C3.46865 16.0435 3.27856 16.1089 3.08347 16.1054C2.66074 16.1717 2.25458 16.2546 1.81527 16.3292C1.75338 16.3321 1.69278 16.3478 1.63729 16.3754C1.5818 16.4029 1.53263 16.4417 1.49289 16.4892C1.45316 16.5367 1.42372 16.592 1.40645 16.6515C1.38917 16.711 1.38443 16.7734 1.39253 16.8348C1.39253 17.1995 1.39253 17.5642 1.39253 17.9289C1.38435 17.995 1.39022 18.062 1.40975 18.1256C1.42928 18.1893 1.46203 18.248 1.50585 18.2981C1.54967 18.3482 1.60358 18.3885 1.66405 18.4163C1.72451 18.4441 1.79016 18.4588 1.85671 18.4594L3.14978 18.6832C3.30423 18.6995 3.45017 18.762 3.56849 18.8625C3.68681 18.9631 3.772 19.0971 3.8129 19.2469C3.97079 19.8252 4.19906 20.382 4.49259 20.9047C4.56094 21.035 4.59099 21.182 4.57925 21.3287C4.56752 21.4754 4.51448 21.6158 4.42628 21.7336C4.16103 22.0983 3.90407 22.463 3.65541 22.8277C3.60927 22.8732 3.57357 22.9282 3.55076 22.9889C3.52795 23.0495 3.51859 23.1144 3.52332 23.179C3.52805 23.2437 3.54676 23.3065 3.57815 23.3632C3.60954 23.4199 3.65287 23.4691 3.70514 23.5074C3.95933 23.7726 4.21629 24.0296 4.47601 24.2783C4.72468 24.5186 4.88217 24.5269 5.18057 24.328L6.283 23.5654C6.4075 23.4636 6.56076 23.4032 6.72129 23.3928C6.88182 23.3824 7.04159 23.4225 7.1782 23.5074C7.67663 23.7847 8.20499 24.0044 8.7531 24.1622C8.91342 24.2003 9.05755 24.2882 9.16478 24.4133C9.27201 24.5384 9.33682 24.6942 9.3499 24.8585C9.41621 25.2895 9.4991 25.6874 9.5737 26.1433C9.57551 26.208 9.59084 26.2717 9.61873 26.3302C9.64662 26.3886 9.68643 26.4406 9.73562 26.4828C9.78481 26.525 9.84227 26.5564 9.90432 26.575C9.96637 26.5936 10.0316 26.599 10.0959 26.5909H11.19C11.5133 26.5909 11.6459 26.4665 11.704 26.1516C11.762 25.8366 11.8614 25.3227 11.9278 24.9165C11.9365 24.7338 12.0055 24.5591 12.124 24.4196C12.2424 24.2802 12.4037 24.1839 12.5826 24.1456C13.1013 24.0054 13.6 23.7992 14.0663 23.5323C14.2152 23.4348 14.3914 23.3878 14.5691 23.3982C14.7467 23.4087 14.9163 23.476 15.0527 23.5903C15.3925 23.8472 15.749 24.0959 16.0971 24.3363C16.1432 24.382 16.1986 24.4171 16.2596 24.4392C16.3206 24.4614 16.3857 24.47 16.4504 24.4645C16.515 24.4589 16.5777 24.4394 16.6341 24.4073C16.6904 24.3751 16.7391 24.3311 16.7768 24.2783L17.6057 23.4494C17.6956 23.3723 17.7514 23.2628 17.7607 23.1447C17.77 23.0266 17.7322 22.9096 17.6554 22.8194C17.4067 22.463 17.1664 22.0983 16.9011 21.7419C16.7869 21.6054 16.7195 21.4359 16.7091 21.2583C16.6986 21.0806 16.7456 20.9043 16.8431 20.7555C17.1031 20.2994 17.3037 19.8119 17.4399 19.3049C17.4739 19.1188 17.5705 18.9498 17.7137 18.8262C17.857 18.7025 18.0382 18.6316 18.2273 18.6252C18.6667 18.5672 19.0977 18.4677 19.537 18.3931C19.7182 18.3667 19.9029 18.4078 20.0557 18.5087C20.2086 18.6096 20.319 18.7632 20.3659 18.9402C20.3992 19.1187 20.364 19.3033 20.2671 19.4569C20.1703 19.6106 20.0191 19.7221 19.8437 19.7691C19.5715 19.8411 19.2945 19.8938 19.0148 19.9266C18.9336 19.9289 18.8556 19.959 18.7938 20.0118C18.732 20.0645 18.69 20.1368 18.6749 20.2167C18.6465 20.3576 18.5932 20.4923 18.5175 20.6146C18.3937 20.7691 18.3356 20.966 18.3558 21.163C18.3759 21.3599 18.4727 21.541 18.6252 21.6673C18.9181 21.9708 19.1143 22.3545 19.1889 22.7697C19.2416 23.069 19.22 23.3767 19.1261 23.6657C19.0322 23.9548 18.8687 24.2163 18.6501 24.4275L17.8212 25.2564C17.5055 25.592 17.0768 25.7988 16.6176 25.8371C16.1585 25.8754 15.7014 25.7423 15.3345 25.4636C15.1024 25.3061 14.8703 25.1486 14.6382 24.9745C14.5965 24.9429 14.5455 24.9258 14.4932 24.9258C14.4408 24.9258 14.3899 24.9429 14.3481 24.9745C14.1255 25.0986 13.889 25.196 13.6436 25.2647C13.3535 25.331 13.3037 25.5216 13.2623 25.7703C13.2339 26.2603 13.092 26.737 12.8478 27.1628C12.6833 27.4157 12.4586 27.6237 12.1938 27.7684C11.9291 27.9131 11.6326 27.9898 11.331 27.9917H10.6678L10.6347 27.9751Z" fill="white"/>
<path d="M10.5435 22.1066C9.3652 22.0934 8.23382 21.6427 7.36924 20.842C6.50466 20.0412 5.96862 18.9477 5.86529 17.7738C5.76196 16.5999 6.0987 15.4296 6.8101 14.4901C7.52149 13.5506 8.55673 12.9092 9.71465 12.6904C9.98791 12.6368 10.2652 12.6063 10.5435 12.5992C10.7412 12.5782 10.9392 12.6361 11.0944 12.7603C11.2496 12.8844 11.3495 13.0649 11.3724 13.2623C11.3816 13.4496 11.3176 13.633 11.1938 13.7739C11.07 13.9147 10.8962 14.0017 10.7093 14.0166C10.2746 14.0417 9.84521 14.1253 9.43283 14.2653C8.75714 14.5305 8.18716 15.0101 7.81038 15.6306C7.4336 16.251 7.27083 16.9779 7.34706 17.6998C7.4233 18.4217 7.73432 19.0986 8.23239 19.6266C8.73045 20.1546 9.38805 20.5046 10.1042 20.6229C10.5655 20.7007 11.038 20.68 11.4907 20.5622C11.9434 20.4443 12.3661 20.232 12.7309 19.9392C13.0957 19.6464 13.3945 19.2798 13.6075 18.8633C13.8205 18.4468 13.943 17.99 13.9669 17.5228C13.953 17.3901 13.9714 17.256 14.0204 17.1319C14.0695 17.0077 14.1478 16.8973 14.2487 16.81C14.3473 16.7211 14.4699 16.6635 14.6012 16.6443C14.7325 16.6251 14.8666 16.6453 14.9864 16.7022C15.1238 16.7657 15.2385 16.8695 15.3155 16.9998C15.3925 17.1301 15.4281 17.2807 15.4174 17.4316C15.3978 18.4903 15.0262 19.5122 14.3613 20.3362C13.6964 21.1602 12.776 21.7394 11.7454 21.9823C11.3511 22.0707 10.9477 22.1124 10.5435 22.1066Z" fill="white"/>
<path d="M19.4955 5.13917C18.8231 5.131 18.1633 5.32251 17.5998 5.68947C17.0363 6.05643 16.5943 6.58233 16.3297 7.20061C16.0652 7.81889 15.9901 8.50175 16.1138 9.16275C16.2376 9.82375 16.5546 10.4332 17.0249 10.9139C17.4952 11.3946 18.0975 11.725 18.7556 11.8633C19.4137 12.0015 20.0981 11.9414 20.722 11.6905C21.346 11.4396 21.8815 11.0093 22.2607 10.454C22.64 9.89862 22.8459 9.24324 22.8525 8.57078C22.858 8.12488 22.7755 7.68228 22.6096 7.26833C22.4438 6.85438 22.1979 6.47722 21.886 6.15845C21.5742 5.83968 21.2025 5.58556 20.7923 5.41066C20.3821 5.23575 19.9414 5.14349 19.4955 5.13917ZM19.4955 10.5021C18.9955 10.4696 18.5266 10.2481 18.1839 9.8825C17.8413 9.51688 17.6506 9.03457 17.6506 8.53348C17.6506 8.0324 17.8413 7.55009 18.1839 7.18447C18.5266 6.81885 18.9955 6.59733 19.4955 6.56486C20.0189 6.57131 20.5191 6.7821 20.8892 7.15223C21.2593 7.52236 21.4701 8.02251 21.4766 8.54592C21.4733 8.80679 21.4186 9.06445 21.3155 9.30411C21.2124 9.54377 21.063 9.7607 20.8759 9.94247C20.6887 10.1242 20.4675 10.2672 20.2249 10.3633C19.9824 10.4593 19.7232 10.5065 19.4624 10.5021H19.4955Z" fill="white"/>
<path d="M19.4955 5.13917C18.8231 5.131 18.1633 5.32251 17.5998 5.68947C17.0363 6.05643 16.5943 6.58233 16.3297 7.20061C16.0652 7.81889 15.9901 8.50175 16.1138 9.16275C16.2376 9.82375 16.5546 10.4332 17.0249 10.9139C17.4952 11.3946 18.0975 11.725 18.7556 11.8633C19.4137 12.0015 20.0981 11.9414 20.722 11.6905C21.346 11.4396 21.8815 11.0093 22.2607 10.454C22.64 9.89862 22.8459 9.24324 22.8525 8.57078C22.858 8.12488 22.7755 7.68228 22.6096 7.26833C22.4438 6.85438 22.1979 6.47722 21.886 6.15845C21.5742 5.83968 21.2025 5.58556 20.7923 5.41066C20.3821 5.23575 19.9414 5.14349 19.4955 5.13917ZM19.4955 10.5021C18.9955 10.4696 18.5266 10.2481 18.1839 9.8825C17.8413 9.51688 17.6506 9.03457 17.6506 8.53348C17.6506 8.0324 17.8413 7.55009 18.1839 7.18447C18.5266 6.81885 18.9955 6.59733 19.4955 6.56486C20.0189 6.57131 20.5191 6.7821 20.8892 7.15223C21.2593 7.52236 21.4701 8.02251 21.4766 8.54592C21.4733 8.80679 21.4186 9.06445 21.3155 9.30411C21.2124 9.54377 21.063 9.7607 20.8759 9.94247C20.6887 10.1242 20.4675 10.2672 20.2249 10.3633C19.9824 10.4593 19.7232 10.5065 19.4624 10.5021H19.4955Z" fill="white"/>
</g>
<defs>
<clipPath id="clip0_130_132">
<rect width="28" height="28" fill="white"/>
</clipPath>
</defs>
</svg>
