<svg width="29" height="27" viewBox="0 0 29 27" fill="none" xmlns="http://www.w3.org/2000/svg">
<path d="M28.6999 16.9324C28.4442 16.4695 28.0149 16.1242 27.5042 15.9707C26.9934 15.8172 26.4421 15.8677 25.9687 16.1114C25.4635 16.3529 24.9802 16.6362 24.4867 16.9007L24.4211 16.8317C24.4852 16.7268 24.5551 16.6232 24.6119 16.5125C26.1259 13.6368 25.8988 10.7999 24.4299 7.99745C24.0383 7.25263 23.6088 6.52794 23.4195 5.69685C23.2172 4.814 22.9158 3.93115 23.3991 3.03248C23.5447 2.75353 23.4384 2.45733 23.3555 2.15969C23.0847 1.22651 21.9477 1.18194 21.524 0.386797C21.3901 0.13517 21.0217 0.0747796 20.7233 0.0201405C20.4411 -0.0216279 20.1528 0.0204144 19.8949 0.140922C19.8243 0.183972 19.7438 0.20889 19.6609 0.21341C19.578 0.217931 19.4953 0.201909 19.4203 0.166803C19.2106 0.0572625 18.9769 0 18.7397 0C18.5025 0 18.2688 0.0572625 18.0591 0.166803C17.8756 0.258827 17.7475 0.166803 17.5845 0.136608C16.6644 -0.0402504 15.7283 0.199874 14.8024 0.0661523C14.6886 0.0706107 14.5785 0.107023 14.485 0.171117C14.4386 0.202779 14.3846 0.221837 14.3283 0.226379C14.2721 0.230922 14.2157 0.22079 14.1647 0.196999C13.9331 0.0693121 13.6722 0.00228068 13.4069 0.00228068C13.1416 0.00228068 12.8808 0.0693121 12.6492 0.196999C12.4817 0.283271 12.358 0.16249 12.2255 0.117916C11.4015 -0.153842 10.7012 0.081969 10.2266 0.821035C10.1356 0.976119 9.98915 1.09202 9.81607 1.14599C8.76495 1.52703 8.39079 2.61837 8.9775 3.56305C9.09894 3.72967 9.15624 3.9336 9.1391 4.1382C9.02118 5.32013 8.7402 6.45893 8.12 7.48413C7.1111 9.16356 6.56953 10.9551 6.66416 12.9193C6.68136 13.0192 6.66846 13.122 6.62705 13.2148C6.58564 13.3076 6.51754 13.3863 6.43122 13.4412C5.89984 13.7892 5.53442 14.291 5.18647 14.8058C4.391 15.9921 3.34877 16.9974 2.12919 17.7548C1.52355 18.133 0.909185 18.4953 0.305008 18.8764C0.0953655 19.0101 -0.112821 19.174 0.070616 19.4688C0.254053 19.7635 0.489901 19.7046 0.749042 19.5565C2.86148 18.3573 4.79921 16.9899 6.15606 14.8978C6.95533 13.667 8.22483 13.2054 9.70543 13.47C10.7405 13.6555 11.7727 13.864 12.8035 14.071C13.8895 14.2896 14.9746 14.5148 16.0588 14.7468C16.6513 14.8719 17.04 15.3579 16.9599 15.8511C16.8624 16.4449 16.3965 16.7498 15.705 16.6577C15.2391 16.5945 14.7747 16.514 14.3103 16.4421C13.808 16.3644 13.3072 16.2796 12.8035 16.2063C12.5747 16.168 12.3405 16.1757 12.1148 16.2291C11.8892 16.2824 11.6768 16.3803 11.4904 16.5167C11.304 16.6532 11.1474 16.8254 11.03 17.0231C10.9127 17.2208 10.837 17.4398 10.8075 17.6671C10.6619 18.5658 11.3549 19.3926 12.3958 19.5637C13.9172 19.8153 15.4531 20.0123 16.9541 20.3502C18.4886 20.6938 19.8454 20.5227 21.2023 19.6715C22.7891 18.6751 24.4794 17.844 26.1245 16.9396C26.4244 16.7742 26.7287 16.6247 27.0853 16.6994C27.656 16.8173 28.0346 17.1437 28.1408 17.7246C28.2471 18.3055 28.0084 18.6966 27.5294 18.9957C25.0127 20.5745 22.496 22.1523 19.9793 23.7292C19.0374 24.3187 19.0374 24.3187 18.6807 23.2835C18.3153 22.2223 17.4986 21.7262 16.4635 21.9319C15.9874 22.0268 15.6453 22.3258 15.3206 22.7227C15.0018 21.9736 14.4471 21.5623 13.7032 21.5106C12.9592 21.4588 12.3551 21.847 11.9474 22.4912C10.7507 21.0375 9.23373 21.2417 8.53201 22.9427C8.4039 23.2518 8.24084 23.154 8.05595 23.1195C7.49108 23.0131 6.91893 22.9686 6.39919 23.2475C5.17191 23.9046 4.05236 24.7357 2.88332 25.4848C2.8007 25.534 2.73868 25.6108 2.7085 25.7013C2.67831 25.7918 2.68197 25.89 2.71881 25.978C2.74348 26.0494 2.7908 26.111 2.85374 26.1538C2.91668 26.1965 2.99188 26.2181 3.06821 26.2153C3.25601 26.2268 3.38413 26.1189 3.5268 26.0269C4.48766 25.4014 5.46308 24.7975 6.40647 24.1476C7.06451 23.6932 7.75895 23.8471 8.42137 24.0038C8.88578 24.1131 8.7533 24.694 8.93965 25.0405C8.98481 25.1426 9.02228 25.2479 9.05175 25.3554C9.58022 26.7933 11.1686 27.1139 12.1935 25.968C12.4453 25.6876 12.5167 25.771 12.7205 25.9953C13.4703 26.8249 14.5534 26.8666 15.3643 26.0815C15.6278 25.8256 15.6948 25.8874 15.8666 26.152C16.0569 26.4652 16.3419 26.7116 16.6813 26.8566C17.0208 27.0015 17.3978 27.0377 17.7592 26.9601C18.1301 26.8792 18.4656 26.6847 18.7179 26.4043C18.9702 26.1238 19.1264 25.7718 19.1641 25.3986C19.1888 25.2102 19.2136 25.0765 19.4218 24.9586C22.3436 23.2906 25.1476 21.4329 28.0113 19.6629C29.0173 19.0374 29.272 17.913 28.6999 16.9324ZM10.0272 1.96989C10.5484 1.89512 10.7769 1.64637 10.9968 1.20351C11.202 0.787964 11.6592 0.682998 12.061 0.970573C12.3886 1.20638 12.6331 1.24808 12.9578 0.983514C13.0883 0.870826 13.2568 0.810531 13.4301 0.814524C13.6034 0.818516 13.7689 0.886507 13.8939 1.00508C14.1691 1.22795 14.4136 1.24664 14.699 1.00508C14.8299 0.87973 15.0051 0.809631 15.1874 0.809631C15.3698 0.809631 15.5449 0.87973 15.6759 1.00508C15.9583 1.24233 16.2087 1.21789 16.4839 1.00508C16.6178 0.882902 16.7939 0.815771 16.9762 0.817374C17.1585 0.818977 17.3334 0.889193 17.4651 1.01371C17.7257 1.2222 17.9514 1.24521 18.2178 1.02809C18.3554 0.895794 18.5394 0.821054 18.7314 0.819447C18.9234 0.817839 19.1087 0.889489 19.2485 1.01946C19.5397 1.2524 19.7624 1.19632 20.0536 0.995017C20.5355 0.662869 21.096 0.841164 21.2736 1.4005C21.3857 1.75277 21.5822 1.86349 21.9113 1.91525C22.4179 1.99577 22.696 2.38256 22.6115 2.81105C22.5446 3.1432 22.3611 3.25247 22.0146 3.25104C20.0303 3.23666 18.046 3.24672 16.0602 3.24672C14.1137 3.24672 12.1673 3.24672 10.2208 3.24672C9.86557 3.24672 9.57149 3.22372 9.52053 2.79667C9.46958 2.36962 9.65447 2.02309 10.0272 1.96989ZM22.3276 4.30068C22.3145 4.66878 22.0292 4.5063 21.8705 4.5063C19.9619 4.5178 18.0547 4.51492 16.1461 4.51492C14.2375 4.51492 12.291 4.51493 10.3649 4.5063C10.2193 4.5063 9.96311 4.65008 9.94855 4.31937C9.93399 3.98866 10.196 4.06343 10.3853 4.06343C14.222 4.06343 18.0557 4.06343 21.8865 4.06343C22.0525 4.06631 22.3422 3.92396 22.3276 4.30068ZM18.4187 19.6643C17.5335 19.8081 16.6382 19.4271 15.7443 19.3049C14.7019 19.1611 13.6682 18.9526 12.6288 18.7872C11.9008 18.6722 11.5573 18.3214 11.6359 17.752C11.7145 17.1826 12.1527 16.9539 12.8777 17.0733C13.8434 17.2315 14.8111 17.3791 15.7807 17.5162C16.676 17.6441 17.4986 17.0417 17.7359 16.1042C17.947 15.2644 17.4447 14.3039 16.5567 14.0782C15.175 13.7259 13.7716 13.4614 12.3755 13.1709C11.566 13.0012 10.7507 12.8675 9.94273 12.6907C9.27872 12.5306 8.5834 12.5495 7.92929 12.7453C7.4343 12.9035 7.45614 12.6935 7.46779 12.347C7.49648 10.9795 7.86227 9.63958 8.53347 8.44319C9.04301 7.54596 9.51471 6.63578 9.72144 5.62352C9.80006 5.23961 10.0461 5.32732 10.2717 5.32732C12.2386 5.32732 14.2025 5.32732 16.1694 5.32732C18.0984 5.32732 20.0259 5.33595 21.9535 5.3187C22.3291 5.3187 22.5154 5.37909 22.6013 5.79463C22.7993 6.75081 23.2972 7.59197 23.7427 8.45613C25.0734 11.0357 25.3165 13.6655 23.8024 16.2508C22.6115 18.2753 20.6767 19.2862 18.4187 19.6643ZM11.0099 25.8098C10.8087 25.8716 10.5916 25.8596 10.3987 25.7758C10.2058 25.692 10.0501 25.5422 9.9602 25.354C9.65169 24.7381 9.43309 24.0821 9.31089 23.4057C9.22208 22.9628 9.49433 22.5875 9.91216 22.4322C10.3664 22.2626 10.8439 22.3287 11.1016 22.7888C11.4583 23.4229 11.617 24.1347 11.7858 24.7587C11.7698 25.3554 11.5005 25.6775 11.0099 25.8098ZM14.3205 25.7695C13.808 25.8874 13.396 25.7048 13.2009 25.2447C12.9544 24.6639 12.7596 24.063 12.6186 23.4488C12.5123 22.9844 12.7642 22.5961 13.2009 22.4135C13.6377 22.2309 14.1239 22.31 14.3903 22.75C14.7689 23.374 14.881 24.103 15.0848 24.6868C15.0542 25.2993 14.8373 25.6502 14.3205 25.7695ZM17.6456 26.1362C17.1273 26.2987 16.6353 26.0298 16.4242 25.4403C16.2495 24.9514 16.0908 24.4553 15.9481 23.9564C15.7574 23.282 16.2029 22.7054 16.893 22.7097C17.3719 22.7026 17.6718 22.9571 17.8291 23.3769C18.011 23.8644 18.1857 24.3547 18.3255 24.8536C18.4973 25.4604 18.2192 25.955 17.6456 26.1362Z" fill="white"/>
</svg>
