<svg width="27" height="24" viewBox="0 0 27 24" fill="none" xmlns="http://www.w3.org/2000/svg">
<path d="M25.3663 14.9347C24.8363 14.63 24.3836 14.7348 23.9426 14.9411C22.2939 15.7153 20.6469 16.4927 19.0017 17.2732C18.8771 17.337 18.749 17.3934 18.6179 17.4422C18.2469 17.5662 17.9416 17.4518 17.7837 17.1C17.6257 16.7482 17.7604 16.4349 18.1017 16.2585C18.6317 15.9858 19.1692 15.7303 19.7087 15.4768C21.0073 14.8641 22.2985 14.2354 23.6119 13.6591C24.7864 13.1404 25.9122 13.4313 26.6861 14.3862C27.1408 14.9465 27.1101 15.2929 26.5377 15.7153C23.3787 18.0506 20.2186 20.3845 17.0575 22.717C15.8236 23.6312 14.472 23.7478 13.007 23.4815C10.7311 23.0677 8.44241 22.7255 6.16009 22.3513C6.04041 22.3292 5.9172 22.3372 5.80129 22.3745C5.68539 22.4118 5.58035 22.4773 5.49543 22.5651C5.07141 22.9586 4.6124 23.3233 4.16506 23.6954C3.71771 24.0675 3.32761 24.1028 3.05411 23.7788C2.78061 23.4548 2.88238 23.0463 3.31065 22.6849C3.73891 22.3235 4.21488 21.9973 4.59862 21.5878C5.16151 20.989 5.78589 20.9345 6.55125 21.0703C9.053 21.5151 11.5632 21.9118 14.0777 22.3021C14.4183 22.3546 14.7658 22.3385 15.1002 22.2548C15.4346 22.1711 15.7493 22.0215 16.0261 21.8145C19.1257 19.5444 22.2105 17.2593 25.3663 14.9347Z" fill="white"/>
<path d="M11.577 19.2578C10.9972 19.2578 10.4173 19.2578 9.83851 19.2578C9.41448 19.2578 9.17491 19.0044 9.17915 18.5981C9.18339 18.1917 9.45052 17.9672 9.86713 17.9672C10.782 17.9672 11.6968 17.9811 12.6106 17.9672C13.0137 17.9558 13.4156 17.9176 13.8137 17.8528C13.9456 17.8365 14.0716 17.7882 14.1809 17.712C14.2902 17.6359 14.3795 17.5341 14.4413 17.4155C14.5187 17.269 14.5314 17.1738 14.3204 17.1128C12.7781 16.6573 11.2579 16.1227 9.69752 15.7559C8.27279 15.4223 6.91167 15.8489 5.66928 16.5632C4.16293 17.4283 2.69263 18.3575 1.2043 19.2546C0.68805 19.5669 0.327629 19.5326 0.102896 19.1648C-0.121837 18.797 0.0233915 18.4388 0.520561 18.134C2.03221 17.2091 3.5163 16.2296 5.07459 15.3795C6.86397 14.399 8.76678 14.0012 10.7904 14.6481C12.2374 15.1101 13.6993 15.526 15.1537 15.9676C15.812 16.1676 15.9741 16.4306 15.8756 17.0989C15.672 18.4708 14.8579 19.1659 13.3219 19.2439C12.7431 19.2728 12.1622 19.2439 11.5823 19.2439L11.577 19.2578Z" fill="white"/>
<path d="M14.4604 6.03077C13.9473 6.02526 13.4382 6.12244 12.9625 6.3167C12.4869 6.51096 12.0542 6.79844 11.6894 7.1625C11.3246 7.52656 11.0351 7.95997 10.8375 8.43765C10.6399 8.91534 10.5381 9.42782 10.5381 9.94542C10.5381 10.9913 10.9471 11.995 11.6763 12.7386C12.4055 13.4821 13.396 13.9055 14.4328 13.9167C16.5593 13.9285 18.355 12.1214 18.355 9.97002C18.3566 9.45317 18.257 8.94111 18.0619 8.46317C17.8669 7.98524 17.5802 7.55084 17.2184 7.18488C16.8566 6.81892 16.4267 6.52859 15.9534 6.33054C15.4801 6.1325 14.9728 6.03063 14.4604 6.03077ZM14.4604 12.5737C13.7691 12.5749 13.1055 12.2998 12.6148 11.8086C12.1241 11.3174 11.8462 10.6502 11.842 9.95291C11.8516 8.53183 13.0696 7.31605 14.471 7.32888C15.8724 7.34171 17.0257 8.52114 17.0533 9.93687C17.0809 11.3526 15.8968 12.5673 14.4551 12.5737H14.4604Z" fill="white"/>
<path d="M19.0674 0C18.2607 0.00169691 17.4875 0.325859 16.9172 0.901475C16.347 1.47709 16.0261 2.25723 16.025 3.07099C16.0234 3.47245 16.1002 3.8703 16.2511 4.24182C16.4019 4.61334 16.6238 4.95126 16.9041 5.23628C17.1844 5.52129 17.5176 5.74783 17.8847 5.90296C18.2518 6.05808 18.6456 6.13876 19.0436 6.14037C19.4416 6.14199 19.836 6.06451 20.2043 5.91237C20.5726 5.76023 20.9076 5.5364 21.1902 5.25367C21.4727 4.97093 21.6973 4.63483 21.8511 4.26454C22.0049 3.89426 22.0849 3.49704 22.0865 3.09558C22.0908 2.69207 22.016 2.29168 21.8665 1.91741C21.7169 1.54314 21.4955 1.20238 21.2149 0.914713C20.9344 0.627046 20.6002 0.398146 20.2317 0.241168C19.8631 0.0841903 19.4675 0.00223067 19.0674 0ZM19.0441 4.85456C18.1155 4.83959 17.2992 3.99913 17.313 3.06564C17.3174 2.83609 17.3667 2.60968 17.458 2.39937C17.5493 2.18907 17.6808 1.999 17.8451 1.84007C18.0094 1.68114 18.2031 1.55646 18.4152 1.47319C18.6273 1.38991 18.8536 1.34968 19.0812 1.35478C19.3088 1.35221 19.5346 1.39615 19.7449 1.48394C19.9553 1.57173 20.1458 1.70156 20.3051 1.86561C20.4643 2.02966 20.589 2.22453 20.6716 2.43849C20.7543 2.65245 20.7931 2.88106 20.7858 3.11055C20.7794 3.57257 20.5941 4.01374 20.2694 4.33967C19.9447 4.6656 19.5064 4.85041 19.0483 4.85456H19.0441Z" fill="white"/>
</svg>
