<svg width="18" height="23" viewBox="0 0 18 23" fill="none" xmlns="http://www.w3.org/2000/svg">
<path d="M17.9529 1.53963C17.6784 0.675098 17.1479 0.0905003 16.1658 0H1.7906C1.6215 0.049466 1.44313 0.0387857 1.27461 0.104553C0.562312 0.38561 0.00521229 1.16582 0.00521229 1.91681C0.00173765 8.29417 3.27318e-07 14.6712 3.27318e-07 21.0478C-0.000578779 21.8516 0.767316 23 2.01124 23C6.67072 22.9876 11.3308 22.9961 15.9903 22.9933C16.222 23.0007 16.453 22.9648 16.6707 22.8876C17.0584 22.7342 17.391 22.4735 17.6271 22.138C17.8632 21.8024 17.9924 21.4069 17.9986 21.0006C17.9986 14.6536 17.9986 8.30654 17.9986 1.95953C18.0049 1.81813 17.9895 1.67661 17.9529 1.53963ZM15.289 10.6549C15.2902 10.7407 15.2738 10.826 15.2408 10.9056C15.2077 10.9853 15.1587 11.0577 15.0965 11.1188C15.0342 11.1798 14.9601 11.2283 14.8785 11.2612C14.7968 11.2942 14.7092 11.3111 14.6207 11.3108C14.3972 11.3176 14.1742 11.3108 13.9507 11.3108C13.7503 11.3108 13.5505 11.3108 13.3501 11.3108C12.9164 11.3047 12.6436 11.0618 12.6205 10.6363C12.6039 10.3367 12.6039 10.0365 12.6205 9.73693C12.6436 9.31872 12.9228 9.06521 13.3525 9.0579C13.7578 9.05059 14.169 9.0489 14.5767 9.0579C15.0133 9.06802 15.2861 9.34795 15.2901 9.77291C15.293 10.0714 15.2954 10.3637 15.289 10.6549ZM15.289 14.9702C15.2832 15.3637 15.0046 15.6414 14.5941 15.6565C14.3786 15.665 14.1626 15.6565 13.9472 15.6565C13.7544 15.6565 13.5621 15.6594 13.3681 15.6565C12.9314 15.6498 12.6483 15.4103 12.621 14.9938C12.5996 14.6805 12.5996 14.3662 12.621 14.0528C12.65 13.6419 12.9251 13.4109 13.353 13.4075C13.7613 13.4042 14.1696 13.4036 14.5773 13.4075C15.0064 13.4126 15.282 13.6802 15.2872 14.0939C15.2936 14.3873 15.2942 14.6807 15.2896 14.9702H15.289ZM2.89611 4.09893C2.89611 3.62957 3.09416 3.43283 3.58119 3.43227C5.06023 3.42927 6.53907 3.42927 8.01773 3.43227H14.5118C15.1222 3.43227 15.2907 3.5964 15.2907 4.18887C15.2907 4.75098 15.2907 5.31179 15.2907 5.87128C15.2907 6.35413 15.0886 6.552 14.5958 6.552H3.61826C3.09185 6.552 2.89727 6.362 2.89727 5.84935C2.89688 5.2655 2.89688 4.68203 2.89727 4.09893H2.89611ZM2.7108 9.77628C2.71485 9.35245 2.98993 9.0742 3.42773 9.06464C3.82789 9.05565 4.22863 9.05846 4.6288 9.06464C5.08397 9.07026 5.36368 9.3294 5.38163 9.7701C5.39322 10.0461 5.3909 10.3232 5.38163 10.5998C5.36716 11.0579 5.09556 11.3097 4.62243 11.3137C4.43016 11.3137 4.23732 11.3137 4.04332 11.3137C3.82789 11.3137 3.61189 11.3176 3.39646 11.3137C2.98529 11.3041 2.71311 11.0326 2.7079 10.6307C2.70616 10.3446 2.70906 10.0607 2.71195 9.77684L2.7108 9.77628ZM5.38221 19.2957C5.36194 19.7302 5.09671 19.9702 4.64327 19.9837C4.4429 19.9893 4.24311 19.9837 4.04274 19.9837V19.9753C3.80415 19.9753 3.56498 19.9876 3.32754 19.9719C3.16091 19.9624 3.00433 19.8914 2.88996 19.7734C2.77558 19.6553 2.7121 19.4993 2.71253 19.3373C2.70501 19.0236 2.70616 18.7094 2.71253 18.3963C2.7189 18.059 2.94997 17.7915 3.29627 17.756C3.77906 17.7121 4.26492 17.71 4.74809 17.7499C5.13493 17.7768 5.36194 18.0309 5.38163 18.421C5.39669 18.7133 5.39669 19.0056 5.38337 19.2962L5.38221 19.2957ZM5.37642 15.0039C5.34862 15.4098 5.06544 15.6515 4.64501 15.6571C4.24427 15.6624 3.84372 15.6624 3.44337 15.6571C2.99282 15.6515 2.71427 15.3761 2.7108 14.9387C2.7108 14.647 2.70558 14.3558 2.7108 14.0641C2.71003 13.9782 2.72687 13.893 2.76034 13.8135C2.79381 13.734 2.84325 13.6617 2.90576 13.6009C2.96828 13.5402 3.04263 13.4921 3.12449 13.4594C3.20635 13.4268 3.29407 13.4103 3.38256 13.4109C3.59799 13.4053 3.81341 13.4109 4.02942 13.4109C4.23732 13.4109 4.44522 13.4109 4.65312 13.4109C5.06892 13.4165 5.34168 13.6414 5.37295 14.0433C5.39786 14.3632 5.39941 14.6844 5.37758 15.0045L5.37642 15.0039ZM7.66389 9.72007C7.66678 9.54571 7.74017 9.37944 7.86823 9.25714C7.99628 9.13484 8.16874 9.06631 8.34839 9.06633C8.77925 9.05228 9.21126 9.05284 9.64212 9.06633C10.0504 9.07813 10.3278 9.35919 10.337 9.75604C10.3452 10.0472 10.3457 10.339 10.337 10.6307C10.3249 11.0438 10.044 11.3052 9.61548 11.3125C9.40758 11.3159 9.19968 11.3125 8.99178 11.3125C8.78388 11.3125 8.5754 11.3159 8.36751 11.3125C7.96213 11.3047 7.67953 11.0517 7.66158 10.6627C7.65057 10.3491 7.65057 10.0343 7.66505 9.72119L7.66389 9.72007ZM7.66389 14.0697C7.67953 13.67 7.96387 13.4148 8.38256 13.4081C8.59046 13.4053 8.79836 13.4081 9.00626 13.4081C9.21416 13.4081 9.42264 13.4053 9.63054 13.4081C10.0359 13.4154 10.3197 13.6678 10.3376 14.0568C10.3521 14.3699 10.3515 14.6847 10.3376 14.9983C10.3355 15.1728 10.2628 15.3394 10.1351 15.4623C10.0075 15.5851 9.83518 15.6543 9.65544 15.6549C9.21648 15.6672 8.77693 15.6684 8.33797 15.6549C7.95518 15.6425 7.67953 15.3654 7.66447 14.991C7.65173 14.6841 7.65173 14.3766 7.66389 14.0708V14.0697ZM15.1668 19.7038C15.0023 19.9252 14.7701 19.9882 14.5002 19.9848C13.5737 19.9803 12.6523 19.9848 11.7286 19.9848H8.54355C7.90654 19.9848 7.66331 19.7532 7.66273 19.1388C7.66273 18.9073 7.65868 18.6757 7.66273 18.4441C7.67142 18.0455 7.91464 17.7881 8.3206 17.7426C8.38969 17.7362 8.45911 17.7337 8.5285 17.7352C10.4975 17.7352 12.4684 17.7352 14.4412 17.7352C14.7307 17.7352 14.9936 17.783 15.1726 18.032C15.3515 18.2811 15.3463 19.4615 15.1668 19.7038Z" fill="white"/>
</svg>
