<svg width="22" height="22" viewBox="0 0 22 22" fill="none" xmlns="http://www.w3.org/2000/svg">
<g clip-path="url(#clip0_125_172)">
<path d="M15.317 14.0415C15.4635 14.1626 15.5693 14.3257 15.6201 14.5089C15.6708 14.6921 15.664 14.8865 15.6006 15.0657C15.5507 15.1961 15.4711 15.3131 15.3681 15.4073C15.2651 15.5016 15.1416 15.5706 15.0074 15.6089C14.8731 15.6472 14.7318 15.6537 14.5946 15.6278C14.4575 15.602 14.3282 15.5446 14.217 15.4602C14.1468 15.4015 14.0799 15.3392 14.0164 15.2734L11.2006 12.4498C11.0761 12.3253 11.0208 12.3045 10.8893 12.4498C9.93461 13.4118 8.96606 14.3668 8.01134 15.3356C7.89734 15.4694 7.74793 15.5683 7.58027 15.6209C7.41261 15.6736 7.23351 15.6778 7.06354 15.6332C6.91694 15.5937 6.78273 15.5177 6.6734 15.4123C6.56408 15.307 6.4832 15.1756 6.43831 15.0305C6.39342 14.8855 6.38598 14.7314 6.41667 14.5826C6.44736 14.4339 6.5152 14.2954 6.61385 14.1799L6.79373 13.9931L9.61637 11.1557C9.73398 11.0381 9.72706 10.9896 9.61637 10.8789L6.71763 7.98615C6.57715 7.86825 6.47509 7.71105 6.42455 7.53472C6.37401 7.3584 6.3773 7.17099 6.43398 6.99654C6.49518 6.80585 6.61823 6.64105 6.78365 6.52823C6.94906 6.41541 7.14738 6.36103 7.34719 6.3737C7.47233 6.38254 7.59441 6.41651 7.70614 6.47358C7.81787 6.53065 7.91696 6.60966 7.9975 6.70588C8.95222 7.66782 9.91385 8.61591 10.8617 9.57785C10.9862 9.70242 11.0484 9.72318 11.1868 9.57785C12.1415 8.60899 13.1101 7.65398 14.0648 6.69204C14.1859 6.54984 14.3474 6.44786 14.5278 6.39965C14.7082 6.35144 14.899 6.35929 15.0749 6.42214C15.2058 6.47139 15.3234 6.55049 15.4184 6.65317C15.5134 6.75585 15.5831 6.87928 15.6221 7.01364C15.661 7.14801 15.6681 7.28961 15.6428 7.4272C15.6174 7.56478 15.5604 7.69456 15.4761 7.80622C15.4151 7.87648 15.3505 7.94347 15.2824 8.00692L12.4321 10.8581C12.3214 10.9689 12.3283 11.0173 12.4321 11.1211L15.317 14.0415Z" fill="white"/>
<path d="M21.9932 10.2007C21.9517 9.96542 21.9932 9.7232 21.9447 9.50867C21.7908 8.34546 21.4448 7.2159 20.9208 6.16611C20.2496 4.81062 19.3078 3.60709 18.1535 2.62978C17.1275 1.76416 15.9564 1.08705 14.6944 0.629777C13.14 0.0934021 11.487 -0.0955782 9.85166 0.0761437C8.56467 0.174964 7.30954 0.525289 6.15732 1.10729C4.98643 1.69284 3.92604 2.47726 3.02336 3.42562C2.10734 4.40132 1.36972 5.53035 0.844115 6.76127C0.122541 8.48501 -0.151157 10.3634 0.0485174 12.2215C0.181934 13.744 0.654734 15.2172 1.43217 16.5329C2.20449 17.8657 3.24538 19.0233 4.48874 19.9323C5.73211 20.8413 7.15082 21.4818 8.65481 21.8132C9.1439 21.9065 9.63838 21.9689 10.1353 22H10.3913C10.4743 21.9516 10.5642 22 10.6473 22C10.7095 22 10.7856 22 10.8479 22H11.1108C11.173 21.9516 11.2491 22 11.3252 22C11.3875 22 11.4636 22 11.5259 22H11.7403C11.7524 21.9949 11.7653 21.9922 11.7784 21.9922C11.7915 21.9922 11.8044 21.9949 11.8164 22H11.9479C13.2992 21.9385 14.621 21.5843 15.8221 20.962C17.1858 20.2979 18.3949 19.3548 19.3712 18.1938C20.5456 16.8198 21.363 15.1773 21.751 13.4118C21.8529 12.9167 21.9177 12.4148 21.9447 11.9101V11.654C21.8963 11.571 21.9447 11.481 21.9447 11.3979C21.9447 11.3287 21.9447 11.2526 21.9447 11.1903V10.9343C21.8963 10.872 21.9447 10.7959 21.9447 10.7336C21.9447 10.6436 21.9447 10.5606 21.9447 10.4775L21.9932 10.2007ZM11.0001 20.1938C9.18436 20.1911 7.41022 19.6498 5.90202 18.6384C4.39382 17.6271 3.21929 16.191 2.52697 14.5119C1.83465 12.8329 1.65563 10.9861 2.01254 9.20524C2.36946 7.42438 3.24628 5.78937 4.53213 4.50699C5.81798 3.22461 7.45511 2.35244 9.23648 2.00079C11.0179 1.64913 12.8635 1.83377 14.5399 2.53137C16.2164 3.22896 17.6484 4.40818 18.6549 5.9199C19.6614 7.43162 20.1972 9.20794 20.1944 11.0242C20.1798 13.4564 19.2056 15.7845 17.4837 17.5017C15.7618 19.219 13.4316 20.1865 11.0001 20.1938Z" fill="white"/>
<path d="M21.9515 10.6713C21.9515 10.5882 21.91 10.4913 21.993 10.4152V10.6782C21.993 10.6782 21.9654 10.699 21.9515 10.6713Z" fill="white"/>
<path d="M21.993 11.6194C21.91 11.5433 21.993 11.4464 21.9515 11.3633C21.91 11.2803 21.9515 11.3633 21.993 11.3633V11.6194Z" fill="white"/>
<path d="M10.4119 22C10.488 21.9239 10.5848 22 10.6678 21.9585L10.4119 22Z" fill="white"/>
<path d="M21.9516 10.6713H21.9932V10.8858C21.924 10.8374 21.9586 10.7474 21.9516 10.6713Z" fill="white"/>
<path d="M21.9932 11.3633H21.9517C21.9517 11.2941 21.9517 11.2111 21.9932 11.1488V11.3633Z" fill="white"/>
<path d="M10.668 22V21.9585C10.7441 21.9585 10.8271 21.9585 10.8824 22H10.668Z" fill="white"/>
<path d="M11.1453 22C11.2075 21.9308 11.2836 21.9654 11.3597 21.9585L11.1453 22Z" fill="white"/>
<path d="M11.3599 22V21.9585C11.429 21.9585 11.5121 21.9585 11.5743 22H11.3599Z" fill="white"/>
<path d="M15.6006 15.0657C15.5507 15.1961 15.4711 15.3131 15.3681 15.4073C15.2651 15.5016 15.1416 15.5706 15.0074 15.6089C14.8731 15.6472 14.7318 15.6537 14.5946 15.6278C14.4575 15.602 14.3282 15.5446 14.217 15.4602C14.1468 15.4015 14.0799 15.3392 14.0164 15.2734L11.2006 12.4498C11.0761 12.3253 11.0208 12.3045 10.8893 12.4498C9.93461 13.4118 8.96606 14.3668 8.01134 15.3356C7.89734 15.4694 7.74793 15.5683 7.58027 15.6209C7.41261 15.6736 7.23351 15.6778 7.06354 15.6332C6.91694 15.5937 6.78273 15.5177 6.6734 15.4123C6.56408 15.307 6.4832 15.1756 6.43831 15.0305C6.39342 14.8855 6.38598 14.7314 6.41667 14.5826C6.44736 14.4339 6.5152 14.2954 6.61385 14.1799L6.79373 13.9931L9.61637 11.1557C9.73398 11.0381 9.72706 10.9896 9.61637 10.8789L6.71763 7.98615C6.57715 7.86825 6.47509 7.71105 6.42455 7.53472C6.37401 7.3584 6.3773 7.17099 6.43398 6.99654C6.49518 6.80585 6.61823 6.64105 6.78365 6.52823C6.94906 6.41541 7.14738 6.36103 7.34719 6.3737C7.47233 6.38254 7.59441 6.41651 7.70614 6.47358C7.81787 6.53065 7.91696 6.60966 7.9975 6.70588C8.95222 7.66782 9.91385 8.61591 10.8617 9.57785C10.9862 9.70242 11.0484 9.72318 11.1868 9.57785C12.1415 8.60899 13.1101 7.65398 14.0648 6.69204C14.1859 6.54984 14.3474 6.44786 14.5278 6.39965C14.7082 6.35144 14.899 6.35929 15.0749 6.42214C15.2058 6.47139 15.3234 6.55049 15.4184 6.65317C15.5134 6.75585 15.5831 6.87928 15.6221 7.01364C15.661 7.14801 15.6681 7.28961 15.6428 7.4272C15.6174 7.56478 15.5604 7.69456 15.4761 7.80622C15.4151 7.87648 15.3505 7.94347 15.2824 8.00692L12.4321 10.8581C12.3214 10.9689 12.3283 11.0173 12.4321 11.1211L15.3308 14.0138C15.4806 14.1385 15.5873 14.3073 15.6358 14.4961C15.6842 14.685 15.6719 14.8843 15.6006 15.0657Z" fill="white"/>
<path d="M15.6006 15.0657C15.5507 15.1961 15.4711 15.3131 15.3681 15.4073C15.2651 15.5016 15.1416 15.5706 15.0074 15.6089C14.8731 15.6472 14.7318 15.6537 14.5946 15.6278C14.4575 15.602 14.3282 15.5446 14.217 15.4602C14.1468 15.4015 14.0799 15.3392 14.0164 15.2734L11.2006 12.4498C11.0761 12.3253 11.0208 12.3045 10.8893 12.4498C9.93461 13.4118 8.96606 14.3668 8.01134 15.3356C7.89734 15.4694 7.74793 15.5683 7.58027 15.6209C7.41261 15.6736 7.23351 15.6778 7.06354 15.6332C6.91694 15.5937 6.78273 15.5177 6.6734 15.4123C6.56408 15.307 6.4832 15.1756 6.43831 15.0305C6.39342 14.8855 6.38598 14.7314 6.41667 14.5826C6.44736 14.4339 6.5152 14.2954 6.61385 14.1799L6.79373 13.9931L9.61637 11.1557C9.73398 11.0381 9.72706 10.9896 9.61637 10.8789L6.71763 7.98615C6.57715 7.86825 6.47509 7.71105 6.42455 7.53472C6.37401 7.3584 6.3773 7.17099 6.43398 6.99654C6.49518 6.80585 6.61823 6.64105 6.78365 6.52823C6.94906 6.41541 7.14738 6.36103 7.34719 6.3737C7.47233 6.38254 7.59441 6.41651 7.70614 6.47358C7.81787 6.53065 7.91696 6.60966 7.9975 6.70588C8.95222 7.66782 9.91385 8.61591 10.8617 9.57785C10.9862 9.70242 11.0484 9.72318 11.1868 9.57785C12.1415 8.60899 13.1101 7.65398 14.0648 6.69204C14.1859 6.54984 14.3474 6.44786 14.5278 6.39965C14.7082 6.35144 14.899 6.35929 15.0749 6.42214C15.2058 6.47139 15.3234 6.55049 15.4184 6.65317C15.5134 6.75585 15.5831 6.87928 15.6221 7.01364C15.661 7.14801 15.6681 7.28961 15.6428 7.4272C15.6174 7.56478 15.5604 7.69456 15.4761 7.80622C15.4151 7.87648 15.3505 7.94347 15.2824 8.00692L12.4321 10.8581C12.3214 10.9689 12.3283 11.0173 12.4321 11.1211L15.3308 14.0138C15.4806 14.1385 15.5873 14.3073 15.6358 14.4961C15.6842 14.685 15.6719 14.8843 15.6006 15.0657Z" fill="white"/>
</g>
<defs>
<clipPath id="clip0_125_172">
<rect width="22" height="22" fill="white"/>
</clipPath>
</defs>
</svg>
