<svg width="25" height="25" viewBox="0 0 25 25" fill="none" xmlns="http://www.w3.org/2000/svg">
<path d="M25 13.519C24.9179 13.8026 24.8704 14.095 24.8584 14.39C24.4348 17.1397 23.098 19.6667 21.0634 21.5638C20.8297 21.7904 20.5819 21.9958 20.3553 22.2224C20.5078 22.2797 20.6674 22.3155 20.8297 22.3286C20.9357 22.3333 21.0394 22.3603 21.1342 22.4079C21.2289 22.4556 21.3125 22.5228 21.3794 22.6051C21.4463 22.6874 21.495 22.7829 21.5223 22.8854C21.5496 22.9879 21.5549 23.095 21.5378 23.1997C21.5241 23.2993 21.4894 23.3948 21.436 23.4799C21.3826 23.5651 21.3117 23.6379 21.2279 23.6935C21.1442 23.7491 21.0496 23.7862 20.9504 23.8024C20.8513 23.8186 20.7498 23.8135 20.6527 23.7875C19.8668 23.6671 19.0809 23.5325 18.3021 23.3767C18.2031 23.3622 18.1084 23.3268 18.0241 23.273C17.9398 23.2192 17.8679 23.1482 17.813 23.0645C17.7582 22.9809 17.7217 22.8866 17.7059 22.7878C17.6901 22.6891 17.6954 22.5881 17.7215 22.4915C17.856 21.7125 17.9835 20.9406 18.1251 20.1687C18.1549 19.9774 18.2581 19.8053 18.4128 19.6889C18.5675 19.5725 18.7614 19.5211 18.9535 19.5455C19.0468 19.5569 19.1369 19.5867 19.2185 19.6332C19.3002 19.6797 19.3718 19.742 19.4291 19.8165C19.4865 19.891 19.5284 19.9762 19.5525 20.067C19.5766 20.1579 19.5823 20.2526 19.5694 20.3458C19.5694 20.5653 19.5057 20.7919 19.4632 21.0539L19.7252 20.8415C21.4936 19.3126 22.7303 17.2612 23.2568 14.9833C23.7833 12.7055 23.5723 10.3193 22.6543 8.16924C21.7363 6.0192 20.1588 4.21665 18.1497 3.02192C16.1405 1.82719 13.8037 1.30213 11.4767 1.52257C11 1.56545 10.5269 1.64117 10.0606 1.74918C9.96217 1.79448 9.85497 1.81768 9.74658 1.81717C9.63818 1.81666 9.53121 1.79245 9.43316 1.74624C9.3351 1.70002 9.24834 1.63291 9.17895 1.54963C9.10956 1.46634 9.05921 1.36888 9.03145 1.26408C9.00368 1.15928 8.99916 1.04967 9.01821 0.942938C9.03726 0.836207 9.07941 0.734933 9.14171 0.646213C9.20401 0.557493 9.28496 0.483474 9.37888 0.429341C9.4728 0.375208 9.57741 0.342272 9.6854 0.33284C10.2091 0.219202 10.7385 0.134096 11.2714 0.0778986C11.3209 0.0778986 11.3847 0.0778987 11.413 0.021245H11.852C11.8975 0.0422146 11.947 0.0530729 11.9971 0.0530729C12.0472 0.0530729 12.0967 0.0422146 12.1422 0.021245H13.4096C13.8627 0.0778987 14.3159 0.070817 14.7619 0.155798C16.5256 0.481113 18.1989 1.18147 19.6686 2.20949C20.3039 2.64856 20.8966 3.14648 21.4386 3.69665C23.311 5.59099 24.5269 8.03577 24.908 10.6721C24.9504 10.9625 24.908 11.2528 24.9788 11.5432V11.8335C24.9576 11.8803 24.9467 11.931 24.9467 11.9823C24.9467 12.0335 24.9576 12.0842 24.9788 12.131V12.7612C24.9576 12.808 24.9467 12.8587 24.9467 12.91C24.9467 12.9612 24.9576 13.0119 24.9788 13.0587L25 13.519Z" fill="white"/>
<path d="M12.1635 0C12.1234 0.0353501 12.0718 0.0548545 12.0183 0.0548545C11.9649 0.0548545 11.9133 0.0353501 11.8732 0H12.1635Z" fill="#2F2E2D"/>
<path d="M25 12.1097C24.9641 12.0685 24.9444 12.0157 24.9444 11.961C24.9444 11.9064 24.9641 11.8535 25 11.8123V12.1097Z" fill="#3B3938"/>
<path d="M25 13.0658C24.9627 13.0252 24.942 12.9721 24.942 12.917C24.942 12.8619 24.9627 12.8089 25 12.7683V13.0658Z" fill="#262525"/>
<path d="M12.5246 8.34934C11.7034 8.34514 10.8994 8.58477 10.2145 9.03789C9.52954 9.491 8.99445 10.1372 8.67695 10.8947C8.35946 11.6522 8.27384 12.4869 8.43095 13.2931C8.58807 14.0993 8.98083 14.8408 9.55952 15.4235C10.1382 16.0063 10.8768 16.4042 11.6817 16.5669C12.4867 16.7295 13.3218 16.6496 14.0813 16.3372C14.8408 16.0249 15.4905 15.4941 15.9482 14.8121C16.4059 14.1302 16.651 13.3277 16.6524 12.5063C16.6552 11.962 16.5505 11.4225 16.3444 10.9187C16.1383 10.415 15.8348 9.95687 15.4513 9.57067C15.0678 9.18448 14.6119 8.87779 14.1097 8.66821C13.6074 8.45863 13.0688 8.35027 12.5246 8.34934ZM12.4892 15.1903C11.9582 15.1875 11.4399 15.0271 11.0001 14.7295C10.5602 14.432 10.2185 14.0106 10.0182 13.5187C9.81791 13.0268 9.76804 12.4865 9.87491 11.9662C9.98177 11.4459 10.2406 10.9691 10.6185 10.596C10.9965 10.2229 11.4766 9.97039 11.9982 9.87038C12.5197 9.77037 13.0592 9.82738 13.5483 10.0342C14.0374 10.241 14.4542 10.5883 14.7458 11.0322C15.0375 11.476 15.191 11.9964 15.1868 12.5276C15.1756 13.2364 14.8867 13.9126 14.3822 14.4105C13.8777 14.9085 13.198 15.1885 12.4892 15.1903Z" fill="white"/>
<path d="M20.3766 14.7866L19.6048 13.8093C19.5651 13.766 19.536 13.714 19.52 13.6574C19.504 13.6008 19.5016 13.5413 19.5128 13.4836C19.612 12.8311 19.612 12.1674 19.5128 11.5149C19.5012 11.4577 19.5028 11.3986 19.5175 11.3421C19.5322 11.2857 19.5597 11.2333 19.5978 11.1891L20.4332 10.1339C20.5363 10.0214 20.6002 9.87853 20.6156 9.72668C20.6309 9.57482 20.5967 9.42208 20.5182 9.29121C20.1075 8.58304 19.6969 7.87487 19.2791 7.16669C19.2088 7.04516 19.104 6.94728 18.9779 6.8855C18.8518 6.82371 18.7102 6.8008 18.5711 6.81969C18.0967 6.87634 17.6224 6.94716 17.1551 7.02506C17.1057 7.03729 17.054 7.03723 17.0047 7.02489C16.9553 7.01254 16.9097 6.98829 16.8719 6.95424C16.3544 6.53501 15.7768 6.19602 15.1584 5.94864C15.1011 5.93017 15.0492 5.89792 15.0072 5.85471C14.9652 5.81149 14.9345 5.75864 14.9177 5.70078C14.7619 5.29712 14.592 4.89346 14.4292 4.48981C14.3846 4.32642 14.2829 4.18442 14.1426 4.08957C14.0023 3.99473 13.8327 3.95331 13.6645 3.97284H11.3705C11.1943 3.95394 11.017 3.99745 10.8695 4.09579C10.722 4.19412 10.6137 4.34107 10.5633 4.51105C10.4076 4.90763 10.2447 5.3042 10.0961 5.70786C10.0759 5.76396 10.044 5.8151 10.0025 5.85785C9.96099 5.9006 9.9108 5.93397 9.85532 5.95572C9.23429 6.1989 8.65408 6.53563 8.13482 6.95424C8.10382 6.98582 8.06602 7.00989 8.0243 7.02462C7.98257 7.03935 7.93804 7.04434 7.89409 7.03922C7.45511 6.96841 7.01614 6.91175 6.57716 6.84802C6.39931 6.79457 6.20803 6.80831 6.03965 6.88665C5.87127 6.96498 5.73752 7.10244 5.66381 7.27292L4.54513 9.21331C4.43588 9.36129 4.38363 9.5437 4.39793 9.72709C4.41223 9.91049 4.49214 10.0826 4.62301 10.2118L5.40892 11.1679C5.45272 11.2131 5.48469 11.2684 5.50198 11.3289C5.51927 11.3895 5.52136 11.4533 5.50804 11.5149C5.40897 12.1602 5.40897 12.817 5.50804 13.4623C5.52042 13.5277 5.51726 13.5952 5.49881 13.6591C5.48036 13.7231 5.44715 13.7818 5.40184 13.8306C5.13279 14.1634 4.87082 14.5388 4.60177 14.8433C4.5005 14.9503 4.43516 15.0864 4.41486 15.2323C4.39455 15.3783 4.42029 15.527 4.48849 15.6577C4.89914 16.4083 5.33104 17.1377 5.77001 17.8672C5.83904 17.9885 5.94481 18.0847 6.07207 18.142C6.19933 18.1993 6.34149 18.2146 6.47804 18.1858C6.95242 18.1292 7.42679 18.0584 7.89409 17.9805C7.94016 17.9687 7.98848 17.9691 8.03437 17.9815C8.08027 17.9939 8.12218 18.0179 8.15606 18.0513C8.67278 18.4698 9.25064 18.8066 9.86948 19.0498C9.93036 19.0704 9.98566 19.1047 10.0311 19.1502C10.0765 19.1956 10.1109 19.2509 10.1315 19.3118C10.2872 19.7226 10.4501 20.1262 10.6129 20.5299C10.6585 20.6893 10.7586 20.8277 10.8958 20.9209C11.0329 21.014 11.1984 21.0561 11.3634 21.0398H13.6574C13.8371 21.0633 14.0192 21.0211 14.1701 20.9209C14.3211 20.8207 14.4307 20.6692 14.4787 20.4945C14.6416 20.0908 14.8044 19.6872 14.9602 19.2764C14.9761 19.2316 15.0013 19.1908 15.0343 19.1566C15.0673 19.1224 15.1072 19.0956 15.1514 19.0781C15.7836 18.8156 16.3731 18.4599 16.9002 18.023C16.9257 17.9973 16.9571 17.9781 16.9916 17.967C17.026 17.9559 17.0627 17.9532 17.0984 17.9592L18.4508 18.1504C18.6237 18.2081 18.8122 18.1969 18.9771 18.1191C19.1419 18.0413 19.2704 17.9028 19.3358 17.7326C19.711 17.0882 20.0863 16.4437 20.4545 15.7922C20.5657 15.6437 20.6191 15.4598 20.6047 15.2748C20.5904 15.0897 20.5093 14.9163 20.3766 14.7866ZM17.9835 11.3307C18.1533 12.0933 18.1533 12.8839 17.9835 13.6465C17.9535 13.77 17.954 13.899 17.9848 14.0223C18.0156 14.1457 18.0759 14.2597 18.1605 14.3546C18.4083 14.6591 18.6419 14.9707 18.8685 15.2682C18.9044 15.3052 18.9245 15.3547 18.9245 15.4063C18.9245 15.4578 18.9044 15.5074 18.8685 15.5444C18.6773 15.863 18.4932 16.1817 18.3162 16.5146C18.2916 16.5655 18.2493 16.6058 18.1972 16.628C18.1452 16.6501 18.0868 16.6526 18.033 16.6349C17.6507 16.5641 17.2684 16.5146 16.8789 16.4579C16.7635 16.436 16.6446 16.4412 16.5315 16.4732C16.4185 16.5051 16.3144 16.5629 16.2276 16.642C15.6313 17.1834 14.9265 17.5914 14.1601 17.8388C14.0517 17.8752 13.9527 17.9354 13.8706 18.0151C13.7885 18.0947 13.7254 18.1918 13.6857 18.2991C13.5441 18.6674 13.3884 19.0073 13.2468 19.4039C13.2043 19.5243 13.1547 19.5809 13.0131 19.5739C12.6449 19.5739 12.3051 19.5739 11.9157 19.5739C11.8887 19.5789 11.8609 19.5785 11.8341 19.5727C11.8072 19.5668 11.7818 19.5556 11.7594 19.5398C11.7369 19.5239 11.7179 19.5037 11.7034 19.4804C11.6889 19.4571 11.6792 19.431 11.6749 19.4039C11.5404 19.0427 11.3847 18.6957 11.2431 18.3204C11.2021 18.2009 11.1331 18.0929 11.042 18.0055C10.9509 17.918 10.8402 17.8536 10.7191 17.8176C9.99258 17.5829 9.32411 17.1968 8.75788 16.6845C8.68047 16.6058 8.58775 16.5439 8.48546 16.5025C8.38316 16.4611 8.27346 16.4411 8.16314 16.4437C7.75248 16.5004 7.34183 16.557 6.93826 16.6279C6.76833 16.6279 6.66921 16.6279 6.59132 16.4721C6.43556 16.1676 6.25855 15.8772 6.07446 15.5869C6.03115 15.5409 6.00703 15.4801 6.00703 15.4169C6.00703 15.3537 6.03115 15.2929 6.07446 15.2469C6.31519 14.9637 6.53468 14.6591 6.78249 14.3759C6.8725 14.2699 6.9356 14.1437 6.96641 14.0081C6.99723 13.8725 6.99486 13.7314 6.9595 13.5969C6.80367 12.8734 6.80367 12.125 6.9595 11.4016C7.00134 11.267 7.01096 11.1244 6.98759 10.9854C6.96423 10.8464 6.90852 10.7148 6.82497 10.6013C6.58424 10.3181 6.36475 10.0135 6.11695 9.73028C6.07963 9.68974 6.05891 9.63666 6.05891 9.58156C6.05891 9.52646 6.07963 9.47337 6.11695 9.43284C6.30811 9.12125 6.4922 8.80965 6.66213 8.48389C6.68413 8.43188 6.72422 8.38959 6.77498 8.36486C6.82574 8.34012 6.88374 8.33461 6.93826 8.34934L8.06402 8.52638C8.18987 8.5497 8.31943 8.54327 8.44236 8.50762C8.56529 8.47196 8.67819 8.40806 8.77204 8.32101C9.3509 7.79895 10.0338 7.40554 10.7758 7.16669C10.8952 7.127 11.0039 7.06038 11.0936 6.97197C11.1832 6.88356 11.2513 6.77573 11.2926 6.65681C11.4271 6.28856 11.5829 5.94864 11.7245 5.57331C11.7347 5.52395 11.7628 5.48007 11.8032 5.45004C11.8437 5.42 11.8938 5.4059 11.944 5.41043C12.3216 5.41043 12.6969 5.41043 13.0698 5.41043C13.12 5.4059 13.1701 5.42 13.2105 5.45004C13.251 5.48007 13.279 5.52395 13.2892 5.57331C13.4238 5.92739 13.5795 6.28148 13.707 6.63557C13.7532 6.76501 13.8292 6.88179 13.9288 6.9765C14.0284 7.07121 14.1489 7.14121 14.2805 7.18086C14.9292 7.36446 15.5273 7.69388 16.0293 8.14397C16.1974 8.31456 16.4091 8.43579 16.6413 8.49447C16.8735 8.55315 17.1173 8.54705 17.3462 8.47681C17.6082 8.42016 17.8773 8.39891 18.1392 8.34934C18.1862 8.33741 18.2358 8.34306 18.2789 8.36524C18.3219 8.38742 18.3553 8.42459 18.3729 8.46973C18.557 8.80257 18.741 9.13541 18.9393 9.46117C18.9717 9.49426 18.9899 9.53876 18.9899 9.5851C18.9899 9.63144 18.9717 9.67593 18.9393 9.70903C18.6986 10.0135 18.4649 10.3251 18.2313 10.6226C18.1347 10.711 18.0616 10.8219 18.0184 10.9455C17.9751 11.0691 17.9631 11.2014 17.9835 11.3307Z" fill="white"/>
<path d="M4.70089 2.71938L4.19111 2.6344C4.08718 2.63153 3.98515 2.60579 3.89228 2.55903C3.79942 2.51226 3.71798 2.44561 3.65378 2.36382C3.58957 2.28202 3.54416 2.18708 3.52078 2.08575C3.4974 1.98442 3.49662 1.87918 3.51849 1.77751C3.53102 1.68047 3.56352 1.58708 3.61394 1.50323C3.66436 1.41937 3.7316 1.34688 3.81143 1.29033C3.89126 1.23377 3.98194 1.19437 4.07776 1.17462C4.17357 1.15487 4.27244 1.15519 4.36812 1.17556C5.16819 1.29595 5.96826 1.43759 6.76125 1.59339C6.85638 1.60853 6.94742 1.64293 7.0288 1.69448C7.11019 1.74604 7.18019 1.81366 7.23454 1.89321C7.28889 1.97276 7.32644 2.06257 7.34489 2.15714C7.36333 2.2517 7.36229 2.34904 7.34183 2.44319L6.93826 4.76599C6.93167 4.8645 6.90455 4.96055 6.85866 5.04796C6.81277 5.13537 6.74911 5.21222 6.67177 5.27357C6.59443 5.33492 6.50512 5.37942 6.40957 5.40421C6.31402 5.429 6.21435 5.43353 6.11695 5.41751C5.93263 5.39444 5.76477 5.29985 5.64954 5.15413C5.53431 5.00841 5.48095 4.82323 5.50096 4.63852C5.50096 4.41191 5.56469 4.19237 5.60009 3.93035C4.98595 4.41716 4.43002 4.97321 3.94331 5.58747C2.66407 7.13858 1.84703 9.01841 1.58558 11.0121C1.34911 12.6422 1.48907 14.3048 1.99472 15.8724C2.50038 17.44 3.35829 18.8709 4.50265 20.0554C6.21053 21.9046 8.51343 23.0951 11.0094 23.4192C12.3066 23.6072 13.6276 23.5495 14.9035 23.2493C15.0224 23.2051 15.1505 23.1914 15.2761 23.2096C15.4016 23.2278 15.5206 23.2772 15.622 23.3533C15.7235 23.4295 15.8043 23.5299 15.8569 23.6453C15.9095 23.7607 15.9322 23.8875 15.9231 24.0141C15.9051 24.1805 15.8331 24.3365 15.718 24.458C15.6029 24.5795 15.4511 24.6599 15.2859 24.6869C14.5882 24.8482 13.8772 24.9453 13.1618 24.9772C10.1995 25.1579 7.272 24.2598 4.92038 22.449C3.64991 21.5065 2.57764 20.3227 1.76488 18.9654C0.952127 17.6081 0.414821 16.1039 0.183687 14.5388C-0.134035 12.724 -0.0386748 10.8609 0.462677 9.08798C0.964028 7.31511 1.85847 5.67808 3.07951 4.2986C3.32024 4.01533 3.58221 3.75331 3.85126 3.49128C4.12031 3.22926 4.39644 3.00265 4.70089 2.71938Z" fill="white"/>
<path d="M12.5246 8.34934C11.7034 8.34514 10.8994 8.58477 10.2145 9.03789C9.52954 9.491 8.99445 10.1372 8.67695 10.8947C8.35946 11.6522 8.27384 12.4869 8.43095 13.2931C8.58807 14.0993 8.98083 14.8408 9.55952 15.4235C10.1382 16.0063 10.8768 16.4042 11.6817 16.5669C12.4867 16.7295 13.3218 16.6496 14.0813 16.3372C14.8408 16.0249 15.4905 15.4941 15.9482 14.8121C16.4059 14.1302 16.651 13.3277 16.6524 12.5063C16.6552 11.962 16.5505 11.4225 16.3444 10.9187C16.1383 10.415 15.8348 9.95687 15.4513 9.57067C15.0678 9.18448 14.6119 8.87779 14.1097 8.66821C13.6074 8.45863 13.0688 8.35027 12.5246 8.34934ZM12.4892 15.1903C11.9582 15.1875 11.4399 15.0271 11.0001 14.7295C10.5602 14.432 10.2185 14.0106 10.0182 13.5187C9.81791 13.0268 9.76804 12.4865 9.87491 11.9662C9.98177 11.4459 10.2406 10.9691 10.6185 10.596C10.9965 10.2229 11.4766 9.97039 11.9982 9.87038C12.5197 9.77037 13.0592 9.82738 13.5483 10.0342C14.0374 10.241 14.4542 10.5883 14.7458 11.0322C15.0375 11.476 15.191 11.9964 15.1868 12.5276C15.1756 13.2364 14.8867 13.9126 14.3822 14.4105C13.8777 14.9085 13.198 15.1885 12.4892 15.1903Z" fill="white"/>
<path d="M12.5246 8.34934C11.7034 8.34514 10.8994 8.58477 10.2145 9.03789C9.52954 9.491 8.99445 10.1372 8.67695 10.8947C8.35946 11.6522 8.27384 12.4869 8.43095 13.2931C8.58807 14.0993 8.98083 14.8408 9.55952 15.4235C10.1382 16.0063 10.8768 16.4042 11.6817 16.5669C12.4867 16.7295 13.3218 16.6496 14.0813 16.3372C14.8408 16.0249 15.4905 15.4941 15.9482 14.8121C16.4059 14.1302 16.651 13.3277 16.6524 12.5063C16.6552 11.962 16.5505 11.4225 16.3444 10.9187C16.1383 10.415 15.8348 9.95687 15.4513 9.57067C15.0678 9.18448 14.6119 8.87779 14.1097 8.66821C13.6074 8.45863 13.0688 8.35027 12.5246 8.34934ZM12.4892 15.1903C11.9582 15.1875 11.4399 15.0271 11.0001 14.7295C10.5602 14.432 10.2185 14.0106 10.0182 13.5187C9.81791 13.0268 9.76804 12.4865 9.87491 11.9662C9.98177 11.4459 10.2406 10.9691 10.6185 10.596C10.9965 10.2229 11.4766 9.97039 11.9982 9.87038C12.5197 9.77037 13.0592 9.82738 13.5483 10.0342C14.0374 10.241 14.4542 10.5883 14.7458 11.0322C15.0375 11.476 15.191 11.9964 15.1868 12.5276C15.1756 13.2364 14.8867 13.9126 14.3822 14.4105C13.8777 14.9085 13.198 15.1885 12.4892 15.1903Z" fill="white"/>
</svg>
