<svg width="19" height="20" viewBox="0 0 19 20" fill="none" xmlns="http://www.w3.org/2000/svg">
<path d="M18.9989 2.25285V17.9221C18.9762 18.3716 18.8129 18.8034 18.5311 19.159C18.2494 19.5146 17.8628 19.7767 17.4237 19.9099C17.3051 19.9268 17.1889 19.957 17.0773 20H13.2882C13.2557 19.9417 13.1853 19.947 13.1366 19.9258C12.9207 19.8374 12.7411 19.6809 12.6263 19.4811C12.5116 19.2814 12.4683 19.0498 12.5033 18.8232C12.5369 18.5885 12.6553 18.3733 12.8371 18.2167C13.0188 18.0602 13.2518 17.9726 13.4939 17.9698C14.5278 17.9698 15.5671 17.9698 16.6064 17.9698C16.8878 17.9698 16.9041 17.9698 16.9041 17.6729V2.32706C16.9041 2.03552 16.9041 2.02491 16.6064 2.02491H2.39713C2.10483 2.02491 2.094 2.02491 2.094 2.32176V17.657C2.094 17.938 2.094 17.9433 2.38631 17.9433H5.27687C5.51845 17.9339 5.7563 18.0039 5.9525 18.1422C6.14871 18.2806 6.29198 18.4793 6.35948 18.7066C6.39966 18.8439 6.40907 18.9881 6.38705 19.1293C6.36504 19.2705 6.31212 19.4054 6.23192 19.5247C6.15173 19.644 6.04615 19.7449 5.92242 19.8206C5.79869 19.8962 5.65972 19.9447 5.51505 19.9629H2.18603C2.13731 19.9629 2.07776 19.9629 2.04529 20H1.9262C1.35598 19.922 0.838484 19.6315 0.481521 19.1891C0.124557 18.7467 -0.0443515 18.1865 0.00998239 17.6252C0.00998239 12.5258 0.00998239 7.42822 0.00998239 2.33236C0.00998239 2.24755 0.00998239 2.16274 0.00998239 2.07792C0.0319848 1.52641 0.268472 1.00401 0.671013 0.617698C1.07355 0.231386 1.61168 0.0104014 2.1752 0C7.04694 0 11.9187 0 16.7904 0C17.0091 0.00152428 17.2263 0.0354815 17.4346 0.100716C17.8996 0.242903 18.3042 0.530269 18.5867 0.918898C18.8692 1.30753 19.014 1.77604 18.9989 2.25285Z" fill="white"/>
<path d="M5.51505 19.9629C5.51282 19.9752 5.51282 19.9877 5.51505 20H2.04529C2.07776 19.947 2.13731 19.9629 2.18603 19.9629H5.51505Z" fill="#3C3A39"/>
<path d="M12.6982 15.2187C12.6103 15.3128 12.504 15.3888 12.3857 15.4421C12.2673 15.4953 12.1392 15.5248 12.009 15.5288C11.8788 15.5327 11.7491 15.5111 11.6276 15.4651C11.5061 15.4191 11.3952 15.3497 11.3016 15.2611C11.0363 15.0119 10.7603 14.731 10.5167 14.4765C10.4775 14.5421 10.4641 14.6193 10.4788 14.6939V18.8762C10.4975 19.0877 10.4459 19.2995 10.3318 19.48C10.2177 19.6605 10.0471 19.8001 9.84548 19.8781C9.69515 19.9324 9.53354 19.95 9.37468 19.9294C9.21582 19.9087 9.06451 19.8505 8.93385 19.7596C8.8032 19.6687 8.69715 19.548 8.62491 19.4079C8.55267 19.2679 8.51641 19.1126 8.51929 18.9557C8.51929 17.5351 8.51929 16.1198 8.51929 14.7151V14.4447C8.22698 14.7416 7.97798 15.0066 7.71274 15.2558C7.5895 15.3695 7.4384 15.4503 7.27401 15.4902C7.10962 15.5301 6.9375 15.5278 6.77427 15.4836C6.61104 15.4394 6.46221 15.3547 6.34214 15.2377C6.22207 15.1207 6.13483 14.9754 6.08883 14.8158C6.03906 14.6596 6.03394 14.493 6.07402 14.3341C6.1141 14.1753 6.19785 14.0302 6.31618 13.9147C7.16061 13.0736 8.01226 12.2396 8.87113 11.4127C8.9633 11.3253 9.07246 11.2569 9.19212 11.2116C9.31179 11.1663 9.43952 11.145 9.56775 11.149C9.69598 11.1529 9.8221 11.182 9.93861 11.2346C10.0551 11.2872 10.1597 11.3622 10.246 11.4551L12.7144 13.8723C12.806 13.9604 12.8785 14.0658 12.9275 14.182C12.9765 14.2983 13.0009 14.4231 12.9994 14.5488C12.9979 14.6746 12.9704 14.7988 12.9187 14.9139C12.8669 15.029 12.7919 15.1327 12.6982 15.2187Z" fill="white"/>
<path d="M14.1759 5.1789C14.1001 5.35125 13.9725 5.49686 13.81 5.59631C13.6475 5.69576 13.4579 5.74431 13.2665 5.73549H5.74239C5.64941 5.73568 5.55673 5.725 5.46633 5.70368C5.24687 5.64565 5.05447 5.51547 4.92141 5.33498C4.78836 5.15449 4.72274 4.93468 4.73557 4.71243C4.75026 4.48204 4.85214 4.2653 5.02131 4.10454C5.19048 3.94378 5.41477 3.85056 5.65037 3.8431C6.55435 3.8431 7.45833 3.8431 8.35689 3.8431H13.1853C13.3447 3.83029 13.505 3.85486 13.6528 3.91478C13.8006 3.9747 13.9317 4.06824 14.0352 4.18765C14.1536 4.32209 14.2298 4.48713 14.2548 4.66296C14.2797 4.83879 14.2524 5.01794 14.1759 5.1789Z" fill="white"/>
<path d="M13.5588 9.34535C13.4245 9.37869 13.2857 9.39121 13.1474 9.38246C11.9295 9.38246 10.7116 9.38246 9.49363 9.38246C8.2757 9.38246 7.01987 9.38246 5.7857 9.38246C5.65136 9.39539 5.51574 9.38114 5.38725 9.34061C5.25877 9.30008 5.14016 9.23412 5.03879 9.14683C4.93741 9.05954 4.85544 8.95278 4.79796 8.83318C4.74047 8.71358 4.7087 8.58368 4.70461 8.45155C4.70052 8.31943 4.7242 8.18788 4.77419 8.06509C4.82417 7.9423 4.89939 7.83087 4.99518 7.73774C5.09097 7.6446 5.20528 7.57173 5.33103 7.52365C5.45677 7.47557 5.59126 7.45332 5.72615 7.45826H13.3044C13.5389 7.46238 13.7641 7.54827 13.9397 7.70049C14.1153 7.85271 14.2297 8.06126 14.2623 8.28867C14.2949 8.51608 14.2436 8.74742 14.1177 8.94111C13.9917 9.1348 13.7993 9.27813 13.5751 9.34535H13.5588Z" fill="white"/>
</svg>
