<svg width="16" height="24" viewBox="0 0 16 24" fill="none" xmlns="http://www.w3.org/2000/svg">
<g clip-path="url(#clip0_125_142)">
<path d="M0 11.9965H2.32676C2.81034 11.9965 3.30092 11.9965 3.78449 11.9965C4.01577 11.9965 4.05782 11.9262 4.05782 11.7154C4.05782 9.03076 4.05782 6.34613 4.05782 3.6615C4.05782 2.523 4.05782 1.39152 4.05782 0.25301C4.05782 0.0632591 4.09286 -0.00701904 4.31012 -0.00701904H11.7249C11.9842 -0.00701904 11.9982 0.0983983 11.9982 0.302205C11.9982 4.08317 11.9982 7.85711 11.9982 11.6381C11.9982 11.9122 12.0473 12.0035 12.3417 11.9965C13.5261 11.9965 14.7105 11.9965 15.8949 11.9965C15.8949 12.116 15.8248 12.1441 15.7757 12.1933L8.21375 19.7903C8.0876 19.9098 8.01752 20.0152 7.8353 19.7903C5.29362 17.2322 2.74493 14.6788 0.189225 12.13L0 11.9965Z" fill="white"/>
<path d="M8.01052 23.993C5.45248 23.993 2.90145 23.993 0.350419 23.993C0.0630781 23.993 3.48873e-06 23.9086 0.0140201 23.6416C0.0140201 23.1731 0.0140201 22.7045 0.0140201 22.236C0.0140201 21.9971 0.0770951 21.9409 0.30837 21.9409C2.75427 21.9409 5.2142 21.9409 7.65309 21.9409C10.3373 21.9409 13.0145 21.9409 15.6916 21.9409C15.9509 21.9409 16.021 22.0182 16.007 22.2712C16.007 22.7397 16.007 23.2082 16.007 23.6767C16.007 23.9297 15.9439 23.993 15.6986 23.986L8.01052 23.993Z" fill="white"/>
</g>
<defs>
<clipPath id="clip0_125_142">
<rect width="16" height="24" fill="white"/>
</clipPath>
</defs>
</svg>
