<svg width="36" height="36" viewBox="0 0 36 36" fill="none" xmlns="http://www.w3.org/2000/svg">
<path d="M35.3805 13.5424C34.9784 11.8755 34.316 10.2823 33.4177 8.82146C33.3803 8.72851 33.3239 8.64443 33.2519 8.57469C33.18 8.50494 33.0942 8.45108 33.0001 8.4166C32.906 8.38212 32.8057 8.36779 32.7057 8.37453C32.6057 8.38128 32.5083 8.40895 32.4196 8.45576C32.0204 8.65523 31.9373 9.08743 32.2367 9.58612C34.1828 12.867 34.9294 16.7211 34.3492 20.4908C33.8271 24.2586 31.9888 27.7207 29.1594 30.2651C29.1594 30.2651 29.0596 30.4147 28.9598 30.3814C28.4402 27.9841 27.1487 25.8229 25.2831 24.2287C23.4176 22.6346 21.0806 21.6953 18.6301 21.5546C16.1251 21.3712 13.6336 22.0582 11.5773 23.4995C9.22812 25.1204 7.58618 27.5757 6.98627 30.3648C6.86564 30.3272 6.76055 30.2513 6.68686 30.1487C4.36764 28.0626 2.70638 25.3469 1.90589 22.333C1.10539 19.3191 1.20031 16.1375 2.17905 13.1767C2.81455 11.0737 3.86453 9.11896 5.26721 7.42752C6.66989 5.73608 8.39693 4.34208 10.3467 3.32757C12.2965 2.31305 14.4296 1.6985 16.6206 1.52008C18.8116 1.34166 21.0162 1.60297 23.1046 2.28864C24.8708 2.85237 26.5256 3.71857 27.995 4.84857C28.0865 4.93733 28.1968 5.00435 28.3177 5.04464C28.4387 5.08493 28.5672 5.09746 28.6936 5.0813C28.8365 5.06109 28.9689 4.99505 29.0709 4.89311C29.1729 4.79117 29.239 4.65886 29.2592 4.51611C29.2852 4.36646 29.2639 4.21244 29.1983 4.07541C29.1328 3.93839 29.0261 3.82516 28.8932 3.75146C26.5039 1.85852 23.6575 0.628287 20.6409 0.184705C17.6243 -0.258877 14.544 0.0998581 11.7103 1.22477C8.67845 2.28163 5.99836 4.15632 3.96677 6.64131C1.93519 9.1263 0.63135 12.1247 0.199608 15.3044C0.175126 15.7256 0.108253 16.1433 0 16.5511V16.9667C0.0106198 16.9761 0.0191253 16.9876 0.0249512 17.0005C0.030777 17.0134 0.0337898 17.0274 0.0337898 17.0415C0.0337898 17.0557 0.030777 17.0697 0.0249512 17.0825C0.0191253 17.0954 0.0106198 17.107 0 17.1163V18.7786C0.0322177 18.8431 0.0489882 18.9143 0.0489882 18.9864C0.0489882 19.0585 0.0322177 19.1297 0 19.1942V19.6264C0 19.9921 -9.29496e-08 20.391 0.0998038 20.7567C0.375086 22.5735 0.936504 24.3351 1.7632 25.9764C2.85857 28.2692 4.43584 30.299 6.38745 31.9274C8.93079 34.0562 12.0189 35.4322 15.3033 35.9003C15.7025 35.9003 16.1017 35.9003 16.4843 36H17.0498C17.1144 35.9678 17.1856 35.951 17.2578 35.951C17.3299 35.951 17.4011 35.9678 17.4657 36H18.4471C18.4996 35.9676 18.5601 35.9505 18.6217 35.9505C18.6834 35.9505 18.7439 35.9676 18.7964 36H19.2954C19.5777 35.8981 19.8773 35.8529 20.177 35.867C23.5863 35.5136 26.8096 34.1406 29.4255 31.9274C32.0973 29.7717 34.0832 26.8853 35.1407 23.6204C36.1981 20.3556 36.2815 16.8537 35.3805 13.5424ZM27.4294 31.6282C24.9797 33.3479 22.1006 34.3549 19.1124 34.5372H17.998C14.6279 34.5215 11.3409 33.4903 8.5665 31.5783C8.46698 31.5225 8.38958 31.4344 8.3472 31.3285C8.30483 31.2226 8.30004 31.1055 8.33363 30.9965C8.70431 28.8833 9.75697 26.9496 11.3308 25.4905C12.9047 24.0314 14.9132 23.1273 17.0496 22.9163C19.186 22.7052 21.3327 23.1989 23.162 24.3217C24.9912 25.4446 26.4024 27.135 27.1799 29.1347C27.4001 29.7466 27.5725 30.3746 27.6956 31.0131C27.7197 31.0708 27.7319 31.1328 27.7315 31.1954C27.7311 31.2579 27.7181 31.3197 27.6933 31.3771C27.6684 31.4346 27.6323 31.4864 27.5869 31.5295C27.5416 31.5726 27.488 31.6062 27.4294 31.6282Z" fill="white"/>
<path d="M0 18.629C0.0538673 18.6848 0.0839713 18.7593 0.0839713 18.8368C0.0839713 18.9143 0.0538673 18.9888 0 19.0446V18.629Z" fill="white"/>
<path d="M17.0665 35.9834C17.1223 35.9295 17.1968 35.8995 17.2744 35.8995C17.352 35.8995 17.4265 35.9295 17.4823 35.9834H17.0665Z" fill="white"/>
<path d="M18.4637 35.9834C18.4856 35.9586 18.5125 35.9388 18.5426 35.9252C18.5727 35.9116 18.6053 35.9046 18.6384 35.9046C18.6714 35.9046 18.7041 35.9116 18.7342 35.9252C18.7643 35.9388 18.7912 35.9586 18.813 35.9834H18.4637Z" fill="white"/>
<path d="M0 16.9667C0.0831699 16.9667 0.0831699 17.0665 0 17.0997V16.9667Z" fill="white"/>
<path d="M17.9647 7.50825C16.7146 7.51154 15.4935 7.88522 14.4558 8.58205C13.4182 9.27887 12.6106 10.2675 12.1352 11.423C11.6599 12.5785 11.538 13.8489 11.7852 15.0736C12.0323 16.2983 12.6373 17.4222 13.5236 18.3033C14.4099 19.1844 15.5378 19.783 16.7645 20.0235C17.9913 20.264 19.2619 20.1356 20.4156 19.6545C21.5694 19.1733 22.5544 18.3611 23.2462 17.3205C23.938 16.2799 24.3055 15.0577 24.3023 13.8084C24.3045 12.9776 24.1418 12.1546 23.8237 11.3871C23.5056 10.6195 23.0383 9.92266 22.4489 9.33676C21.8596 8.75086 21.1598 8.28758 20.3901 7.97372C19.6204 7.65986 18.796 7.50165 17.9647 7.50825ZM17.9647 18.7287C16.9728 18.7285 16.0035 18.4328 15.1806 17.8795C14.3576 17.3263 13.7183 16.5404 13.3443 15.6224C12.9702 14.7044 12.8785 13.6958 13.0806 12.7254C13.2828 11.755 13.7698 10.8668 14.4794 10.1742C15.1889 9.48165 16.089 9.01611 17.0645 8.83703C18.0401 8.65795 19.0469 8.77346 19.9564 9.16881C20.866 9.56416 21.637 10.2214 22.1711 11.0567C22.7052 11.8919 22.978 12.8673 22.9549 13.8582C22.9244 15.1634 22.383 16.4047 21.4468 17.3153C20.5107 18.226 19.2545 18.7335 17.9481 18.7287H17.9647Z" fill="white"/>
<path d="M30.8893 7.20903C30.7143 7.19214 30.5526 7.10836 30.4379 6.97518C30.3232 6.84199 30.2645 6.6697 30.2739 6.49425C30.2998 6.32549 30.3854 6.17161 30.5151 6.06044C30.6447 5.94926 30.8099 5.88815 30.9808 5.88815C31.1516 5.88815 31.3169 5.94926 31.4465 6.06044C31.5762 6.17161 31.6618 6.32549 31.6877 6.49425C31.6943 6.59718 31.6775 6.70026 31.6384 6.79573C31.5993 6.8912 31.5391 6.97656 31.4622 7.04538C31.3853 7.1142 31.2938 7.16469 31.1946 7.19304C31.0954 7.22138 30.991 7.22685 30.8893 7.20903Z" fill="white"/>
</svg>
