<svg width="304" height="227" viewBox="0 0 304 227" fill="none" xmlns="http://www.w3.org/2000/svg">
<path d="M129.144 146.644H88.7726L86.3223 118.316H126.694L129.144 146.644Z" fill="#E6E6E6"/>
<path d="M131.235 146.644H90.8641L88.4138 118.316H128.785L131.235 146.644Z" fill="#F0F0F0"/>
<path d="M96.3847 140.564L95.035 124.402H123.264L124.614 140.564H96.3847Z" fill="white"/>
<path d="M138.221 146.644H133.485V199.482H138.221V146.644Z" fill="#E6E6E6"/>
<path d="M139.717 146.644H136.428V199.482H139.717V146.644Z" fill="#F0F0F0"/>
<path d="M93.8676 152.475H139.717V146.644H93.8676V152.475Z" fill="#F0F0F0"/>
<path d="M95.4849 152.481H90.7485V199.488H95.4849V152.481Z" fill="#E6E6E6"/>
<path d="M96.9806 152.481H93.6913V199.488H96.9806V152.481Z" fill="#F0F0F0"/>
<path d="M61.7713 152.481H57.035V199.488H61.7713V152.481Z" fill="#E6E6E6"/>
<path d="M63.2669 152.481H59.9777V199.488H63.2669V152.481Z" fill="#F0F0F0"/>
<path d="M108.247 152.481H103.51V199.488H108.247V152.481Z" fill="#E6E6E6"/>
<path d="M109.736 152.481H106.447V199.488H109.736V152.481Z" fill="#F0F0F0"/>
<path d="M93.8676 146.644H57.035V152.475H93.8676V146.644Z" fill="#E6E6E6"/>
<path d="M276.371 123.579H264.26V199.488H276.371V123.579Z" fill="#E6E6E6"/>
<path d="M273.185 199.488H276.371V193.639H269.847L273.185 199.488Z" fill="#FAFAFA"/>
<path d="M164.706 123.579H152.594V199.488H164.706V123.579Z" fill="#E6E6E6"/>
<path d="M276.371 123.579H161.927V197.91H276.371V123.579Z" fill="#FAFAFA"/>
<path d="M274.206 147.564H164.098V126.571H274.206V147.564ZM164.706 146.955H273.598V127.18H164.706V146.955Z" fill="#E6E6E6"/>
<path d="M254.823 136.763H185.615C182.405 136.763 179.31 134.168 177.103 129.635L176.896 129.203H263.536L263.329 129.635C261.104 134.168 258.064 136.763 254.823 136.763ZM177.893 129.794C179.948 133.833 182.757 136.135 185.615 136.135H254.823C257.693 136.135 260.49 133.833 262.545 129.794H177.893Z" fill="#E6E6E6"/>
<path d="M165.113 199.488H161.927V193.639H168.451L165.113 199.488Z" fill="#FAFAFA"/>
<path d="M274.206 171.22H164.098V150.251H274.206V171.22ZM164.706 170.611H273.598V150.86H164.706V170.611Z" fill="#E6E6E6"/>
<path d="M254.823 160.443H185.615C182.405 160.443 179.31 157.842 177.103 153.315L176.896 152.877H263.536L263.329 153.315C261.104 157.817 258.064 160.443 254.823 160.443ZM177.893 153.486C179.948 157.525 182.757 159.834 185.615 159.834H254.823C257.693 159.834 260.49 157.525 262.545 153.486H177.893Z" fill="#E6E6E6"/>
<path d="M274.206 194.919H164.098V173.925H274.206V194.919ZM164.706 194.309H273.598V174.534H164.706V194.309Z" fill="#E6E6E6"/>
<path d="M254.823 184.117H185.615C182.405 184.117 179.31 181.522 177.103 176.996L176.896 176.557H263.536L263.329 176.996C261.104 181.522 258.064 184.117 254.823 184.117ZM177.893 177.166C179.948 181.205 182.757 183.508 185.615 183.508H254.823C257.693 183.508 260.49 181.205 262.545 177.166H177.893Z" fill="#E6E6E6"/>
<path d="M83.5559 133.619V135.094H82.6196L81.8413 146.644H70.3866L69.6145 135.094H68.6721V133.619H83.5559Z" fill="#E6E6E6"/>
<path d="M79.7863 104.944C78.85 98.0595 69.578 96.0978 57.8132 95.8419C46.6199 95.6043 43.0327 91.6383 43.0327 91.6383C43.0327 91.6383 43.0692 107.703 59.1994 113.527C74.515 119.047 80.7287 111.84 79.7863 104.944Z" fill="#E6E6E6"/>
<path d="M74.0711 120.546C74.2657 117.719 78.777 112.516 89.6298 114.88C97.473 116.592 100.391 112.516 100.391 112.516C100.391 112.516 99.6618 124.018 87.8666 127.472C76.6612 130.756 73.7246 125.529 74.0711 120.546Z" fill="#E6E6E6"/>
<path d="M76.5456 137.957C76.6067 137.958 76.6672 137.945 76.7229 137.92C76.7786 137.894 76.828 137.857 76.8679 137.811C77.6522 136.879 77.0077 134.649 76.12 131.56C74.977 127.6 73.5543 122.666 74.7581 119.09C75.4254 117.201 76.205 115.353 77.0928 113.558C78.7952 109.951 80.2666 106.857 79.0384 103.579C79.0193 103.527 78.99 103.479 78.9523 103.438C78.9146 103.398 78.8692 103.365 78.8187 103.342C78.7682 103.319 78.7137 103.306 78.6583 103.304C78.6029 103.302 78.5476 103.311 78.4958 103.331C78.444 103.351 78.3965 103.381 78.3563 103.419C78.316 103.457 78.2837 103.503 78.2612 103.554C78.2388 103.605 78.2266 103.659 78.2253 103.715C78.2241 103.77 78.2339 103.826 78.2541 103.877C79.3546 106.796 78.0231 109.622 76.3328 113.205C75.4337 115.029 74.642 116.904 73.9616 118.822C72.6788 122.647 74.138 127.722 75.3114 131.792C76.0045 134.229 76.722 136.665 76.2295 137.275C76.1904 137.317 76.1605 137.366 76.1416 137.421C76.1227 137.475 76.1154 137.533 76.1199 137.59C76.1245 137.647 76.1409 137.703 76.1682 137.754C76.1954 137.804 76.2329 137.849 76.2781 137.884C76.3558 137.939 76.4506 137.965 76.5456 137.957Z" fill="#E6E6E6"/>
<path d="M161.976 186.481H75.6397L70.9155 47.3544H157.252L161.976 186.481Z" fill="#407BFF"/>
<path opacity="0.3" d="M166.286 182.162H79.9504L75.2202 43.035H161.556L166.286 182.162Z" fill="white"/>
<path d="M166.286 182.162H79.9504L75.2202 43.035H161.556L166.286 182.162Z" fill="white"/>
<path d="M137.359 100.279C146.603 90.8569 146.21 75.4496 136.481 65.8662C126.752 56.2828 111.371 56.1523 102.126 65.5747C92.8823 74.9972 93.2756 90.4044 103.005 99.9879C112.734 109.571 128.115 109.702 137.359 100.279Z" fill="#407BFF"/>
<path d="M139.79 82.9387C139.914 86.2538 139.192 89.5459 137.692 92.5034C136.073 95.6905 133.6 98.3627 130.55 100.22C127.5 102.077 123.994 103.046 120.425 103.018C116.772 102.999 113.189 102.017 110.034 100.171C106.88 98.3256 104.265 95.6812 102.452 92.5034C100.762 89.5914 99.8183 86.3053 99.7043 82.9387C99.5922 80.3282 100.011 77.7222 100.935 75.2789C101.859 72.8356 103.269 70.6061 105.08 68.7257C106.89 66.8454 109.064 65.3535 111.467 64.3408C113.871 63.3281 116.455 62.8156 119.063 62.8346C124.435 62.8726 129.586 64.9827 133.445 68.7266C137.305 72.4704 139.577 77.5602 139.79 82.9387Z" fill="white"/>
<path opacity="0.6" d="M137.68 92.5034C136.061 95.6905 133.588 98.3627 130.538 100.22C127.488 102.077 123.982 103.046 120.413 103.018C116.76 102.999 113.177 102.017 110.022 100.171C106.868 98.3256 104.253 95.6812 102.44 92.5034C107.582 88.9907 113.667 87.1235 119.89 87.1484C126.213 87.1621 132.396 89.023 137.68 92.5034Z" fill="#407BFF"/>
<path opacity="0.6" d="M125.989 82.4377C129.388 78.973 129.244 73.3076 125.666 69.7837C122.089 66.2598 116.433 66.2118 113.034 69.6765C109.635 73.1413 109.779 78.8067 113.357 82.3306C116.934 85.8545 122.59 85.9024 125.989 82.4377Z" fill="#407BFF"/>
<path d="M148.94 131.78H93.8675L93.4966 120.814H148.569L148.94 131.78Z" fill="#3F69D7"/>
<path d="M149.609 151.378H94.5302L94.1594 140.412H149.238L149.609 151.378Z" fill="#3F69D7"/>
<path d="M128.353 141.923L115.081 143.751C114.954 143.765 114.832 143.806 114.721 143.87C114.611 143.934 114.515 144.02 114.44 144.123C114.365 144.226 114.311 144.344 114.283 144.468C114.256 144.593 114.254 144.722 114.278 144.847L116.023 153.76C116.08 154.022 116.233 154.252 116.451 154.407C116.669 154.561 116.937 154.628 117.203 154.595L130.475 152.767C130.602 152.751 130.723 152.709 130.833 152.644C130.942 152.579 131.037 152.492 131.112 152.389C131.187 152.285 131.239 152.168 131.267 152.043C131.294 151.919 131.296 151.79 131.272 151.664L129.533 142.752C129.476 142.49 129.323 142.26 129.104 142.107C128.886 141.953 128.618 141.888 128.353 141.923ZM124.541 150.952L122.109 151.274L121.872 148.399C121.621 148.29 121.401 148.123 121.228 147.911C121.056 147.699 120.937 147.448 120.881 147.181C120.836 146.973 120.836 146.758 120.879 146.551C120.922 146.343 121.008 146.147 121.132 145.974C121.256 145.802 121.414 145.658 121.597 145.551C121.78 145.444 121.984 145.376 122.194 145.353C122.626 145.297 123.063 145.406 123.419 145.657C123.775 145.909 124.023 146.285 124.116 146.711C124.168 146.969 124.152 147.236 124.069 147.485C123.986 147.734 123.838 147.957 123.641 148.131L124.541 150.952Z" fill="#6FD22A"/>
<path d="M127.04 141.442C126.805 141.472 126.568 141.413 126.375 141.276C126.181 141.14 126.045 140.936 125.994 140.705L125.824 139.833C125.581 138.645 124.916 137.584 123.952 136.849C122.988 136.114 121.791 135.755 120.583 135.837C119.973 135.872 119.378 136.038 118.838 136.323C118.298 136.609 117.826 137.008 117.453 137.493C117.08 137.978 116.816 138.537 116.679 139.134C116.541 139.73 116.533 140.349 116.655 140.948L116.85 141.953C116.873 142.065 116.872 142.18 116.848 142.291C116.823 142.402 116.776 142.507 116.709 142.598C116.642 142.69 116.557 142.767 116.459 142.824C116.36 142.88 116.251 142.916 116.139 142.928C115.903 142.961 115.665 142.903 115.471 142.766C115.276 142.629 115.141 142.424 115.093 142.191L114.929 141.344C114.762 140.553 114.756 139.736 114.912 138.942C115.069 138.149 115.383 137.395 115.838 136.726C116.292 136.057 116.877 135.488 117.556 135.051C118.236 134.615 118.997 134.32 119.793 134.186C121.519 133.896 123.29 134.282 124.739 135.266C126.188 136.249 127.204 137.754 127.575 139.468L127.77 140.467C127.792 140.58 127.791 140.696 127.766 140.808C127.74 140.92 127.692 141.026 127.623 141.118C127.554 141.21 127.466 141.287 127.366 141.342C127.265 141.398 127.154 141.432 127.04 141.442Z" fill="#6FD22A"/>
<path d="M140.519 166.736H104.666L104.428 159.596H140.276L140.519 166.736Z" fill="#407BFF"/>
<path d="M123.222 126.297C123.232 126.557 123.19 126.817 123.098 127.061C123.005 127.304 122.864 127.526 122.684 127.714C122.503 127.901 122.286 128.05 122.046 128.151C121.806 128.252 121.548 128.303 121.288 128.301C120.752 128.297 120.238 128.086 119.852 127.713C119.467 127.34 119.238 126.833 119.215 126.297C119.204 126.036 119.247 125.776 119.339 125.533C119.432 125.289 119.572 125.067 119.753 124.879C119.934 124.692 120.151 124.543 120.391 124.442C120.631 124.341 120.888 124.29 121.149 124.292C121.685 124.295 122.2 124.505 122.586 124.878C122.972 125.251 123.2 125.759 123.222 126.297Z" fill="white"/>
<path d="M114.576 126.297C114.588 126.557 114.546 126.818 114.454 127.062C114.362 127.306 114.221 127.528 114.04 127.716C113.859 127.903 113.642 128.052 113.401 128.153C113.161 128.253 112.903 128.304 112.643 128.301C112.107 128.297 111.594 128.086 111.209 127.713C110.824 127.34 110.597 126.833 110.575 126.297C110.565 126.036 110.607 125.776 110.699 125.533C110.792 125.289 110.933 125.067 111.114 124.879C111.294 124.692 111.511 124.543 111.751 124.442C111.991 124.341 112.249 124.29 112.509 124.292C113.045 124.295 113.559 124.505 113.944 124.878C114.329 125.252 114.556 125.76 114.576 126.297Z" fill="white"/>
<path d="M105.985 126.297C105.996 126.557 105.953 126.817 105.861 127.061C105.768 127.304 105.628 127.526 105.447 127.714C105.266 127.901 105.049 128.05 104.809 128.151C104.569 128.252 104.312 128.303 104.052 128.301C103.516 128.298 103.001 128.088 102.616 127.715C102.231 127.341 102.005 126.833 101.984 126.297C101.974 126.036 102.016 125.776 102.108 125.533C102.201 125.289 102.342 125.067 102.523 124.879C102.703 124.692 102.92 124.543 103.16 124.442C103.4 124.341 103.658 124.29 103.918 124.292C104.454 124.295 104.968 124.505 105.353 124.878C105.738 125.252 105.965 125.76 105.985 126.297Z" fill="white"/>
<path d="M131.837 126.297C131.848 126.557 131.806 126.817 131.713 127.061C131.621 127.304 131.48 127.526 131.299 127.714C131.118 127.901 130.901 128.05 130.661 128.151C130.422 128.252 130.164 128.303 129.904 128.301C129.368 128.298 128.854 128.088 128.468 127.715C128.083 127.341 127.857 126.833 127.837 126.297C127.827 126.037 127.871 125.778 127.965 125.536C128.058 125.294 128.2 125.073 128.382 124.887C128.563 124.702 128.78 124.555 129.02 124.456C129.259 124.356 129.517 124.307 129.776 124.311C130.308 124.315 130.818 124.523 131.201 124.892C131.585 125.262 131.812 125.764 131.837 126.297Z" fill="white"/>
<path d="M140.452 126.297C140.464 126.557 140.422 126.818 140.33 127.062C140.238 127.306 140.097 127.528 139.916 127.716C139.735 127.903 139.518 128.052 139.278 128.153C139.038 128.253 138.779 128.304 138.519 128.301C137.984 128.297 137.47 128.086 137.085 127.713C136.701 127.34 136.474 126.833 136.452 126.297C136.441 126.036 136.483 125.776 136.576 125.533C136.668 125.289 136.809 125.067 136.99 124.879C137.171 124.692 137.388 124.543 137.628 124.442C137.867 124.341 138.125 124.29 138.385 124.292C138.921 124.295 139.435 124.505 139.821 124.878C140.206 125.252 140.432 125.76 140.452 126.297Z" fill="white"/>
<path d="M213.017 72.6978C213.826 74.0015 214.501 75.2443 215.194 76.5419C215.887 77.8395 216.513 79.1433 217.127 80.4774C218.38 83.179 219.417 85.976 220.228 88.842C220.338 89.2014 220.417 89.5852 220.508 89.9568L220.642 90.5234L220.708 90.8037L220.788 91.2667C220.925 92.317 220.861 93.3839 220.599 94.4102C220.179 96.0037 219.541 97.5312 218.702 98.9489C217.202 101.525 215.388 103.905 213.303 106.034L210.743 104.097C212.028 101.73 213.171 99.289 214.166 96.7862C214.61 95.6834 214.922 94.5322 215.097 93.3563C215.153 92.9972 215.136 92.6305 215.048 92.278L214.805 91.5347C214.708 91.2301 214.616 90.9255 214.501 90.6148C213.576 88.1015 212.506 85.6443 211.297 83.2555C210.081 80.8186 208.773 78.3817 207.466 76.0545L213.017 72.6978Z" fill="#FF8B7B"/>
<path d="M211.394 103.25L208.597 104.73L211.807 108.495C211.807 108.495 213.814 107.137 213.905 105.065L211.394 103.25Z" fill="#FF8B7B"/>
<path d="M204.846 107.051L208.281 109.787L211.807 108.495L208.597 104.73L204.846 107.051Z" fill="#FF8B7B"/>
<path d="M193.099 52.7642C193.032 53.1054 192.795 53.343 192.576 53.3003C192.357 53.2577 192.23 52.9409 192.297 52.6058C192.363 52.2707 192.601 51.9966 192.826 52.0697C193.051 52.1428 193.166 52.423 193.099 52.7642Z" fill="#263238"/>
<path d="M192.826 53.3491C192.213 54.3033 191.473 55.1684 190.625 55.92C190.825 56.1279 191.068 56.2901 191.336 56.3952C191.605 56.5004 191.893 56.5461 192.181 56.5292L192.826 53.3491Z" fill="#FF5652"/>
<path d="M191.731 65.3019V61.3054L197.009 61.9146C197.009 61.9146 196.924 65.3506 193.969 66.3619L191.731 65.3019Z" fill="#FF8B7B"/>
<path d="M193.251 58.4299L196.966 59.5021L197.033 61.9451L191.755 61.3054L193.251 58.4299Z" fill="#FF8B7B"/>
<path opacity="0.2" d="M196.966 59.5021L193.251 58.4299L192.528 59.8189C192.567 60.9134 192.908 61.9755 193.514 62.8875C194.119 63.7994 194.965 64.5254 195.957 64.9851C196.595 64.0918 196.968 63.0358 197.033 61.939L196.966 59.5021Z" fill="black"/>
<path d="M194.716 51.1376C194.755 51.1366 194.793 51.1245 194.826 51.1028C194.858 51.0811 194.884 51.0507 194.9 51.015C194.916 50.9793 194.921 50.9399 194.916 50.9012C194.91 50.8625 194.894 50.8262 194.868 50.7964C194.655 50.5548 194.387 50.3679 194.086 50.2513C193.786 50.1347 193.462 50.0918 193.142 50.1263C193.089 50.1353 193.043 50.1646 193.012 50.208C192.981 50.2514 192.969 50.3053 192.978 50.3578C192.987 50.4107 193.016 50.458 193.059 50.4898C193.102 50.5216 193.156 50.5355 193.209 50.5284C193.462 50.5034 193.718 50.5396 193.955 50.634C194.192 50.7283 194.403 50.878 194.571 51.0706C194.589 51.0909 194.612 51.1074 194.637 51.1189C194.662 51.1304 194.689 51.1368 194.716 51.1376Z" fill="#263238"/>
<path d="M202.487 58.9295C201.879 62.0669 201.502 66.4107 203.703 68.5003C203.703 68.5003 202.852 71.6804 197.015 71.6804C190.625 71.6804 193.944 68.8902 193.944 68.8902C196.601 68.0616 196.577 65.0338 195.969 62.597L202.487 58.9295Z" fill="#FF8B7B"/>
<path d="M204.888 70.596C205.46 69.7918 205.436 67.2392 204.828 66.7884C203.849 66.0634 199.647 65.8928 193.999 67.1965C194.607 69.67 193.3 70.9615 193.3 70.9615L204.888 70.596Z" fill="#407BFF"/>
<path d="M223.894 215.23C223.721 215.291 223.537 215.317 223.353 215.307C223.17 215.296 222.99 215.25 222.824 215.169C222.762 215.111 222.719 215.034 222.701 214.95C222.684 214.866 222.693 214.779 222.727 214.7C222.746 214.634 222.78 214.573 222.825 214.522C222.87 214.47 222.926 214.429 222.988 214.401C223.566 214.121 224.892 214.663 224.952 214.688C224.97 214.695 224.986 214.708 224.997 214.724C225.008 214.74 225.013 214.76 225.013 214.779C225.013 214.799 225.008 214.818 224.998 214.835C224.989 214.852 224.975 214.866 224.958 214.877C224.616 215.028 224.259 215.146 223.894 215.23ZM223.195 214.542C223.155 214.551 223.116 214.565 223.08 214.584C223.042 214.598 223.008 214.621 222.98 214.65C222.953 214.68 222.933 214.716 222.922 214.755C222.867 214.938 222.922 214.998 222.958 215.017C223.189 215.212 224.04 215.017 224.642 214.791C224.184 214.601 223.69 214.516 223.195 214.542Z" fill="#407BFF"/>
<path d="M224.934 214.883H224.885C224.399 214.743 223.365 214.005 223.353 213.524C223.353 213.448 223.379 213.373 223.426 213.313C223.474 213.254 223.54 213.212 223.615 213.195C223.687 213.168 223.764 213.157 223.841 213.164C223.917 213.17 223.992 213.193 224.059 213.232C224.63 213.524 224.995 214.706 225.007 214.761C225.016 214.776 225.02 214.792 225.02 214.81C225.02 214.827 225.016 214.844 225.007 214.858C224.998 214.868 224.986 214.875 224.973 214.879C224.961 214.884 224.947 214.885 224.934 214.883ZM223.718 213.366H223.669C223.548 213.408 223.548 213.469 223.548 213.5C223.548 213.786 224.241 214.365 224.764 214.596C224.636 214.255 224.356 213.579 223.986 213.378C223.903 213.34 223.81 213.336 223.724 213.366H223.718Z" fill="#407BFF"/>
<path d="M192.315 215.949C191.768 215.949 191.239 215.87 191.062 215.626C191.016 215.561 190.992 215.483 190.992 215.404C190.992 215.324 191.016 215.246 191.062 215.181C191.097 215.122 191.144 215.07 191.199 215.029C191.254 214.988 191.318 214.959 191.385 214.944C192.096 214.749 193.592 215.602 193.652 215.638C193.671 215.647 193.686 215.662 193.695 215.681C193.704 215.7 193.706 215.721 193.701 215.742C193.699 215.763 193.69 215.782 193.676 215.797C193.661 215.813 193.643 215.823 193.622 215.827C193.191 215.906 192.753 215.947 192.315 215.949ZM191.64 215.114C191.576 215.104 191.51 215.104 191.445 215.114C191.404 215.123 191.365 215.14 191.331 215.164C191.296 215.188 191.267 215.219 191.245 215.254C191.172 215.382 191.202 215.443 191.245 215.48C191.445 215.76 192.522 215.766 193.318 215.65C192.798 215.366 192.228 215.184 191.64 215.114Z" fill="#407BFF"/>
<path d="M193.616 215.827H193.573C193.057 215.595 192.035 214.669 192.114 214.182C192.114 214.066 192.212 213.926 192.491 213.902C192.591 213.89 192.692 213.899 192.789 213.929C192.885 213.958 192.974 214.007 193.051 214.072C193.44 214.539 193.674 215.117 193.719 215.723C193.719 215.741 193.715 215.758 193.708 215.774C193.701 215.789 193.69 215.803 193.677 215.815C193.658 215.824 193.637 215.829 193.616 215.827ZM192.57 214.091H192.509C192.327 214.091 192.315 214.176 192.315 214.2C192.266 214.493 192.959 215.224 193.488 215.541C193.442 215.052 193.244 214.59 192.923 214.219C192.823 214.133 192.695 214.088 192.564 214.091H192.57Z" fill="#407BFF"/>
<path d="M198.31 215.723H194.036L193.61 205.799H197.884L198.31 215.723Z" fill="#FF8B7B"/>
<path d="M229.701 213.743L225.524 214.651L221.323 205.403L225.506 204.502L229.701 213.743Z" fill="#FF8B7B"/>
<path d="M225.117 214.231L229.816 213.213C229.898 213.196 229.984 213.207 230.059 213.245C230.134 213.282 230.194 213.344 230.23 213.421L231.859 216.966C231.903 217.052 231.925 217.147 231.925 217.243C231.924 217.339 231.901 217.434 231.858 217.52C231.814 217.605 231.75 217.679 231.672 217.736C231.594 217.792 231.504 217.829 231.409 217.843C229.768 218.166 228.947 218.246 226.886 218.69C225.615 218.971 222.745 219.671 220.988 220.049C219.231 220.427 218.629 218.739 219.316 218.428C222.387 217.021 223.663 215.784 224.496 214.633C224.647 214.427 224.868 214.284 225.117 214.231Z" fill="#263238"/>
<path d="M194.066 215.23H198.735C198.82 215.23 198.902 215.26 198.968 215.313C199.035 215.366 199.081 215.44 199.1 215.522L199.945 219.33C199.97 219.422 199.973 219.519 199.954 219.612C199.935 219.705 199.894 219.793 199.835 219.867C199.775 219.942 199.7 220.002 199.613 220.042C199.527 220.082 199.432 220.101 199.337 220.098C197.653 220.067 195.221 219.97 193.105 219.97C190.625 219.97 188.491 220.104 185.584 220.104C183.827 220.104 183.341 218.325 184.077 218.16C187.421 217.429 190.157 217.35 193.045 215.565C193.348 215.361 193.701 215.246 194.066 215.23Z" fill="#263238"/>
<path d="M211.351 69.4811C215.358 70.401 218.647 80.6541 218.647 80.6541L210.64 86.7889C208.562 84.5623 207.095 81.8335 206.384 78.8691C204.967 73.4958 207.253 68.5307 211.351 69.4811Z" fill="#407BFF"/>
<path opacity="0.4" d="M211.351 69.4811C215.358 70.401 218.647 80.6541 218.647 80.6541L210.64 86.7889C208.562 84.5623 207.095 81.8335 206.384 78.8691C204.967 73.4958 207.253 68.5307 211.351 69.4811Z" fill="black"/>
<path d="M190.272 81.7081C189.275 82.7864 188.278 83.7489 187.232 84.7542C186.715 85.2415 186.192 85.7289 185.657 86.198L184.849 86.9108L184.648 87.0874L184.301 87.3677C183.945 87.6532 183.55 87.887 183.128 88.0622C182.659 88.2618 182.154 88.3654 181.644 88.3668C181.209 88.3687 180.776 88.2923 180.368 88.1414C179.914 87.9684 179.501 87.7052 179.152 87.3677C178.706 86.9315 178.38 86.3883 178.203 85.7898C178.111 85.4948 178.052 85.1903 178.027 84.8821C177.995 84.5213 177.995 84.1584 178.027 83.7977C178.057 83.5053 178.094 83.2494 178.142 83.0118C178.309 82.1811 178.545 81.3659 178.848 80.5749C179.121 79.823 179.436 79.0868 179.79 78.3696C180.179 77.5959 180.55 77.0293 180.921 76.3835C182.427 73.9108 184.146 71.5748 186.059 69.4019C187.951 67.2419 190.037 65.2598 192.291 63.4803L194.528 65.7893C192.959 67.8971 191.415 70.1573 189.986 72.381C188.564 74.592 187.265 76.88 186.095 79.2346C185.834 79.8073 185.487 80.4531 185.323 80.9161C185.105 81.4539 184.917 82.003 184.757 82.561C184.604 83.0634 184.488 83.5766 184.411 84.0962C184.407 84.1774 184.407 84.2587 184.411 84.3399C184.411 84.3886 184.411 84.413 184.411 84.2851C184.401 84.1483 184.374 84.0133 184.332 83.883C184.2 83.4511 183.959 83.0607 183.633 82.7498C183.342 82.4821 183.001 82.2751 182.629 82.1406C182.303 82.0167 181.957 81.9527 181.608 81.9518C181.272 81.9477 180.939 82.0119 180.629 82.1406C180.524 82.1836 180.422 82.2345 180.325 82.2929L180.556 82.0797L181.292 81.4095L182.745 80.0449C183.706 79.1372 184.672 78.1685 185.584 77.2669L190.272 81.7081Z" fill="#FF8B7B"/>
<path opacity="0.2" d="M207.916 77.011C210.093 79.1676 210.804 83.1032 210.956 86.5148L210.604 86.7889C208.525 84.5623 207.059 81.8335 206.348 78.8691C206.268 78.5523 206.196 78.2599 206.141 77.9127L207.916 77.011Z" fill="black"/>
<path d="M186.022 73.7456C185.147 78.3756 184.599 87.8855 187.135 106.71H210.032C210.19 103.195 207.983 86.0274 211.37 69.4506C208.839 68.9638 206.28 68.6402 203.709 68.482C200.469 68.2958 197.221 68.2958 193.981 68.482C192.911 68.5795 191.853 68.7379 190.941 68.9023C189.728 69.1155 188.608 69.6928 187.73 70.5576C186.852 71.4225 186.256 72.5342 186.022 73.7456Z" fill="#407BFF"/>
<path d="M186.022 73.7456C185.147 78.3756 184.599 87.8855 187.135 106.71H210.032C210.19 103.195 207.983 86.0274 211.37 69.4506C208.839 68.9638 206.28 68.6402 203.709 68.482C200.469 68.2958 197.221 68.2958 193.981 68.482C192.911 68.5795 191.853 68.7379 190.941 68.9023C189.728 69.1155 188.608 69.6928 187.73 70.5576C186.852 71.4225 186.256 72.5342 186.022 73.7456Z" fill="#2B6CBB"/>
<path opacity="0.2" d="M189.524 80.6115L185.39 79.6185C185.262 82.1284 185.25 85.2354 185.432 89.0796C187.335 86.9108 189.767 83.5235 189.524 80.6115Z" fill="black"/>
<path opacity="0.2" d="M193.61 205.805L193.829 210.917H198.109L197.89 205.805H193.61Z" fill="black"/>
<path opacity="0.2" d="M225.506 204.502L221.323 205.409L223.487 210.173L227.67 209.266L225.506 204.502Z" fill="black"/>
<path d="M204.517 54.3482C203.423 58.4543 202.985 60.9155 200.456 62.6213C196.656 65.2166 191.914 62.2436 191.792 57.906C191.658 53.9887 193.476 47.927 197.872 47.0985C198.838 46.9168 199.834 46.9846 200.767 47.2955C201.699 47.6064 202.538 48.1501 203.203 48.8754C203.867 49.6008 204.337 50.4838 204.567 51.4412C204.797 52.3987 204.78 53.3991 204.517 54.3482Z" fill="#FF8B7B"/>
<path d="M194.923 54.5005C194.716 53.9522 193.774 49.7059 194.662 48.6033C195.549 47.5006 205.673 48.2987 207.168 49.773C209.655 52.2098 207.928 54.403 205.211 57.2237C203.168 59.3437 203.089 61.7319 202.055 62.0974C200.231 62.7066 197.446 62.134 196.887 60.2027C196.328 58.2715 194.923 54.5005 194.923 54.5005Z" fill="#263238"/>
<path d="M205.94 44.9419C202.365 43.4188 195.659 45.1064 192.035 44.2291C191.989 45.5792 192.432 46.9004 193.283 47.9486C194.133 48.9968 195.334 49.7011 196.662 49.9314C199.668 50.5054 202.722 50.7889 205.782 50.7782C209.758 50.5954 208.98 46.2395 205.94 44.9419Z" fill="#263238"/>
<path d="M206.5 49.9009C207.805 50.0297 209.121 49.7779 210.287 49.1759C210.956 50.7964 207.278 51.2412 206.5 49.9009Z" fill="#263238"/>
<path d="M196.869 54.6711C196.787 55.7276 196.359 56.7275 195.653 57.5161C194.716 58.5457 193.744 57.8999 193.58 56.651C193.434 55.5179 193.738 53.6049 194.881 53.0566C196.024 52.5083 196.948 53.3978 196.869 54.6711Z" fill="#FF8B7B"/>
<path d="M195.252 106.729C195.252 106.729 200.116 139.474 202.772 151.744C205.685 165.177 221.335 209.619 221.335 209.619L228.989 207.956C228.989 207.956 218.045 171.732 215.613 152.95C213.729 138.524 210.026 106.716 210.026 106.716L195.252 106.729Z" fill="#407BFF"/>
<path d="M219.499 207.066C219.468 207.066 220.927 209.844 220.927 209.844L229.537 207.974L228.813 205.379L219.499 207.066Z" fill="#263238"/>
<path opacity="0.3" d="M198.322 118.395C203.934 119.498 203.338 140.467 202.663 151.256C201.046 143.629 198.675 128.959 197.057 118.547C197.449 118.354 197.895 118.3 198.322 118.395Z" fill="black"/>
<path d="M187.135 106.729C187.135 106.729 186.527 138.767 187.013 151.811C187.5 165.402 192.236 209.905 192.236 209.905H199.483C199.483 209.905 199.745 166.194 200.091 152.846C200.444 138.298 202.195 106.704 202.195 106.704L187.135 106.729Z" fill="#407BFF"/>
<path d="M190.844 207.042C190.807 207.042 191.251 210.052 191.251 210.052H200.061L200.304 207.365L190.844 207.042Z" fill="#263238"/>
<path d="M194.984 75.1712C197.033 80.709 184.988 87.2337 184.988 87.2337L179.772 80.5323C179.772 80.5323 183.28 73.575 187.536 70.4437C192.795 66.5812 193.421 70.9554 194.984 75.1712Z" fill="#407BFF"/>
<path opacity="0.4" d="M194.984 75.1712C197.033 80.709 184.988 87.2337 184.988 87.2337L179.772 80.5323C179.772 80.5323 183.28 73.575 187.536 70.4437C192.795 66.5812 193.421 70.9554 194.984 75.1712Z" fill="black"/>
<path d="M196.291 37.0239C208.409 37.0239 218.234 30.7506 218.234 23.012C218.234 15.2734 208.409 9 196.291 9C184.172 9 174.348 15.2734 174.348 23.012C174.348 30.7506 184.172 37.0239 196.291 37.0239Z" fill="#6FD22A"/>
<path d="M188.375 30.0667C186.929 30.062 185.532 29.547 184.427 28.6122C183.323 27.6775 182.583 26.3826 182.337 24.9554C182.095 23.4093 182.443 21.8287 183.312 20.5282C184.181 19.2277 185.506 18.3026 187.025 17.9372C188.271 17.6495 189.576 17.7604 190.756 18.2543C191.936 18.7482 192.932 19.6004 193.604 20.6908L207.691 17.7788C208.232 17.66 208.798 17.7502 209.276 18.0314C209.754 18.3126 210.109 18.7641 210.269 19.2957C210.343 19.5752 210.359 19.8669 210.316 20.1528C210.273 20.4387 210.173 20.713 210.021 20.9587C209.869 21.2045 209.669 21.4166 209.432 21.5821C209.196 21.7477 208.928 21.8631 208.645 21.9215L208.281 21.9946C208.226 22.0043 208.175 22.0264 208.131 22.0592C208.087 22.0919 208.051 22.1344 208.025 22.1834C208.003 22.2332 207.991 22.2872 207.991 22.3418C207.991 22.3965 208.003 22.4505 208.025 22.5002L208.275 23.146C208.358 23.3553 208.366 23.5873 208.297 23.8019C208.229 24.0165 208.087 24.2004 207.898 24.3218C207.748 24.4143 207.622 24.5398 207.528 24.6886C207.434 24.8375 207.376 25.0058 207.357 25.1808C207.339 25.3816 207.258 25.5716 207.126 25.7237C206.994 25.8758 206.817 25.9821 206.621 26.0276L206.335 26.0885C206.137 26.1252 205.932 26.0977 205.751 26.0101C205.569 25.9225 205.421 25.7792 205.326 25.6011C205.2 25.3886 205.01 25.2209 204.784 25.1213C204.559 25.0217 204.307 24.9952 204.066 25.0455C203.824 25.0958 203.604 25.2204 203.437 25.4019C203.269 25.5834 203.162 25.8128 203.131 26.058C203.114 26.2576 203.034 26.4466 202.903 26.5977C202.772 26.7488 202.596 26.8543 202.401 26.8988L202.116 26.9597C201.918 26.9954 201.713 26.9675 201.532 26.88C201.351 26.7924 201.202 26.6498 201.106 26.4723C201.015 26.3212 200.892 26.1917 200.747 26.0929C200.601 25.994 200.435 25.9281 200.261 25.8996C200.027 25.8714 199.812 25.7587 199.655 25.5826C199.498 25.4065 199.411 25.1791 199.41 24.9432V24.2487C199.407 24.1943 199.393 24.1412 199.368 24.0928C199.344 24.0445 199.309 24.0021 199.266 23.9685C199.223 23.935 199.174 23.9111 199.121 23.8984C199.068 23.8858 199.013 23.8847 198.96 23.8953L194.467 24.8213C194.284 26.0686 193.721 27.229 192.856 28.1447C191.992 29.0603 190.866 29.6868 189.633 29.9387C189.219 30.0236 188.797 30.0665 188.375 30.0667ZM187.159 18.4916C185.78 18.8143 184.574 19.6487 183.784 20.8265C182.995 22.0044 182.68 23.4384 182.903 24.8396C183.142 26.1432 183.839 27.3181 184.867 28.1516C185.896 28.9852 187.188 29.4223 188.51 29.3841C189.833 29.3458 191.098 28.8346 192.076 27.943C193.055 27.0513 193.683 25.8381 193.847 24.5228V24.3035L198.802 23.2983C198.944 23.2638 199.092 23.2615 199.235 23.2915C199.378 23.3215 199.513 23.3831 199.63 23.4718C199.746 23.5605 199.841 23.674 199.908 23.8042C199.976 23.9343 200.013 24.0778 200.018 24.2243V24.9188C200.019 25.0015 200.049 25.0812 200.102 25.1444C200.155 25.2077 200.229 25.2506 200.31 25.2661C200.576 25.3042 200.829 25.4025 201.051 25.5534C201.274 25.7044 201.459 25.904 201.593 26.1372C201.625 26.203 201.677 26.2571 201.741 26.292C201.805 26.3269 201.879 26.341 201.951 26.3322L202.231 26.2713C202.302 26.253 202.365 26.2123 202.411 26.1552C202.457 26.0982 202.483 26.0278 202.486 25.9545C202.525 25.5752 202.682 25.218 202.937 24.9344C203.191 24.6509 203.529 24.4557 203.901 24.377C204.273 24.2983 204.661 24.3403 205.007 24.4968C205.354 24.6534 205.643 24.9163 205.83 25.2478C205.862 25.313 205.912 25.3669 205.976 25.4018C206.039 25.4368 206.111 25.4511 206.183 25.4427L206.475 25.3818C206.545 25.3624 206.606 25.3213 206.651 25.2643C206.696 25.2073 206.722 25.1375 206.724 25.065C206.754 24.7975 206.845 24.5405 206.989 24.3135C207.134 24.0865 207.328 23.8955 207.557 23.7552C207.624 23.7068 207.673 23.6373 207.696 23.5579C207.719 23.4784 207.715 23.3935 207.685 23.3166L207.436 22.6708C207.384 22.5377 207.362 22.3949 207.371 22.2524C207.381 22.1099 207.421 21.9711 207.489 21.8458C207.557 21.7205 207.652 21.6116 207.767 21.5268C207.882 21.442 208.013 21.3834 208.153 21.3549L208.524 21.2757C208.725 21.2328 208.915 21.1498 209.083 21.0316C209.251 20.9135 209.393 20.7626 209.501 20.588C209.61 20.4134 209.682 20.2186 209.714 20.0154C209.745 19.8122 209.735 19.6048 209.685 19.4054C209.566 19.022 209.307 18.6978 208.96 18.4978C208.613 18.2978 208.203 18.2368 207.813 18.3271L193.33 21.3427L193.221 21.1538C192.639 20.1159 191.735 19.2959 190.647 18.8178C189.559 18.3398 188.345 18.2295 187.189 18.5038L187.159 18.4916ZM188.375 27.8004C187.619 27.8088 186.878 27.5972 186.241 27.1912C185.487 26.6952 184.928 25.9526 184.659 25.0899C184.391 24.2272 184.429 23.2979 184.767 22.4603C185.106 21.6227 185.724 20.9288 186.516 20.4968C187.309 20.0648 188.226 19.9214 189.112 20.0912C189.998 20.261 190.797 20.7333 191.374 21.4278C191.951 22.1222 192.27 22.9958 192.277 23.8994C192.283 24.8031 191.976 25.681 191.409 26.3835C190.842 27.086 190.049 27.5695 189.165 27.7517C188.906 27.7986 188.644 27.819 188.381 27.8126L188.375 27.8004ZM188.375 20.6056C188.148 20.6068 187.922 20.6293 187.7 20.6726C187.276 20.763 186.875 20.9361 186.518 21.182C186.161 21.428 185.856 21.7419 185.62 22.1059C185.385 22.47 185.223 22.877 185.144 23.3037C185.065 23.7304 185.071 24.1685 185.161 24.5929C185.252 25.0173 185.424 25.4197 185.67 25.7773C185.915 26.1348 186.229 26.4403 186.592 26.6765C186.955 26.9127 187.361 27.0749 187.787 27.1538C188.213 27.2327 188.65 27.2268 189.074 27.1363C189.71 27.0037 190.292 26.6854 190.748 26.2216C191.203 25.7578 191.512 25.1692 191.634 24.53C191.756 23.8908 191.687 23.2297 191.435 22.63C191.183 22.0302 190.759 21.5187 190.217 21.1599C189.679 20.8012 189.045 20.6124 188.399 20.6177L188.375 20.6056Z" fill="white"/>
<path opacity="0.6" d="M178.434 45.2423C182.416 45.2423 185.645 43.1802 185.645 40.6366C185.645 38.0929 182.416 36.0309 178.434 36.0309C174.451 36.0309 171.223 38.0929 171.223 40.6366C171.223 43.1802 174.451 45.2423 178.434 45.2423Z" fill="#6FD22A"/>
<path opacity="0.3" d="M166.961 47.1247C168.596 47.1247 169.922 46.2792 169.922 45.2362C169.922 44.1931 168.596 43.3476 166.961 43.3476C165.326 43.3476 164 44.1931 164 45.2362C164 46.2792 165.326 47.1247 166.961 47.1247Z" fill="#6FD22A"/>
</svg>
