<svg width="120" height="121" viewBox="0 0 120 121" fill="none" xmlns="http://www.w3.org/2000/svg">
<g clip-path="url(#clip0_66_1307)">
<path d="M44.4689 1.36024L33.0046 0.90683L42.3194 8.66525C42.9176 9.17693 43.6789 9.4581 44.4661 9.4581C45.2533 9.4581 46.0147 9.17693 46.6129 8.66525L55.9276 0.90683L44.4689 1.36024Z" fill="#4779C4"/>
<path d="M68.9201 0H20.0121C16.7814 0 14.1624 2.61896 14.1624 5.8496V115.15C14.1624 118.381 16.7814 121 20.0121 121H68.9201C72.1508 121 74.7698 118.381 74.7698 115.15V5.8496C74.7698 2.61896 72.1508 0 68.9201 0Z" fill="url(#paint0_linear_66_1307)"/>
<path d="M68.9257 2.30626H20.0121C18.0583 2.30626 16.4743 3.89016 16.4743 5.844V115.15C16.4743 117.104 18.0583 118.688 20.0121 118.688H68.9257C70.8796 118.688 72.4635 117.104 72.4635 115.15V5.844C72.4635 3.89016 70.8796 2.30626 68.9257 2.30626Z" fill="#FAFFF5"/>
<path d="M44.4689 6.88518C45.3593 6.88518 46.0811 6.1634 46.0811 5.27304C46.0811 4.38268 45.3593 3.6609 44.4689 3.6609C43.5785 3.6609 42.8568 4.38268 42.8568 5.27304C42.8568 6.1634 43.5785 6.88518 44.4689 6.88518Z" fill="#FCFCFC"/>
<path d="M67.6662 21.7023H22.9006C21.5589 21.7023 20.4712 22.79 20.4712 24.1317V52.305C20.4712 53.6467 21.5589 54.7344 22.9006 54.7344H67.6662C69.0079 54.7344 70.0956 53.6467 70.0956 52.305V24.1317C70.0956 22.79 69.0079 21.7023 67.6662 21.7023Z" fill="#B5E0EA"/>
<path d="M67.2688 20.1853H21.7755C20.6347 20.1853 19.7099 21.1101 19.7099 22.2509V51.1518C19.7099 52.2926 20.6347 53.2174 21.7755 53.2174H67.2688C68.4096 53.2174 69.3344 52.2926 69.3344 51.1518V22.2509C69.3344 21.1101 68.4096 20.1853 67.2688 20.1853Z" fill="white"/>
<path d="M55.435 33.9277H46.764C46.5785 33.9277 46.4282 34.0781 46.4282 34.2636V38.6969C46.4282 38.8824 46.5785 39.0328 46.764 39.0328H55.435C55.6205 39.0328 55.7709 38.8824 55.7709 38.6969V34.2636C55.7709 34.0781 55.6205 33.9277 55.435 33.9277Z" fill="#6FD22A"/>
<path d="M28.2073 19.995H27.9386V53.2846H28.2073V19.995Z" fill="#6C8AF4"/>
<path d="M37.4605 19.995H37.1918V53.2846H37.4605V19.995Z" fill="#6C8AF4"/>
<path d="M46.7136 19.995H46.4449V53.2846H46.7136V19.995Z" fill="#6C8AF4"/>
<path d="M55.9668 19.995H55.6981V53.2846H55.9668V19.995Z" fill="#6C8AF4"/>
<path d="M64.8001 19.995H64.5314V53.2846H64.8001V19.995Z" fill="#6C8AF4"/>
<path d="M69.3567 22.5588H19.5755V22.8274H69.3567V22.5588Z" fill="#6C8AF4"/>
<path d="M69.3567 28.2068H19.5755V28.4755H69.3567V28.2068Z" fill="#6C8AF4"/>
<path d="M69.3567 33.7038H19.5755V33.9725H69.3567V33.7038Z" fill="#6C8AF4"/>
<path d="M69.3567 39.0552H19.5755V39.3239H69.3567V39.0552Z" fill="#6C8AF4"/>
<path d="M69.3567 44.4066H19.5755V44.6753H69.3567V44.4066Z" fill="#6C8AF4"/>
<path d="M69.3567 49.758H19.5755V50.0267H69.3567V49.758Z" fill="#6C8AF4"/>
<path d="M32.0418 24.8594L31.8459 24.9658V24.8482L32.0922 24.7139H32.2265V25.8334H32.0754L32.0418 24.8594Z" fill="#6C8AF4"/>
<path d="M41.155 25.8502V25.7494L41.2782 25.6319C41.5693 25.3576 41.698 25.2121 41.698 25.0385C41.7016 25.0083 41.6983 24.9776 41.6883 24.9488C41.6783 24.92 41.662 24.8938 41.6404 24.8722C41.6188 24.8507 41.5927 24.8343 41.5639 24.8243C41.5351 24.8143 41.5044 24.811 41.4741 24.8146C41.3845 24.8188 41.2993 24.8545 41.2334 24.9154L41.183 24.8034C41.2743 24.7284 41.3895 24.6886 41.5077 24.6915C41.5528 24.6875 41.5983 24.6931 41.6411 24.7081C41.6839 24.723 41.723 24.7469 41.7559 24.7782C41.7887 24.8094 41.8145 24.8473 41.8316 24.8893C41.8486 24.9313 41.8565 24.9765 41.8548 25.0217C41.8548 25.2289 41.7036 25.3968 41.4629 25.6319L41.3733 25.7494H41.8827V25.8782L41.155 25.8502Z" fill="#6C8AF4"/>
<path d="M51.2031 25.6767C51.2797 25.7208 51.3666 25.7439 51.455 25.7438C51.6509 25.7438 51.7125 25.6207 51.7125 25.5255C51.7125 25.4304 51.5669 25.296 51.4158 25.296H51.3318V25.1897H51.4158C51.5277 25.1897 51.6677 25.1281 51.6677 24.9938C51.6677 24.8594 51.6117 24.8258 51.4718 24.8258C51.3899 24.8278 51.3103 24.853 51.2423 24.8986L51.2031 24.7866C51.2912 24.7293 51.3947 24.7001 51.4998 24.7027C51.7237 24.7027 51.8244 24.8314 51.8244 24.9714C51.8241 25.0326 51.8036 25.0921 51.7662 25.1407C51.7288 25.1892 51.6765 25.2241 51.6173 25.2401C51.688 25.2508 51.7524 25.2868 51.7987 25.3413C51.845 25.3958 51.87 25.4652 51.8692 25.5367C51.8692 25.7159 51.7293 25.8782 51.455 25.8782C51.3507 25.8802 51.248 25.8531 51.1583 25.7998L51.2031 25.6767Z" fill="#6C8AF4"/>
<path d="M60.126 25.8502V25.5423H59.5998V25.4416L60.1036 24.7139H60.2715V25.4192H60.4338V25.5423H60.2715V25.8502H60.126ZM60.126 25.4192V25.0385C60.126 24.9826 60.126 24.921 60.126 24.8594C60.0924 24.9266 60.0644 24.977 60.0308 25.0329L59.7565 25.4192H60.126Z" fill="#6C8AF4"/>
<path d="M67.0392 24.8426H66.6026L66.5578 25.1337H66.653C66.7391 25.1315 66.8243 25.1528 66.8993 25.1953C66.9501 25.2246 66.9921 25.2671 67.0207 25.3184C67.0492 25.3697 67.0634 25.4277 67.0616 25.4864C67.061 25.5405 67.0493 25.594 67.0273 25.6435C67.0052 25.6929 66.9733 25.7374 66.9335 25.7741C66.8936 25.8108 66.8467 25.8389 66.7956 25.8568C66.7445 25.8747 66.6902 25.882 66.6362 25.8782C66.5362 25.8799 66.4377 25.8547 66.3507 25.8054L66.3899 25.6879C66.4657 25.7282 66.5503 25.7493 66.6362 25.7494C66.6704 25.7526 66.7048 25.7485 66.7373 25.7375C66.7699 25.7266 66.7997 25.7089 66.825 25.6857C66.8503 25.6625 66.8705 25.6343 66.8842 25.6029C66.898 25.5714 66.905 25.5375 66.9049 25.5032C66.9049 25.3576 66.8041 25.2513 66.5746 25.2513H66.4179L66.4907 24.6915H67.0504L67.0392 24.8426Z" fill="#6C8AF4"/>
<path d="M51.2534 31.5767C51.2943 31.5819 51.3357 31.5819 51.3766 31.5767C51.466 31.5672 51.5501 31.53 51.6173 31.4703C51.6976 31.3875 51.7504 31.2819 51.7684 31.168C51.7347 31.2057 51.6933 31.2358 51.6469 31.2561C51.6005 31.2763 51.5503 31.2864 51.4997 31.2856C51.4542 31.2873 51.4089 31.2793 51.3666 31.2623C51.3243 31.2453 51.2861 31.2196 51.2544 31.1869C51.2228 31.1542 51.1983 31.1151 51.1827 31.0724C51.1671 31.0296 51.1607 30.984 51.1639 30.9385C51.1624 30.8866 51.1712 30.8349 51.1899 30.7864C51.2086 30.7379 51.2367 30.6937 51.2727 30.6562C51.3086 30.6187 51.3516 30.5887 51.3993 30.568C51.4469 30.5472 51.4982 30.5362 51.5501 30.5355C51.7852 30.5355 51.9252 30.7258 51.9252 31.0169C51.9304 31.1142 51.9157 31.2115 51.882 31.303C51.8483 31.3944 51.7964 31.478 51.7293 31.5487C51.639 31.6344 51.5228 31.6875 51.399 31.6998C51.3525 31.7045 51.3056 31.7045 51.259 31.6998L51.2534 31.5767ZM51.3094 30.9217C51.3053 30.9524 51.308 30.9836 51.3172 31.0131C51.3264 31.0427 51.3419 31.0698 51.3627 31.0927C51.3835 31.1157 51.409 31.1338 51.4375 31.1458C51.466 31.1578 51.4968 31.1635 51.5277 31.1624C51.572 31.1637 51.6159 31.1536 51.6551 31.133C51.6943 31.1124 51.7276 31.0821 51.7516 31.0449C51.7553 31.036 51.7572 31.0265 51.7572 31.0169C51.7572 31.0073 51.7553 30.9978 51.7516 30.9889C51.7516 30.7986 51.6789 30.6474 51.5165 30.6474C51.4531 30.6571 51.3959 30.6912 51.3572 30.7425C51.3185 30.7937 51.3014 30.858 51.3094 30.9217Z" fill="#6C8AF4"/>
<path d="M59.4262 30.6922L59.2303 30.7986V30.681L59.4766 30.5467H59.6054V31.6662H59.4598L59.4262 30.6922Z" fill="#6C8AF4"/>
<path d="M60.7473 31.1064C60.7473 31.4927 60.6018 31.7054 60.3499 31.7054C60.098 31.7054 59.9804 31.4983 59.9748 31.1456C59.9692 30.793 60.1372 30.5523 60.3723 30.5523C60.6074 30.5523 60.7473 30.7426 60.7473 31.1064ZM60.1316 31.1064C60.1316 31.4031 60.2211 31.5711 60.3611 31.5711C60.501 31.5711 60.5906 31.3863 60.5906 31.0953C60.5906 30.8042 60.5234 30.6306 60.3611 30.6306C60.1987 30.6306 60.1316 30.8154 60.1316 31.1232V31.1064Z" fill="#6C8AF4"/>
<path d="M66.6922 30.6922L66.4963 30.7986L66.4683 30.681L66.7146 30.5467H66.8489V31.6662H66.6978L66.6922 30.6922Z" fill="#6C8AF4"/>
<path d="M67.5934 30.6922L67.3975 30.7986L67.3639 30.681L67.6158 30.5467H67.7446V31.6662H67.599L67.5934 30.6922Z" fill="#6C8AF4"/>
<path d="M29.2429 34.7674L29.047 34.8737V34.7562L29.2933 34.6218H29.4276V35.7414H29.2765L29.2429 34.7674Z" fill="#6C8AF4"/>
<path d="M29.8419 35.5846C29.9178 35.6309 30.0048 35.6561 30.0938 35.6574C30.1257 35.6613 30.1581 35.6585 30.1889 35.6491C30.2197 35.6397 30.2481 35.6239 30.2724 35.6028C30.2967 35.5817 30.3162 35.5557 30.3298 35.5265C30.3434 35.4973 30.3507 35.4656 30.3513 35.4335C30.3513 35.2767 30.2057 35.2096 30.0546 35.2096H29.9706V35.092H30.0546C30.1665 35.092 30.3065 35.036 30.3065 34.9017C30.3065 34.7673 30.2505 34.7282 30.1106 34.7282C30.0287 34.7301 29.9491 34.7554 29.8811 34.8009L29.8419 34.7058C29.931 34.6506 30.0337 34.6215 30.1386 34.6218C30.3625 34.6218 30.4632 34.7562 30.4632 34.8905C30.4629 34.9518 30.4424 35.0113 30.405 35.0598C30.3676 35.1083 30.3153 35.1433 30.2561 35.1592C30.3258 35.1698 30.3895 35.205 30.4357 35.2583C30.4818 35.3117 30.5075 35.3797 30.508 35.4503C30.508 35.635 30.3681 35.7917 30.0938 35.7917C29.9895 35.7938 29.8868 35.7666 29.7971 35.7134L29.8419 35.5846Z" fill="#6C8AF4"/>
<path d="M21.1093 34.7674L20.8854 34.8737V34.7562L21.1373 34.6218H21.2661V35.7414H21.1093V34.7674Z" fill="#6C8AF4"/>
<path d="M21.6747 35.7637V35.6686L21.7978 35.551C22.0889 35.2711 22.2177 35.1256 22.2233 34.9521C22.2261 34.9217 22.2221 34.8911 22.2114 34.8625C22.2007 34.834 22.1836 34.8082 22.1615 34.7872C22.1394 34.7662 22.1128 34.7504 22.0838 34.7412C22.0547 34.7319 22.0239 34.7294 21.9938 34.7338C21.9051 34.7373 21.8202 34.7709 21.7531 34.8289L21.7083 34.717C21.7992 34.6452 21.9115 34.6058 22.0273 34.605C22.0725 34.601 22.118 34.6067 22.1608 34.6216C22.2036 34.6365 22.2427 34.6604 22.2755 34.6917C22.3084 34.7229 22.3342 34.7608 22.3512 34.8028C22.3683 34.8448 22.3762 34.89 22.3744 34.9353C22.3744 35.1424 22.2233 35.3159 21.9826 35.5454L21.893 35.6294H22.4024V35.7581L21.6747 35.7637Z" fill="#6C8AF4"/>
<path d="M38.692 34.7674L38.4961 34.8737L38.4625 34.7562L38.7144 34.6218H38.8431V35.7414H38.6976L38.692 34.7674Z" fill="#6C8AF4"/>
<path d="M39.7332 35.7637V35.4503H39.1734V35.3495L39.6828 34.6218H39.8507V35.3327H40.0075V35.4503H39.8507V35.7637H39.7332ZM39.7332 35.3327V34.9521C39.7332 34.8905 39.7332 34.8289 39.7332 34.773C39.7051 34.8309 39.6733 34.887 39.638 34.9409L39.3581 35.3271H39.7332V35.3327Z" fill="#6C8AF4"/>
<path d="M48.1411 34.7674L47.9451 34.8737L47.9116 34.7562L48.1635 34.6218H48.3146V35.7414H48.1691L48.1411 34.7674Z" fill="#6C8AF4"/>
<path d="M49.3838 34.7506H48.9528L48.908 35.0472H48.9975C49.0836 35.0464 49.1684 35.0676 49.2439 35.1088C49.2951 35.139 49.3373 35.1826 49.3659 35.2348C49.3945 35.287 49.4084 35.346 49.4062 35.4055C49.4056 35.4594 49.3939 35.5127 49.3718 35.5619C49.3497 35.6111 49.3177 35.6552 49.2778 35.6914C49.2378 35.7277 49.1908 35.7553 49.1397 35.7726C49.0886 35.7898 49.0345 35.7964 48.9808 35.7917C48.8824 35.795 48.7852 35.7697 48.7009 35.719L48.7401 35.607C48.8138 35.6475 48.8966 35.6687 48.9808 35.6686C49.0148 35.6709 49.0489 35.6662 49.081 35.6549C49.1132 35.6436 49.1427 35.626 49.1678 35.6029C49.1929 35.5799 49.2131 35.552 49.2272 35.521C49.2412 35.4899 49.2488 35.4563 49.2494 35.4223C49.2494 35.2711 49.1543 35.1704 48.9248 35.1704H48.768L48.8408 34.6106H49.4006L49.3838 34.7506Z" fill="#6C8AF4"/>
<path d="M59.4262 35.8869L59.2303 35.9932V35.8757L59.4766 35.7413H59.6054V36.8609H59.4598L59.4262 35.8869Z" fill="#6C8AF4"/>
<path d="M60.6298 35.8533C60.5908 35.8479 60.5512 35.8479 60.5122 35.8533C60.4111 35.8666 60.3174 35.9136 60.2463 35.9868C60.1752 36.0599 60.1308 36.1549 60.1204 36.2563C60.1522 36.2142 60.1938 36.1804 60.2416 36.158C60.2894 36.1356 60.3419 36.1251 60.3947 36.1276C60.4417 36.1266 60.4884 36.1356 60.5318 36.1538C60.5751 36.1721 60.6142 36.1992 60.6463 36.2335C60.6785 36.2678 60.7032 36.3085 60.7186 36.353C60.7341 36.3974 60.7401 36.4446 60.7361 36.4914C60.7392 36.5433 60.7316 36.5952 60.7138 36.644C60.6961 36.6928 60.6685 36.7374 60.6329 36.7752C60.5972 36.8129 60.5542 36.843 60.5065 36.8635C60.4588 36.884 60.4074 36.8946 60.3555 36.8945C60.1148 36.8945 59.9524 36.7042 59.9524 36.4075C59.9499 36.3138 59.9659 36.2206 59.9996 36.1332C60.0332 36.0458 60.0838 35.9659 60.1484 35.8981C60.2468 35.802 60.3752 35.7427 60.5122 35.7302C60.5494 35.7254 60.587 35.7254 60.6242 35.7302L60.6298 35.8533ZM60.585 36.5082C60.589 36.4751 60.5858 36.4415 60.5758 36.4096C60.5658 36.3778 60.5491 36.3485 60.5269 36.3236C60.5046 36.2987 60.4773 36.2788 60.4468 36.2653C60.4163 36.2518 60.3833 36.2449 60.3499 36.2451C60.3044 36.2471 60.2602 36.261 60.2218 36.2856C60.1835 36.3102 60.1523 36.3445 60.1316 36.3851C60.1251 36.4089 60.1251 36.434 60.1316 36.4578C60.1316 36.6426 60.2211 36.7825 60.3779 36.7825C60.5346 36.7825 60.5962 36.6706 60.5962 36.5082H60.585Z" fill="#6C8AF4"/>
<path d="M66.6922 35.8869L66.4963 35.9932L66.4683 35.8757L66.7146 35.7413H66.8489V36.8609H66.6978L66.6922 35.8869Z" fill="#6C8AF4"/>
<path d="M67.9965 35.7413V35.8253L67.5039 36.8665H67.3471L67.8397 35.8589H67.28V35.7302L67.9965 35.7413Z" fill="#6C8AF4"/>
<path d="M29.2429 39.7437L29.047 39.8501V39.7325L29.2933 39.6038H29.4276V40.7233H29.2765L29.2429 39.7437Z" fill="#6C8AF4"/>
<path d="M29.8979 40.6505H30.021C30.1101 40.6365 30.1936 40.5977 30.2617 40.5386C30.3447 40.4577 30.3979 40.3512 30.4129 40.2363C30.3802 40.2756 30.339 40.3071 30.2925 40.3285C30.246 40.3498 30.1953 40.3604 30.1442 40.3594C30.0984 40.3603 30.0529 40.3517 30.0106 40.334C29.9684 40.3164 29.9302 40.2902 29.8986 40.257C29.8671 40.2239 29.8427 40.1845 29.8272 40.1414C29.8116 40.0983 29.8052 40.0525 29.8083 40.0068C29.8068 39.9549 29.8157 39.9032 29.8343 39.8547C29.853 39.8062 29.8811 39.7619 29.9171 39.7244C29.953 39.6869 29.996 39.657 30.0437 39.6362C30.0913 39.6155 30.1426 39.6045 30.1945 39.6038C30.4296 39.6038 30.5696 39.7941 30.5696 40.0852C30.5795 40.1871 30.5672 40.29 30.5333 40.3866C30.4995 40.4833 30.445 40.5714 30.3737 40.6449C30.2842 40.7327 30.1679 40.7879 30.0434 40.8017H29.8979V40.6505ZM29.9538 39.9956C29.9507 40.0261 29.954 40.0569 29.9636 40.086C29.9731 40.1152 29.9887 40.142 30.0093 40.1647C30.0299 40.1874 30.055 40.2055 30.0831 40.2178C30.1111 40.2302 30.1415 40.2365 30.1721 40.2363C30.2172 40.2382 30.2618 40.2278 30.3013 40.206C30.3408 40.1843 30.3736 40.1522 30.3961 40.1132C30.3998 40.1043 30.4017 40.0948 30.4017 40.0852C30.4017 40.0756 30.3998 40.066 30.3961 40.0572C30.3961 39.8669 30.3233 39.7157 30.161 39.7157C29.9986 39.7157 29.9538 39.8333 29.9538 39.9956Z" fill="#6C8AF4"/>
<path d="M21.1093 39.7437L20.9078 39.8501L20.8854 39.7437L21.1373 39.615H21.2661V40.7345H21.1093V39.7437Z" fill="#6C8AF4"/>
<path d="M21.6635 40.4658C21.6648 40.3984 21.6871 40.3331 21.7272 40.2789C21.7673 40.2248 21.8233 40.1844 21.8874 40.1635C21.8357 40.1428 21.7911 40.1074 21.7593 40.0616C21.7275 40.0158 21.7097 39.9618 21.7083 39.906C21.7103 39.8626 21.7212 39.82 21.7403 39.7809C21.7594 39.7418 21.7863 39.7071 21.8193 39.6788C21.8524 39.6505 21.8908 39.6292 21.9324 39.6163C21.9739 39.6034 22.0177 39.5991 22.0609 39.6038C22.1352 39.5852 22.2137 39.5969 22.2793 39.6363C22.3449 39.6756 22.3922 39.7395 22.4108 39.8137C22.4293 39.8879 22.4177 39.9665 22.3783 40.0321C22.3389 40.0977 22.2751 40.145 22.2009 40.1635C22.2651 40.1814 22.322 40.2192 22.3633 40.2715C22.4045 40.3239 22.428 40.388 22.4304 40.4546C22.4284 40.5023 22.4166 40.549 22.3957 40.5919C22.3749 40.6347 22.3454 40.6729 22.3092 40.7039C22.2729 40.7348 22.2307 40.758 22.1851 40.772C22.1395 40.7859 22.0915 40.7903 22.0441 40.7849C21.809 40.7737 21.6635 40.6337 21.6635 40.4658ZM22.2736 40.4658C22.2736 40.3259 22.1785 40.2587 22.0273 40.2195C21.9709 40.2286 21.9194 40.257 21.8816 40.2999C21.8438 40.3428 21.8221 40.3975 21.8202 40.4546C21.8201 40.484 21.8261 40.5131 21.8379 40.5401C21.8496 40.5671 21.8668 40.5913 21.8883 40.6113C21.9099 40.6313 21.9354 40.6466 21.9632 40.6562C21.9909 40.6659 22.0204 40.6697 22.0497 40.6673C22.0785 40.6706 22.1076 40.6676 22.1351 40.6585C22.1626 40.6495 22.1878 40.6347 22.2091 40.615C22.2303 40.5954 22.2471 40.5714 22.2582 40.5446C22.2694 40.5179 22.2746 40.4891 22.2736 40.4602V40.4658ZM21.8538 39.906C21.8538 40.0236 21.9378 40.0852 22.0721 40.1188C22.1192 40.107 22.1614 40.0807 22.1926 40.0434C22.2238 40.0062 22.2424 39.9601 22.2457 39.9116C22.2457 39.8597 22.225 39.8098 22.1883 39.7731C22.1515 39.7364 22.1017 39.7157 22.0497 39.7157C21.9978 39.7157 21.9479 39.7364 21.9112 39.7731C21.8744 39.8098 21.8538 39.8597 21.8538 39.9116V39.906Z" fill="#6C8AF4"/>
<path d="M38.3561 40.7569V40.6617L38.4793 40.5442C38.7704 40.2699 38.8991 40.1188 38.8991 39.9508C38.9027 39.9206 38.8994 39.8899 38.8894 39.8611C38.8795 39.8323 38.8631 39.8061 38.8415 39.7845C38.82 39.763 38.7938 39.7466 38.765 39.7366C38.7362 39.7266 38.7055 39.7233 38.6752 39.7269C38.5863 39.7295 38.5012 39.7632 38.4345 39.8221L38.3841 39.7437C38.4749 39.6671 38.59 39.6254 38.7088 39.6262C38.754 39.6221 38.7994 39.6278 38.8422 39.6428C38.885 39.6577 38.9242 39.6816 38.957 39.7128C38.9898 39.7441 39.0156 39.782 39.0327 39.824C39.0497 39.866 39.0576 39.9111 39.0559 39.9564C39.0559 40.1691 38.9047 40.3371 38.664 40.5666L38.5745 40.6561H39.0839V40.7849L38.3561 40.7569Z" fill="#6C8AF4"/>
<path d="M40.0131 40.1747C40.0131 40.561 39.8675 40.7737 39.6156 40.7737C39.3637 40.7737 39.2462 40.5666 39.2406 40.2139C39.235 39.8613 39.4029 39.6206 39.638 39.6206C39.8731 39.6206 40.0131 39.8109 40.0131 40.1747ZM39.3973 40.1747C39.3973 40.4714 39.4869 40.6393 39.6268 40.6393C39.7668 40.6393 39.8563 40.4546 39.8563 40.1635C39.8563 39.8725 39.7892 39.6989 39.6268 39.6989C39.4645 39.6989 39.3973 39.8837 39.3973 40.1915V40.1747Z" fill="#6C8AF4"/>
<path d="M50.0443 42.4362V42.341L50.1675 42.2235C50.453 41.9492 50.5873 41.7981 50.5873 41.6301C50.5909 41.5999 50.5876 41.5692 50.5776 41.5404C50.5677 41.5116 50.5513 41.4854 50.5297 41.4638C50.5082 41.4423 50.482 41.4259 50.4532 41.4159C50.4244 41.4059 50.3937 41.4026 50.3634 41.4062C50.2743 41.4079 50.1889 41.4417 50.1227 41.5014L50.0723 41.395C50.1631 41.3184 50.2782 41.2767 50.397 41.2775C50.4422 41.2735 50.4876 41.2791 50.5304 41.2941C50.5732 41.309 50.6124 41.3329 50.6452 41.3642C50.678 41.3954 50.7038 41.4333 50.7209 41.4753C50.7379 41.5173 50.7458 41.5625 50.7441 41.6077C50.7441 41.8205 50.5929 41.9884 50.3522 42.2179L50.2571 42.3075H50.7721V42.4362H50.0443Z" fill="#6C8AF4"/>
<path d="M51.2758 41.423L51.0799 41.5294L51.0463 41.4118L51.2982 41.2831H51.427V42.4026H51.2758V41.423Z" fill="#6C8AF4"/>
<path d="M59.0904 42.4362V42.341L59.2135 42.2235C59.5046 41.9492 59.6333 41.7981 59.6333 41.6301C59.637 41.5999 59.6336 41.5692 59.6237 41.5404C59.6137 41.5116 59.5973 41.4854 59.5757 41.4638C59.5542 41.4423 59.528 41.4259 59.4992 41.4159C59.4704 41.4059 59.4397 41.4026 59.4094 41.4062C59.3205 41.4089 59.2354 41.4425 59.1687 41.5014L59.1184 41.423C59.2091 41.3464 59.3242 41.3047 59.443 41.3055C59.4882 41.3015 59.5337 41.3071 59.5765 41.3221C59.6193 41.337 59.6584 41.3609 59.6912 41.3921C59.7241 41.4234 59.7499 41.4613 59.7669 41.5033C59.784 41.5453 59.7919 41.5904 59.7901 41.6357C59.7901 41.8484 59.6389 42.0164 59.3982 42.2459L59.3087 42.3354H59.8181V42.4642L59.0904 42.4362Z" fill="#6C8AF4"/>
<path d="M59.9916 42.4362V42.341L60.1092 42.2235C60.4002 41.9492 60.5346 41.7981 60.5346 41.6301C60.5382 41.5999 60.5349 41.5692 60.5249 41.5404C60.5149 41.5116 60.4985 41.4854 60.477 41.4638C60.4554 41.4423 60.4293 41.4259 60.4005 41.4159C60.3716 41.4059 60.341 41.4026 60.3107 41.4062C60.2216 41.4079 60.1361 41.4417 60.07 41.5014L60.0196 41.395C60.1086 41.3192 60.2217 41.2775 60.3387 41.2775C60.3841 41.2735 60.4298 41.2792 60.4729 41.2941C60.5159 41.309 60.5554 41.3328 60.5887 41.364C60.6219 41.3951 60.6483 41.4329 60.666 41.4749C60.6836 41.5169 60.6923 41.5622 60.6913 41.6077C60.6913 41.8205 60.5346 41.9884 60.2995 42.2179L60.2043 42.3075H60.7193V42.4362H59.9916Z" fill="#6C8AF4"/>
<path d="M66.3563 42.4362V42.341L66.4795 42.2235C66.7706 41.9492 66.8993 41.7981 66.9049 41.6301C66.9076 41.5996 66.9034 41.5688 66.8928 41.54C66.8821 41.5113 66.8652 41.4852 66.8432 41.4638C66.8213 41.4424 66.7948 41.4261 66.7658 41.4161C66.7368 41.4062 66.7059 41.4028 66.6754 41.4062C66.5865 41.4089 66.5013 41.4425 66.4347 41.5014L66.3843 41.395C66.4751 41.3184 66.5902 41.2767 66.709 41.2775C66.7541 41.2735 66.7996 41.2791 66.8424 41.2941C66.8852 41.309 66.9243 41.3329 66.9572 41.3642C66.99 41.3954 67.0158 41.4333 67.0329 41.4753C67.0499 41.5173 67.0578 41.5625 67.056 41.6077C67.056 41.8205 66.9049 41.9884 66.6642 42.2179L66.5746 42.3075H67.084V42.4362H66.3563Z" fill="#6C8AF4"/>
<path d="M67.2967 42.2571C67.3727 42.3034 67.4597 42.3285 67.5486 42.3299C67.7446 42.3299 67.8061 42.2067 67.8061 42.1115C67.8061 42.0164 67.6606 41.882 67.5094 41.882H67.4255V41.7645H67.5094C67.6214 41.7645 67.7614 41.7085 67.7614 41.5742C67.7616 41.5494 67.7565 41.5248 67.7464 41.5021C67.7363 41.4795 67.7215 41.4593 67.7029 41.4428C67.6843 41.4264 67.6624 41.4141 67.6387 41.4068C67.615 41.3995 67.59 41.3974 67.5654 41.4006C67.4832 41.4051 67.4038 41.4323 67.3359 41.479L67.2967 41.367C67.3852 41.3099 67.4881 41.2788 67.5934 41.2775C67.8173 41.2775 67.9181 41.4118 67.9181 41.5518C67.9175 41.6123 67.8968 41.671 67.8593 41.7186C67.8219 41.7662 67.7697 41.8 67.711 41.8149C67.7807 41.8255 67.8444 41.8607 67.8905 41.914C67.9367 41.9674 67.9624 42.0354 67.9629 42.1059C67.9629 42.2907 67.8229 42.4474 67.5486 42.4474C67.4452 42.4485 67.3432 42.4234 67.252 42.3746L67.2967 42.2571Z" fill="#6C8AF4"/>
<path d="M31.7059 47.5805V47.4685L31.8291 47.351C32.1202 47.0711 32.2489 46.9256 32.2545 46.752C32.2574 46.7217 32.2533 46.6911 32.2426 46.6625C32.2319 46.6339 32.2149 46.6082 32.1928 46.5871C32.1707 46.5661 32.1441 46.5504 32.115 46.5411C32.086 46.5319 32.0552 46.5294 32.025 46.5337C31.9361 46.5364 31.851 46.57 31.7843 46.6289L31.7339 46.5169C31.8252 46.4419 31.9404 46.4021 32.0586 46.405C32.1037 46.401 32.1492 46.4066 32.192 46.4216C32.2348 46.4365 32.2739 46.4604 32.3068 46.4917C32.3396 46.5229 32.3654 46.5608 32.3825 46.6028C32.3995 46.6448 32.4074 46.6899 32.4057 46.7352C32.4057 46.9424 32.2545 47.1159 32.0138 47.3454L31.9242 47.4294H32.4336V47.5805H31.7059Z" fill="#6C8AF4"/>
<path d="M33.2845 46.5505H32.8535L32.8087 46.8472H32.9039C32.988 46.8471 33.0708 46.8682 33.1446 46.9088C33.1954 46.9381 33.2374 46.9806 33.2659 47.0319C33.2945 47.0831 33.3087 47.1412 33.3069 47.1999C33.3071 47.2537 33.2961 47.3071 33.2747 47.3566C33.2532 47.406 33.2218 47.4505 33.1824 47.4873C33.143 47.5241 33.0965 47.5523 33.0456 47.5703C32.9948 47.5883 32.9408 47.5955 32.8871 47.5917C32.7871 47.5934 32.6886 47.5682 32.6016 47.5189L32.6408 47.4014C32.7139 47.4441 32.7968 47.4672 32.8815 47.4685C32.9158 47.4708 32.9501 47.4662 32.9826 47.455C33.0151 47.4438 33.045 47.4261 33.0705 47.4032C33.0961 47.3802 33.1168 47.3524 33.1314 47.3213C33.1461 47.2903 33.1544 47.2566 33.1558 47.2222C33.1558 47.0711 33.055 46.9703 32.8255 46.9703H32.6688L32.7415 46.4106H33.3013L33.2845 46.5505Z" fill="#6C8AF4"/>
<path d="M22.4584 47.5805V47.4685L22.5759 47.351C22.867 47.0711 23.0014 46.9256 23.0014 46.752C23.0041 46.7222 23.0001 46.6921 22.9897 46.664C22.9793 46.636 22.9628 46.6105 22.9413 46.5896C22.9199 46.5687 22.8941 46.5528 22.8657 46.5432C22.8374 46.5335 22.8072 46.5303 22.7774 46.5337C22.6869 46.5364 22.6 46.57 22.5311 46.6289L22.4864 46.5169C22.5759 46.4427 22.6891 46.403 22.8054 46.405C22.8508 46.401 22.8966 46.4067 22.9396 46.4216C22.9827 46.4365 23.0222 46.4603 23.0554 46.4915C23.0887 46.5226 23.115 46.5604 23.1327 46.6024C23.1504 46.6444 23.1591 46.6897 23.1581 46.7352C23.1581 46.9424 23.0014 47.1159 22.7607 47.3454L22.6711 47.4294H23.1861V47.5805H22.4584Z" fill="#6C8AF4"/>
<path d="M23.8354 47.5805V47.2726H23.2757V47.1719L23.7851 46.4442H23.953V47.1327H24.1097V47.2502H23.953V47.5805H23.8354ZM23.8354 47.1551V46.7744C23.8354 46.7128 23.8354 46.6513 23.8354 46.5953C23.7963 46.6625 23.7683 46.7073 23.7403 46.7632L23.4604 47.1495H23.8354V47.1551Z" fill="#6C8AF4"/>
<path d="M41.155 47.5805V47.4685L41.2782 47.351C41.5693 47.0711 41.698 46.9256 41.698 46.752C41.7007 46.7222 41.6967 46.6921 41.6863 46.664C41.676 46.6359 41.6594 46.6105 41.638 46.5896C41.6165 46.5687 41.5907 46.5528 41.5624 46.5432C41.534 46.5335 41.5039 46.5303 41.4741 46.5337C41.3852 46.5364 41.3001 46.57 41.2334 46.6289L41.183 46.5169C41.2743 46.4419 41.3895 46.4021 41.5077 46.405C41.5528 46.401 41.5983 46.4066 41.6411 46.4216C41.6839 46.4365 41.723 46.4604 41.7559 46.4917C41.7887 46.5229 41.8145 46.5608 41.8316 46.6028C41.8486 46.6448 41.8565 46.6899 41.8548 46.7352C41.8548 46.9424 41.7036 47.1159 41.4629 47.3454L41.3733 47.4294H41.8827V47.5805H41.155Z" fill="#6C8AF4"/>
<path d="M42.7168 46.5337C42.6778 46.5283 42.6383 46.5283 42.5993 46.5337C42.4981 46.547 42.4044 46.5941 42.3333 46.6672C42.2622 46.7403 42.2179 46.8353 42.2074 46.9368C42.2392 46.8946 42.2808 46.8609 42.3286 46.8384C42.3764 46.816 42.429 46.8055 42.4817 46.808C42.5287 46.8071 42.5754 46.816 42.6188 46.8343C42.6621 46.8525 42.7012 46.8797 42.7334 46.914C42.7656 46.9483 42.7902 46.9889 42.8057 47.0334C42.8211 47.0778 42.8271 47.125 42.8232 47.1719C42.8262 47.2237 42.8186 47.2756 42.8009 47.3244C42.7831 47.3732 42.7556 47.4179 42.7199 47.4556C42.6843 47.4934 42.6412 47.5234 42.5935 47.5439C42.5458 47.5644 42.4944 47.575 42.4425 47.5749C42.2018 47.5749 42.0395 47.3846 42.0395 47.0879C42.037 46.9943 42.053 46.9011 42.0866 46.8136C42.1202 46.7262 42.1708 46.6463 42.2354 46.5785C42.3338 46.4824 42.4623 46.4231 42.5993 46.4106C42.6364 46.4058 42.674 46.4058 42.7112 46.4106L42.7168 46.5337ZM42.6608 47.1887C42.6648 47.1555 42.6617 47.1219 42.6516 47.0901C42.6416 47.0582 42.6249 47.0289 42.6027 47.004C42.5805 46.9791 42.5532 46.9592 42.5227 46.9457C42.4921 46.9322 42.4591 46.9253 42.4257 46.9256C42.3802 46.9275 42.336 46.9415 42.2977 46.966C42.2593 46.9906 42.2282 47.0249 42.2074 47.0655C42.2009 47.0874 42.2009 47.1108 42.2074 47.1327C42.2074 47.323 42.297 47.4629 42.4537 47.4629C42.6104 47.4629 42.6608 47.351 42.6608 47.1887Z" fill="#6C8AF4"/>
<path d="M50.0443 47.5805V47.4685L50.1675 47.351C50.453 47.0711 50.5873 46.9256 50.5873 46.752C50.59 46.7222 50.586 46.6921 50.5757 46.664C50.5653 46.6359 50.5488 46.6105 50.5273 46.5896C50.5059 46.5687 50.48 46.5528 50.4517 46.5432C50.4233 46.5335 50.3932 46.5303 50.3634 46.5337C50.2743 46.5354 50.1889 46.5692 50.1227 46.6289L50.0723 46.5169C50.1636 46.4419 50.2789 46.4021 50.397 46.405C50.4422 46.401 50.4876 46.4066 50.5304 46.4216C50.5732 46.4365 50.6124 46.4604 50.6452 46.4917C50.678 46.5229 50.7038 46.5608 50.7209 46.6028C50.7379 46.6448 50.7458 46.6899 50.7441 46.7352C50.7441 46.9424 50.5929 47.1159 50.3522 47.3454L50.2571 47.4294H50.7721V47.5805H50.0443Z" fill="#6C8AF4"/>
<path d="M51.6733 46.4218V46.5225L51.1863 47.5805H51.0295L51.5222 46.5785H50.9624V46.4498L51.6733 46.4218Z" fill="#6C8AF4"/>
<path d="M57.7357 46.1531C57.7371 46.0842 57.76 46.0176 57.8011 45.9624C57.8423 45.9072 57.8997 45.8662 57.9652 45.8452C57.9139 45.8239 57.8698 45.7883 57.838 45.7426C57.8063 45.697 57.7883 45.6433 57.7861 45.5877C57.7881 45.5443 57.799 45.5017 57.8181 45.4626C57.8372 45.4235 57.8641 45.3887 57.8972 45.3604C57.9302 45.3321 57.9687 45.3109 58.0102 45.298C58.0518 45.2851 58.0955 45.2808 58.1388 45.2854C58.1792 45.2799 58.2204 45.283 58.2596 45.2944C58.2988 45.3058 58.3351 45.3254 58.3663 45.3518C58.3974 45.3782 58.4227 45.4108 58.4404 45.4476C58.4581 45.4844 58.4678 45.5245 58.469 45.5653C58.4682 45.6227 58.4502 45.6784 58.4172 45.7253C58.3843 45.7723 58.338 45.8082 58.2843 45.8284C58.349 45.8473 58.406 45.8862 58.4473 45.9395C58.4885 45.9928 58.5118 46.0577 58.5138 46.1251C58.511 46.1725 58.4987 46.2188 58.4776 46.2613C58.4565 46.3038 58.427 46.3416 58.3909 46.3724C58.3549 46.4032 58.313 46.4265 58.2677 46.4407C58.2225 46.455 58.1748 46.46 58.1276 46.4554C57.8813 46.461 57.7357 46.321 57.7357 46.1531ZM58.3515 46.1531C58.3515 46.0131 58.2563 45.946 58.0996 45.9012C58.0442 45.9114 57.9939 45.9403 57.9572 45.9831C57.9206 46.0259 57.8997 46.08 57.8981 46.1363C57.9066 46.1903 57.9341 46.2395 57.9756 46.275C58.0172 46.3105 58.0701 46.3301 58.1248 46.3301C58.1794 46.3301 58.2323 46.3105 58.2739 46.275C58.3154 46.2395 58.343 46.1903 58.3515 46.1363V46.1531ZM57.926 45.5933C57.926 45.7053 58.01 45.7668 58.1444 45.8004C58.1914 45.7906 58.234 45.7656 58.2653 45.7291C58.2967 45.6927 58.3152 45.6469 58.3179 45.5989C58.3196 45.573 58.3157 45.547 58.3064 45.5227C58.2971 45.4985 58.2826 45.4765 58.264 45.4584C58.2453 45.4403 58.223 45.4265 58.1985 45.4179C58.1739 45.4093 58.1478 45.4061 58.122 45.4086C58.0738 45.4055 58.0264 45.4213 57.9898 45.4527C57.9532 45.484 57.9303 45.5285 57.926 45.5765V45.5933Z" fill="#6C8AF4"/>
<path d="M65.7965 46.461V46.349L65.9197 46.2314C66.2108 45.9516 66.3395 45.806 66.3451 45.6325C66.348 45.6021 66.3439 45.5715 66.3332 45.543C66.3225 45.5144 66.3055 45.4886 66.2834 45.4676C66.2613 45.4466 66.2347 45.4309 66.2056 45.4216C66.1766 45.4124 66.1458 45.4098 66.1156 45.4142C66.0267 45.4168 65.9416 45.4505 65.8749 45.5093L65.8245 45.3974C65.9158 45.3223 66.0311 45.2826 66.1492 45.2854C66.1944 45.2814 66.2398 45.2871 66.2826 45.302C66.3254 45.317 66.3646 45.3409 66.3974 45.3721C66.4302 45.4034 66.456 45.4413 66.4731 45.4833C66.4901 45.5253 66.498 45.5704 66.4963 45.6157C66.4963 45.8228 66.3451 45.9963 66.1044 46.2259L66.0149 46.3098H66.5243V46.461H65.7965Z" fill="#6C8AF4"/>
<path d="M66.7873 46.3322C66.8282 46.3375 66.8696 46.3375 66.9105 46.3322C67.0004 46.3208 67.0845 46.2816 67.1512 46.2202C67.2341 46.1394 67.2874 46.0329 67.3023 45.918C67.2696 45.9573 67.2285 45.9888 67.182 46.0101C67.1355 46.0314 67.0848 46.042 67.0337 46.0411C66.9881 46.0428 66.9428 46.0349 66.9005 46.0179C66.8582 46.0009 66.82 45.9752 66.7884 45.9425C66.7567 45.9097 66.7322 45.8707 66.7166 45.8279C66.701 45.7851 66.6946 45.7395 66.6978 45.6941C66.6963 45.6421 66.7051 45.5904 66.7238 45.542C66.7425 45.4935 66.7706 45.4492 66.8066 45.4117C66.8425 45.3742 66.8855 45.3442 66.9332 45.3235C66.9808 45.3028 67.0321 45.2918 67.084 45.291C67.3191 45.291 67.4591 45.4814 67.4591 45.7668C67.4672 45.8686 67.454 45.971 67.4202 46.0674C67.3865 46.1638 67.333 46.2521 67.2632 46.3266C67.1729 46.4123 67.0567 46.4655 66.9329 46.4777C66.8864 46.4827 66.8395 46.4827 66.7929 46.4777L66.7873 46.3322ZM66.8433 45.6773C66.8402 45.7078 66.8435 45.7386 66.853 45.7677C66.8626 45.7968 66.8782 45.8236 66.8988 45.8463C66.9194 45.869 66.9445 45.8871 66.9726 45.8995C67.0006 45.9118 67.031 45.9181 67.0616 45.918C67.106 45.9199 67.1501 45.91 67.1894 45.8893C67.2287 45.8687 67.2619 45.838 67.2855 45.8004C67.2912 45.7822 67.2912 45.7627 67.2855 45.7444C67.2855 45.5485 67.2128 45.403 67.0504 45.403C66.8881 45.403 66.8433 45.5149 66.8433 45.6773Z" fill="#6C8AF4"/>
<path d="M37.2478 13.1322H37.6228V15.0634C37.6228 15.8359 37.2422 16.071 36.7496 16.071C36.612 16.07 36.4757 16.0453 36.3465 15.9982L36.4025 15.696C36.5031 15.7321 36.6091 15.751 36.716 15.7519C37.0518 15.7519 37.2758 15.6008 37.2758 15.0354L37.2478 13.1322Z" fill="#424242"/>
<path d="M39.3581 16.0206V15.7631C39.2843 15.8605 39.1885 15.9392 39.0787 15.9926C38.9688 16.0461 38.8478 16.073 38.7256 16.071C38.6435 16.0772 38.561 16.0663 38.4834 16.0389C38.4058 16.0115 38.3347 15.9683 38.2747 15.912C38.2147 15.8557 38.167 15.7875 38.1348 15.7117C38.1026 15.636 38.0864 15.5544 38.0874 15.4721C38.0874 14.9739 38.5353 14.6996 39.3358 14.6996V14.6604C39.3447 14.596 39.3389 14.5305 39.3186 14.4688C39.2983 14.4071 39.2641 14.3508 39.2187 14.3043C39.1734 14.2579 39.1179 14.2224 39.0567 14.2007C38.9955 14.1789 38.9301 14.1715 38.8655 14.179C38.6678 14.1764 38.4734 14.2308 38.3058 14.3357L38.2386 14.0838C38.4445 13.9597 38.6811 13.8957 38.9215 13.8991C39.5541 13.8991 39.7108 14.3357 39.7108 14.75V15.5224C39.7065 15.6892 39.7177 15.856 39.7444 16.0206H39.3581ZM39.3022 14.9627C38.8879 14.9627 38.4233 15.0298 38.4233 15.4329C38.4201 15.4803 38.4269 15.5278 38.4434 15.5724C38.4599 15.6169 38.4857 15.6575 38.519 15.6913C38.5524 15.7252 38.5925 15.7516 38.6368 15.7688C38.6811 15.786 38.7285 15.7936 38.776 15.7911C38.8856 15.793 38.9932 15.7606 39.0835 15.6983C39.1738 15.6361 39.2425 15.5472 39.2798 15.4441C39.2851 15.4032 39.2851 15.3618 39.2798 15.3209L39.3022 14.9627Z" fill="#424242"/>
<path d="M40.293 14.5093C40.293 14.2965 40.293 14.1174 40.293 13.9495H40.6288V14.2909C40.6975 14.1696 40.7978 14.069 40.919 14C41.0403 13.9311 41.1779 13.8962 41.3174 13.8991C41.6029 13.8991 42.0507 14.0726 42.0507 14.7835V16.0206H41.67V14.8283C41.67 14.4925 41.5469 14.2126 41.1942 14.2126C41.08 14.2173 40.97 14.2568 40.879 14.3258C40.7879 14.3949 40.7201 14.4901 40.6848 14.5988C40.6758 14.6563 40.6758 14.7149 40.6848 14.7723V16.0206H40.3042L40.293 14.5093Z" fill="#424242"/>
<path d="M44.3961 15.4553C44.3961 15.668 44.3961 15.8583 44.3961 16.015H44.0603V15.6792C43.9904 15.7979 43.8905 15.8961 43.7706 15.9639C43.6507 16.0317 43.5151 16.0667 43.3773 16.0654C43.0471 16.0654 42.6608 15.8863 42.6608 15.153V13.9495H43.0359V15.069C43.0359 15.4609 43.1534 15.7295 43.5005 15.7295C43.6081 15.7258 43.7124 15.691 43.8007 15.6294C43.8891 15.5679 43.9578 15.4821 43.9987 15.3825C44.0194 15.3211 44.0307 15.2569 44.0323 15.1922V13.9495H44.3961V15.4553Z" fill="#424242"/>
<path d="M46.1819 16.0206L46.1483 15.7631C46.0747 15.8609 45.9791 15.9397 45.8691 15.9933C45.7591 16.0468 45.638 16.0734 45.5157 16.071C45.4336 16.0772 45.3512 16.0663 45.2735 16.0389C45.1959 16.0115 45.1248 15.9683 45.0648 15.912C45.0048 15.8557 44.9572 15.7875 44.9249 15.7117C44.8927 15.636 44.8766 15.5544 44.8776 15.4721C44.8776 14.9739 45.3254 14.6996 46.1259 14.6996V14.6604C46.1349 14.596 46.129 14.5305 46.1087 14.4688C46.0884 14.4071 46.0543 14.3508 46.0089 14.3043C45.9635 14.2579 45.908 14.2224 45.8468 14.2007C45.7856 14.1789 45.7202 14.1715 45.6557 14.179C45.4579 14.1761 45.2634 14.2305 45.0959 14.3357L45.0063 14.0838C45.2123 13.9597 45.4488 13.8957 45.6893 13.8991C46.3218 13.8991 46.4785 14.3357 46.4785 14.75V15.5224C46.4742 15.6892 46.4855 15.856 46.5121 16.0206H46.1819ZM46.1259 14.9627C45.7116 14.9627 45.247 15.0298 45.247 15.4329C45.2438 15.4803 45.2507 15.5278 45.2672 15.5724C45.2837 15.6169 45.3094 15.6575 45.3428 15.6913C45.3761 15.7252 45.4162 15.7516 45.4605 15.7688C45.5048 15.786 45.5522 15.7936 45.5997 15.7911C45.7096 15.7939 45.8175 15.7617 45.908 15.6994C45.9985 15.6371 46.0669 15.5477 46.1035 15.4441C46.1088 15.4032 46.1088 15.3618 46.1035 15.3209L46.1259 14.9627Z" fill="#424242"/>
<path d="M47.0943 14.5932C47.0943 14.3525 47.0943 14.1398 47.0943 13.9495H47.4246V14.3525C47.4599 14.2286 47.5327 14.1185 47.6328 14.0374C47.733 13.9562 47.8557 13.908 47.9843 13.8991H48.0907V14.2574C48.0499 14.251 48.0084 14.251 47.9675 14.2574C47.8405 14.2676 47.7208 14.3209 47.6282 14.4085C47.5356 14.496 47.4756 14.6125 47.4582 14.7388C47.4546 14.7984 47.4546 14.8582 47.4582 14.9179V16.0374H47.0831L47.0943 14.5932Z" fill="#424242"/>
<path d="M48.74 13.9495L49.1935 15.1754C49.2438 15.3097 49.2942 15.4721 49.3278 15.5952C49.367 15.4721 49.4062 15.3153 49.4566 15.1642L49.8708 13.9495H50.2682L49.7085 15.4273C49.578 15.9105 49.3343 16.3556 48.9975 16.7259C48.8644 16.8438 48.7052 16.9282 48.5329 16.9722L48.4378 16.6532C48.5592 16.6145 48.6715 16.5516 48.768 16.4684C48.9063 16.3559 49.0157 16.212 49.0871 16.0486C49.0922 16.019 49.0922 15.9887 49.0871 15.9591C49.0923 15.9257 49.0923 15.8917 49.0871 15.8583L48.3146 13.9495H48.74Z" fill="#424242"/>
<path d="M31.7115 15.6736C31.6752 15.6716 31.6411 15.6555 31.6164 15.6288L30.6312 14.4421L31.6947 13.3785C31.7058 13.3665 31.7192 13.3568 31.7341 13.3503C31.749 13.3437 31.7652 13.3403 31.7815 13.3403C31.7978 13.3403 31.814 13.3437 31.8289 13.3503C31.8439 13.3568 31.8573 13.3665 31.8683 13.3785C31.8912 13.4016 31.904 13.4328 31.904 13.4653C31.904 13.4978 31.8912 13.529 31.8683 13.552L30.9614 14.4533L31.8011 15.4609C31.8132 15.4719 31.8228 15.4853 31.8294 15.5002C31.8359 15.5152 31.8393 15.5313 31.8393 15.5476C31.8393 15.564 31.8359 15.5801 31.8294 15.595C31.8228 15.61 31.8132 15.6234 31.8011 15.6344C31.7901 15.6473 31.7763 15.6575 31.7608 15.6643C31.7453 15.6711 31.7285 15.6742 31.7115 15.6736Z" fill="#6C8AF4"/>
<path d="M56.9464 15.6736C56.9291 15.6732 56.9121 15.6689 56.8966 15.6612C56.8812 15.6535 56.8676 15.6424 56.8569 15.6288C56.834 15.6057 56.8211 15.5745 56.8211 15.542C56.8211 15.5095 56.834 15.4783 56.8569 15.4553L57.9372 14.554L56.9296 13.5576C56.908 13.5339 56.896 13.503 56.896 13.4709C56.896 13.4388 56.908 13.4078 56.9296 13.3841C56.9411 13.3719 56.955 13.3622 56.9704 13.3556C56.9858 13.3489 57.0024 13.3455 57.0192 13.3455C57.036 13.3455 57.0526 13.3489 57.068 13.3556C57.0834 13.3622 57.0973 13.3719 57.1088 13.3841L58.3011 14.554L57.0304 15.6344C57.0086 15.6579 56.9785 15.6719 56.9464 15.6736Z" fill="#6C8AF4"/>
<path d="M51.1751 38.0644C51.1059 38.0646 51.0375 38.0496 50.9746 38.0206C50.9118 37.9916 50.856 37.9492 50.8112 37.8965L49.938 36.8665C49.8941 36.7993 49.8761 36.7184 49.8875 36.6389C49.899 36.5594 49.9389 36.4868 50 36.4347C50.061 36.3826 50.139 36.3544 50.2193 36.3556C50.2996 36.3568 50.3767 36.3872 50.4362 36.4411L51.1583 37.2807L52.8376 34.717C52.8613 34.6811 52.8919 34.6503 52.9276 34.6263C52.9633 34.6024 53.0034 34.5857 53.0456 34.5774C53.0878 34.5691 53.1312 34.5692 53.1734 34.5778C53.2155 34.5864 53.2555 34.6032 53.2911 34.6274C53.3632 34.6754 53.4137 34.7498 53.4315 34.8346C53.4493 34.9195 53.433 35.0079 53.3862 35.0808L51.5837 37.8237C51.543 37.8876 51.4878 37.9412 51.4227 37.9801C51.3576 38.0189 51.2843 38.0421 51.2087 38.0476L51.1751 38.0644Z" fill="white"/>
<path d="M69.9333 63.6627H18.9934C18.8122 63.6627 18.6385 63.5908 18.5104 63.4627C18.3824 63.3346 18.3104 63.1609 18.3104 62.9798C18.3104 62.7987 18.3824 62.625 18.5104 62.4969C18.6385 62.3688 18.8122 62.2969 18.9934 62.2969H69.9333C70.1144 62.2969 70.2881 62.3688 70.4162 62.4969C70.5443 62.625 70.6162 62.7987 70.6162 62.9798C70.6162 63.1609 70.5443 63.3346 70.4162 63.4627C70.2881 63.5908 70.1144 63.6627 69.9333 63.6627Z" fill="#FCFCFC"/>
<path d="M68.0301 68.1073H67.7949C67.5846 68.1087 67.3832 68.193 67.2345 68.3417C67.0857 68.4905 67.0015 68.6918 67.0001 68.9022V69.1373C67.0014 69.3109 67.0596 69.4794 67.1657 69.6169C67.2719 69.7544 67.4201 69.8533 67.5878 69.8985V87.8112C67.5818 87.857 67.5856 87.9036 67.599 87.9479C67.6124 87.9921 67.6351 88.033 67.6655 88.0677C67.696 88.1025 67.7336 88.1304 67.7757 88.1494C67.8178 88.1685 67.8635 88.1784 67.9097 88.1784C67.9559 88.1784 68.0016 88.1685 68.0437 88.1494C68.0858 88.1304 68.1234 88.1025 68.1539 88.0677C68.1843 88.033 68.207 87.9921 68.2204 87.9479C68.2338 87.9036 68.2376 87.857 68.2316 87.8112V69.8985C68.3941 69.8482 68.5361 69.7471 68.6369 69.6101C68.7376 69.4731 68.7918 69.3073 68.7914 69.1373V68.9022C68.7915 68.697 68.7124 68.4998 68.5705 68.3516C68.4287 68.2035 68.235 68.1159 68.0301 68.1073Z" fill="#6FD22A"/>
<path d="M68.0301 94.9315H67.7949C67.5851 94.9315 67.3838 95.0145 67.2348 95.1623C67.0859 95.3102 67.0015 95.5109 67.0001 95.7208V95.9559C67.002 96.13 67.0603 96.2989 67.1663 96.4371C67.2723 96.5754 67.4201 96.6756 67.5878 96.7228V114.663C67.5981 114.741 67.6365 114.813 67.6957 114.865C67.7549 114.917 67.831 114.946 67.9097 114.946C67.9884 114.946 68.0645 114.917 68.1237 114.865C68.1829 114.813 68.2213 114.741 68.2316 114.663V96.7228C68.394 96.6706 68.5358 96.5683 68.6364 96.4305C68.737 96.2927 68.7912 96.1265 68.7914 95.9559V95.7208C68.7915 95.5162 68.7122 95.3196 68.5702 95.1723C68.4281 95.0251 68.2345 94.9387 68.0301 94.9315Z" fill="#6FD22A"/>
<path d="M64.6826 73.1228H48.9416C48.7282 73.1214 48.5241 73.036 48.3732 72.8851C48.2224 72.7343 48.137 72.5301 48.1355 72.3168C48.137 72.1039 48.2226 71.9004 48.3736 71.7504C48.5246 71.6004 48.7288 71.5163 48.9416 71.5163H64.6826C64.8954 71.5163 65.0996 71.6004 65.2506 71.7504C65.4016 71.9004 65.4872 72.1039 65.4887 72.3168C65.4872 72.5301 65.4018 72.7343 65.251 72.8851C65.1001 73.036 64.8959 73.1214 64.6826 73.1228Z" fill="#9CB4F7"/>
<path d="M64.6826 77.8081H40.0523C39.8394 77.8066 39.6358 77.721 39.4859 77.57C39.3359 77.419 39.2518 77.2149 39.2518 77.002C39.2518 76.8969 39.2725 76.7928 39.3127 76.6957C39.3529 76.5986 39.4119 76.5104 39.4862 76.436C39.5606 76.3617 39.6488 76.3027 39.7459 76.2625C39.843 76.2223 39.9471 76.2016 40.0523 76.2016H64.6826C64.8954 76.2016 65.0996 76.2857 65.2506 76.4357C65.4016 76.5856 65.4872 76.7892 65.4887 77.002C65.4872 77.2154 65.4018 77.4195 65.2509 77.5704C65.1001 77.7212 64.8959 77.8066 64.6826 77.8081Z" fill="#9CB4F7"/>
<path d="M64.6826 82.527H34.0738C33.862 82.5255 33.6592 82.4407 33.5094 82.2909C33.3596 82.1411 33.2748 81.9383 33.2733 81.7265C33.2733 81.5142 33.3577 81.3106 33.5078 81.1605C33.6579 81.0104 33.8615 80.926 34.0738 80.926H64.6826C64.8954 80.926 65.0996 81.0102 65.2506 81.1601C65.4016 81.3101 65.4872 81.5137 65.4886 81.7265C65.4857 81.9388 65.3997 82.1416 65.249 82.2913C65.0983 82.4409 64.8949 82.5255 64.6826 82.527Z" fill="#9CB4F7"/>
<path d="M64.6826 87.229H52.1659C51.9525 87.2276 51.7484 87.1422 51.5975 86.9913C51.4467 86.8405 51.3613 86.6363 51.3598 86.423C51.3613 86.2102 51.4469 86.0066 51.5979 85.8566C51.7489 85.7066 51.9531 85.6225 52.1659 85.6225H64.6826C64.8954 85.6225 65.0996 85.7066 65.2506 85.8566C65.4016 86.0066 65.4872 86.2102 65.4886 86.423C65.4872 86.6363 65.4018 86.8405 65.2509 86.9913C65.1001 87.1422 64.8959 87.2276 64.6826 87.229Z" fill="#9CB4F7"/>
<path d="M64.6826 99.4992H48.9416C48.7288 99.4992 48.5246 99.4151 48.3736 99.2651C48.2226 99.1151 48.137 98.9116 48.1355 98.6987C48.137 98.4854 48.2224 98.2812 48.3732 98.1304C48.5241 97.9795 48.7282 97.8941 48.9416 97.8927H64.6826C64.8959 97.8941 65.1001 97.9795 65.251 98.1304C65.4018 98.2812 65.4872 98.4854 65.4887 98.6987C65.4872 98.9116 65.4016 99.1151 65.2506 99.2651C65.0996 99.4151 64.8954 99.4992 64.6826 99.4992Z" fill="#9CB4F7"/>
<path d="M64.6826 104.201H40.0523C39.9471 104.201 39.843 104.181 39.7459 104.14C39.6488 104.1 39.5606 104.041 39.4862 103.967C39.4119 103.892 39.3529 103.804 39.3127 103.707C39.2725 103.61 39.2518 103.506 39.2518 103.401C39.2518 103.188 39.3359 102.984 39.4859 102.833C39.6358 102.682 39.8394 102.596 40.0523 102.595H64.6826C64.8959 102.596 65.1001 102.682 65.2509 102.832C65.4018 102.983 65.4872 103.187 65.4887 103.401C65.4872 103.614 65.4016 103.817 65.2506 103.967C65.0996 104.117 64.8954 104.201 64.6826 104.201Z" fill="#9CB4F7"/>
<path d="M64.6826 108.903H34.0738C33.8615 108.903 33.6579 108.819 33.5078 108.669C33.3577 108.519 33.2733 108.315 33.2733 108.103C33.2733 107.89 33.3575 107.686 33.5074 107.535C33.6574 107.384 33.861 107.298 34.0738 107.297H64.6826C64.8959 107.298 65.1001 107.384 65.2509 107.535C65.4018 107.685 65.4872 107.89 65.4886 108.103C65.4872 108.316 65.4016 108.519 65.2506 108.669C65.0996 108.819 64.8954 108.903 64.6826 108.903Z" fill="#9CB4F7"/>
<path d="M64.6826 111.999H52.1659C51.7207 111.999 51.3598 112.359 51.3598 112.802C51.3598 113.246 51.7207 113.605 52.1659 113.605H64.6826C65.1278 113.605 65.4886 113.246 65.4886 112.802C65.4886 112.359 65.1278 111.999 64.6826 111.999Z" fill="#9CB4F7"/>
<path d="M68.3323 7.22104H62.9697C62.8806 7.22104 62.7951 7.25642 62.7322 7.31941C62.6692 7.3824 62.6338 7.46783 62.6338 7.5569C62.6338 7.64598 62.6692 7.73141 62.7322 7.79439C62.7951 7.85738 62.8806 7.89276 62.9697 7.89276H68.3323C68.4214 7.89276 68.5069 7.85738 68.5698 7.79439C68.6328 7.73141 68.6682 7.64598 68.6682 7.5569C68.6682 7.46783 68.6328 7.3824 68.5698 7.31941C68.5069 7.25642 68.4214 7.22104 68.3323 7.22104Z" fill="#B3D7E0"/>
<path d="M68.3323 9.06828H62.9697C62.8806 9.06828 62.7951 9.10367 62.7322 9.16665C62.6692 9.22964 62.6338 9.31507 62.6338 9.40414C62.6338 9.44799 62.6425 9.4914 62.6595 9.53184C62.6764 9.57228 62.7012 9.60894 62.7325 9.63968C62.7638 9.67042 62.8008 9.69463 62.8415 9.71089C62.8823 9.72716 62.9258 9.73515 62.9697 9.73441H68.3323C68.3759 9.73517 68.4192 9.72714 68.4596 9.71081C68.5 9.69448 68.5367 9.67019 68.5676 9.63937C68.5984 9.60855 68.6227 9.57184 68.639 9.53142C68.6553 9.49101 68.6634 9.44772 68.6626 9.40414C68.6634 9.3603 68.6554 9.31676 68.6391 9.27604C68.6228 9.23532 68.5986 9.19825 68.5679 9.16699C68.5371 9.13572 68.5005 9.11089 68.46 9.09395C68.4196 9.077 68.3762 9.06828 68.3323 9.06828Z" fill="#B3D7E0"/>
<path d="M68.3323 10.9099H62.9697C62.8806 10.9099 62.7951 10.9453 62.7322 11.0083C62.6692 11.0713 62.6338 11.1567 62.6338 11.2458C62.6338 11.3349 62.6692 11.4203 62.7322 11.4833C62.7951 11.5463 62.8806 11.5817 62.9697 11.5817H68.3323C68.4214 11.5817 68.5069 11.5463 68.5698 11.4833C68.6328 11.4203 68.6682 11.3349 68.6682 11.2458C68.6682 11.1567 68.6328 11.0713 68.5698 11.0083C68.5069 10.9453 68.4214 10.9099 68.3323 10.9099Z" fill="#B3D7E0"/>
<path d="M22.9566 7.0755L19.9954 9.84636H21.1429V11.7552H22.2625V10.9603C22.2783 10.7819 22.3603 10.6159 22.4924 10.495C22.6245 10.3741 22.7971 10.3071 22.9762 10.3071C23.1553 10.3071 23.3279 10.3741 23.46 10.495C23.5921 10.6159 23.6741 10.7819 23.6899 10.9603V11.7552H24.8095V9.84636H25.929L22.9566 7.0755Z" fill="#B3D7E0"/>
<g style="mix-blend-mode:multiply">
<path d="M43.73 72.0705C43.9465 71.9454 44.1168 71.7537 44.2155 71.5239C44.3141 71.2942 44.3357 71.0387 44.2771 70.7956C44.2186 70.5525 44.0829 70.3349 43.8905 70.1752C43.6981 70.0156 43.4591 69.9224 43.2094 69.9097H2.11597C1.82 69.9185 1.53956 70.0442 1.33603 70.2593C1.1325 70.4743 1.02246 70.7613 1.03 71.0573V95.8887C1.02986 96.1799 1.1432 96.4597 1.34594 96.6687C1.54869 96.8777 1.8249 96.9995 2.11597 97.0082H33.7603C34.0572 97.0082 34.342 96.8903 34.552 96.6803C34.7619 96.4704 34.8799 96.1856 34.8799 95.8887V77.8641C34.8773 77.6612 34.9275 77.461 35.0257 77.2834C35.1238 77.1058 35.2665 76.9567 35.4397 76.8509L43.73 72.0705Z" fill="#B3D7E0"/>
</g>
<path d="M42.7168 71.9753C42.9105 71.8471 43.0594 71.6618 43.1431 71.4452C43.2268 71.2285 43.241 70.9912 43.1838 70.7661C43.1266 70.541 43.0008 70.3393 42.8239 70.1889C42.6469 70.0384 42.4276 69.9468 42.1962 69.9265H1.09158C0.794649 69.9265 0.509885 70.0445 0.299926 70.2544C0.0899683 70.4644 -0.0279846 70.7491 -0.0279846 71.0461V94.5564C-0.0279846 94.8534 0.0899683 95.1381 0.299926 95.3481C0.509885 95.558 0.794649 95.676 1.09158 95.676H32.7023C32.9993 95.676 33.284 95.558 33.494 95.3481C33.7039 95.1381 33.8219 94.8534 33.8219 94.5564V77.4834C33.8241 77.289 33.8768 77.0985 33.975 76.9307C34.0731 76.7628 34.2133 76.6234 34.3817 76.5262L42.7168 71.9753Z" fill="#FCFCFC"/>
<path d="M20.8182 76.0784C20.8182 75.3687 20.6397 74.6705 20.2992 74.0478C19.9586 73.4252 19.467 72.8982 18.8694 72.5153C18.2719 72.1324 17.5877 71.9059 16.8797 71.8567C16.1717 71.8075 15.4627 71.9372 14.8179 72.2337C14.1732 72.5303 13.6133 72.9842 13.1899 73.5538C12.7665 74.1233 12.4932 74.7902 12.395 75.4931C12.2969 76.1959 12.377 76.9122 12.6282 77.5759C12.8793 78.2397 13.2933 78.8296 13.8322 79.2915C14.3072 79.7097 14.71 80.2033 15.0245 80.7525C15.5025 81.5977 15.8998 82.4861 16.2112 83.4058C16.2372 83.4855 16.2878 83.555 16.3556 83.6042C16.4235 83.6535 16.5052 83.68 16.5891 83.68C16.6729 83.68 16.7546 83.6535 16.8225 83.6042C16.8904 83.555 16.9409 83.4855 16.9669 83.4058C17.2698 82.5025 17.6558 81.6292 18.1201 80.7973C18.4446 80.2226 18.8627 79.7062 19.3572 79.2691C19.8153 78.8732 20.1829 78.3833 20.435 77.8328C20.6871 77.2823 20.8178 76.6839 20.8182 76.0784Z" fill="#6FD22A"/>
<path d="M18.8646 76.0056C18.8657 76.4565 18.733 76.8975 18.4833 77.2729C18.2337 77.6483 17.8782 77.9412 17.462 78.1145C17.0458 78.2878 16.5876 78.3337 16.1452 78.2464C15.7029 78.1591 15.2965 77.9426 14.9773 77.6242C14.6581 77.3058 14.4405 76.8999 14.3522 76.4578C14.2638 76.0157 14.3086 75.5573 14.4809 75.1407C14.6531 74.7241 14.9452 74.3679 15.3199 74.1173C15.6947 73.8667 16.1354 73.733 16.5863 73.733C17.1896 73.733 17.7682 73.9722 18.1953 74.3983C18.6224 74.8243 18.8631 75.4024 18.8646 76.0056Z" fill="#FCFCFC"/>
<path d="M17.6107 76.0056C17.6163 76.2093 17.561 76.4101 17.4518 76.5822C17.3427 76.7543 17.1847 76.8899 16.9981 76.9718C16.8115 77.0536 16.6047 77.0779 16.4042 77.0416C16.2036 77.0053 16.0185 76.91 15.8724 76.7679C15.7263 76.6258 15.626 76.4434 15.5841 76.244C15.5423 76.0446 15.5609 75.8372 15.6375 75.6484C15.7141 75.4595 15.8454 75.2979 16.0144 75.184C16.1834 75.0702 16.3825 75.0093 16.5863 75.0092C16.8532 75.0091 17.1096 75.1132 17.3009 75.2993C17.4923 75.4854 17.6034 75.7388 17.6107 76.0056Z" fill="#224C89"/>
<path d="M0 94.534C0 94.831 0.117953 95.1157 0.327912 95.3257C0.53787 95.5356 0.822634 95.6536 1.11956 95.6536H32.7023C32.9993 95.6536 33.284 95.5356 33.494 95.3257C33.7039 95.1157 33.8219 94.831 33.8219 94.534V85.0515H0V94.534Z" fill="#D5E7F7"/>
<path d="M19.6819 88.8188H3.85691C3.65203 88.8188 3.45554 88.7374 3.31067 88.5925C3.1658 88.4477 3.08441 88.2512 3.08441 88.0463C3.08441 87.8414 3.1658 87.645 3.31067 87.5001C3.45554 87.3552 3.65203 87.2738 3.85691 87.2738H19.6819C19.8868 87.2738 20.0833 87.3552 20.2281 87.5001C20.373 87.645 20.4544 87.8414 20.4544 88.0463C20.4544 88.2512 20.373 88.4477 20.2281 88.5925C20.0833 88.7374 19.8868 88.8188 19.6819 88.8188Z" fill="#FCFCFC"/>
<path d="M30.133 90.6212H3.85691C3.43027 90.6212 3.08441 90.9671 3.08441 91.3937C3.08441 91.8204 3.43027 92.1662 3.85691 92.1662H30.133C30.5596 92.1662 30.9055 91.8204 30.9055 91.3937C30.9055 90.9671 30.5596 90.6212 30.133 90.6212Z" fill="#FCFCFC"/>
<g style="mix-blend-mode:multiply">
<path d="M47.3686 36.3851L42.9631 35.5118C42.9136 35.4853 42.8723 35.4457 42.8437 35.3973C42.8151 35.349 42.8002 35.2937 42.8008 35.2376V31.3919C42.8008 31.3098 42.7685 31.2309 42.711 31.1722C42.6534 31.1136 42.5751 31.0799 42.4929 31.0785H5.54744C5.46528 31.0799 5.38697 31.1136 5.32939 31.1722C5.27181 31.2309 5.23955 31.3098 5.23956 31.3919V43.9812C5.23956 44.0216 5.24753 44.0616 5.263 44.099C5.27847 44.1363 5.30115 44.1703 5.32974 44.1989C5.35833 44.2275 5.39227 44.2501 5.42962 44.2656C5.46698 44.2811 5.50701 44.289 5.54744 44.289H42.4929C42.5746 44.289 42.6529 44.2566 42.7106 44.1989C42.7684 44.1411 42.8008 44.0628 42.8008 43.9812V41.1431C42.8014 41.0879 42.8161 41.0336 42.8436 40.9856C42.871 40.9376 42.9102 40.8974 42.9575 40.8689L47.3742 36.9505C47.4292 36.9261 47.4758 36.8862 47.5084 36.8356C47.5409 36.785 47.5579 36.7261 47.5573 36.6659C47.5567 36.6058 47.5385 36.5472 47.505 36.4973C47.4715 36.4473 47.424 36.4084 47.3686 36.3851Z" fill="#B3D7E0"/>
</g>
<path d="M47.3686 36.2731L42.9631 33.9221C42.9141 33.8965 42.873 33.8579 42.8443 33.8105C42.8157 33.7631 42.8007 33.7088 42.8008 33.6534V29.7966C42.8008 29.7149 42.7684 29.6366 42.7106 29.5789C42.6529 29.5211 42.5746 29.4887 42.4929 29.4887H5.54744C5.50701 29.4887 5.46698 29.4967 5.42962 29.5121C5.39227 29.5276 5.35833 29.5503 5.32974 29.5789C5.30115 29.6075 5.27847 29.6414 5.263 29.6788C5.24753 29.7161 5.23956 29.7562 5.23956 29.7966V42.3858C5.23956 42.4263 5.24753 42.4663 5.263 42.5036C5.27847 42.541 5.30115 42.5749 5.32974 42.6035C5.35833 42.6321 5.39227 42.6548 5.42962 42.6703C5.46698 42.6857 5.50701 42.6937 5.54744 42.6937H42.4929C42.5746 42.6937 42.6529 42.6613 42.7106 42.6035C42.7684 42.5458 42.8008 42.4675 42.8008 42.3858V39.5478C42.8013 39.4932 42.816 39.4397 42.8435 39.3926C42.871 39.3455 42.9103 39.3064 42.9575 39.2791L47.3742 36.8161C47.4231 36.7893 47.4638 36.7498 47.4919 36.7016C47.5201 36.6535 47.5347 36.5987 47.5341 36.5429C47.5335 36.4872 47.5178 36.4327 47.4887 36.3851C47.4595 36.3376 47.418 36.2989 47.3686 36.2731Z" fill="#6FD22A"/>
<path d="M5.53624 29.4887C5.45459 29.4887 5.37628 29.5211 5.31854 29.5789C5.2608 29.6366 5.22836 29.7149 5.22836 29.7966V42.3858C5.22836 42.4675 5.2608 42.5458 5.31854 42.6035C5.37628 42.6613 5.45459 42.6937 5.53624 42.6937H18.5399V29.4887H5.53624Z" fill="white"/>
<path d="M10.9829 40.617C10.8002 40.6161 10.6197 40.5762 10.4537 40.5C10.2876 40.4237 10.1398 40.3128 10.0201 40.1747L7.73618 37.5046C7.66267 37.4194 7.60667 37.3204 7.57139 37.2135C7.5361 37.1066 7.52222 36.9938 7.53054 36.8815C7.53886 36.7693 7.56921 36.6597 7.61986 36.5592C7.67051 36.4586 7.74047 36.369 7.82574 36.2955C7.91101 36.222 8.00993 36.166 8.11685 36.1307C8.22376 36.0955 8.33658 36.0816 8.44885 36.0899C8.56113 36.0982 8.67067 36.1286 8.77122 36.1792C8.87177 36.2299 8.96135 36.2998 9.03487 36.3851L10.9381 38.6242L15.3268 31.9069C15.4594 31.7353 15.6518 31.6201 15.8656 31.584C16.0795 31.548 16.2991 31.5939 16.4806 31.7125C16.6621 31.8312 16.7922 32.0139 16.845 32.2242C16.8978 32.4345 16.8694 32.657 16.7654 32.8473L12.0521 40.0404C11.9436 40.2034 11.7985 40.3389 11.6285 40.4361C11.4584 40.5333 11.268 40.5894 11.0725 40.6002L10.9829 40.617Z" fill="#0A67BC"/>
<path d="M34.8799 33.6478H21.7083C21.591 33.6478 21.4785 33.6012 21.3956 33.5183C21.3126 33.4354 21.2661 33.3229 21.2661 33.2056C21.266 33.1478 21.2775 33.0905 21.2998 33.0372C21.3221 32.9839 21.3548 32.9355 21.3959 32.8949C21.437 32.8542 21.4858 32.8222 21.5395 32.8006C21.5931 32.779 21.6505 32.7682 21.7083 32.769H34.8799C34.9957 32.769 35.1068 32.815 35.1886 32.8969C35.2705 32.9787 35.3165 33.0898 35.3165 33.2056C35.3173 33.2634 35.3065 33.3208 35.2849 33.3744C35.2633 33.428 35.2313 33.4768 35.1906 33.518C35.15 33.5591 35.1016 33.5918 35.0483 33.614C34.9949 33.6363 34.9377 33.6478 34.8799 33.6478Z" fill="white"/>
<path d="M39.4701 36.6594H21.7251C21.6033 36.6594 21.4866 36.611 21.4005 36.5249C21.3144 36.4388 21.2661 36.3221 21.2661 36.2004C21.2661 36.0786 21.3144 35.9619 21.4005 35.8758C21.4866 35.7897 21.6033 35.7413 21.7251 35.7413H39.4701C39.5918 35.7413 39.7086 35.7897 39.7947 35.8758C39.8808 35.9619 39.9291 36.0786 39.9291 36.2004C39.9291 36.3221 39.8808 36.4388 39.7947 36.5249C39.7086 36.611 39.5918 36.6594 39.4701 36.6594Z" fill="white"/>
<path d="M39.4701 39.419H21.7251C21.6033 39.419 21.4866 39.3707 21.4005 39.2846C21.3144 39.1985 21.2661 39.0818 21.2661 38.96C21.2661 38.8383 21.3144 38.7215 21.4005 38.6355C21.4866 38.5494 21.6033 38.501 21.7251 38.501H39.4701C39.5918 38.501 39.7086 38.5494 39.7947 38.6355C39.8808 38.7215 39.9291 38.8383 39.9291 38.96C39.9291 39.0818 39.8808 39.1985 39.7947 39.2846C39.7086 39.3707 39.5918 39.419 39.4701 39.419Z" fill="white"/>
<path d="M119.53 49.8196V63.2037C119.53 63.9244 119.373 64.6366 119.07 65.2903C118.766 65.9439 118.323 66.5233 117.772 66.9877C116.874 67.73 115.741 68.127 114.576 68.1073L101.27 67.9617L73.9917 67.6707H73.7398L68.4667 76.0056L68.3379 76.2072C68.2607 76.3219 68.1535 76.4132 68.0279 76.4711C67.9024 76.5291 67.7633 76.5515 67.6259 76.5359C67.4885 76.5203 67.358 76.4674 67.2487 76.3827C67.1393 76.2981 67.0553 76.1851 67.0057 76.056L63.9885 67.5587H62.3091C60.8673 67.571 59.4781 67.0175 58.4398 66.0169C57.4016 65.0164 56.7971 63.6486 56.7561 62.2073V47.9443C56.7619 47.1891 56.9375 46.4448 57.2699 45.7665C57.6022 45.0882 58.0828 44.4934 58.6761 44.0259C59.6549 43.2495 60.8695 42.8308 62.1188 42.8392H62.3259L114.559 44.6361C115.897 44.6897 117.162 45.2595 118.089 46.226C119.016 47.1925 119.532 48.4805 119.53 49.8196Z" fill="#04528C"/>
<path d="M75.3128 64.9334L73.7734 67.3236L73.5383 67.693L68.3547 75.7482C68.2677 75.8803 68.14 75.9806 67.9909 76.0336C67.8779 76.0739 67.7576 76.0892 67.6382 76.0784C67.5007 76.0646 67.3697 76.0128 67.26 75.9287C67.1502 75.8447 67.066 75.7318 67.0168 75.6026L64.0332 67.2061L63.1656 64.7599L75.3128 64.9334Z" fill="#0A67BC"/>
<path d="M115.063 44.5913L62.8073 42.8169C59.7621 42.7161 57.2487 44.9664 57.2487 47.8548V61.8938C57.2487 64.7767 59.7621 67.1445 62.8073 67.1725L115.046 67.7322C115.692 67.7434 116.333 67.626 116.933 67.387C117.533 67.1479 118.079 66.792 118.54 66.3398C119.001 65.8877 119.368 65.3483 119.618 64.7533C119.869 64.1582 119.999 63.5192 120 62.8734V49.6684C119.987 48.35 119.466 47.0874 118.547 46.1421C117.628 45.1969 116.38 44.6416 115.063 44.5913Z" fill="#0A67BC"/>
<path d="M71.4335 54.4041C70.5476 53.6485 69.4122 53.2495 68.2484 53.2846C67.7705 53.2654 67.292 53.2973 66.8209 53.3797L66.4907 53.4301L66.7538 50.8552L71.6854 50.9895V48.6217L64.1788 48.4034L63.619 55.1206L64.7889 55.742C65.1151 55.6612 65.446 55.6014 65.7797 55.5628C66.1505 55.5095 66.5248 55.4852 66.8993 55.4901C68.7652 55.5311 69.6982 56.2122 69.6982 57.5332C69.6982 58.9214 68.8063 59.5988 67.0225 59.5652C66.385 59.5489 65.7517 59.4568 65.136 59.2909C64.5251 59.1493 63.9345 58.9311 63.3783 58.6416V61.0542C64.5543 61.5909 65.8364 61.8549 67.1288 61.8267C68.8977 61.8528 70.2561 61.4796 71.204 60.7071C71.6849 60.2959 72.0634 59.7783 72.3092 59.1952C72.555 58.6122 72.6615 57.9799 72.6203 57.3485C72.6449 56.8013 72.5517 56.2553 72.3469 55.7473C72.1422 55.2393 71.8307 54.7812 71.4335 54.4041Z" fill="white"/>
<path d="M82.7579 56.0722C82.0511 55.5171 81.2044 55.1683 80.3116 55.0646V55.0086C81.1099 54.842 81.8451 54.454 82.4332 53.8891C82.9406 53.3318 83.2115 52.5992 83.1889 51.8459C83.1989 51.3908 83.0926 50.9406 82.88 50.538C82.6674 50.1355 82.3557 49.7938 81.9742 49.5453C80.983 48.9227 79.8305 48.6054 78.6603 48.6329C77.3407 48.5677 76.0265 48.8414 74.8426 49.4277C74.6275 49.5348 74.4199 49.6564 74.2212 49.7916L74.8594 50.7152L75.5535 51.7284C76.0339 51.4289 76.5514 51.1936 77.0929 51.0287C77.5349 50.9019 77.9934 50.8415 78.4532 50.8495C79.7332 50.8831 80.3751 51.3925 80.3788 52.3777C80.4097 52.6502 80.3579 52.9256 80.2301 53.1682C80.1023 53.4108 79.9045 53.6094 79.6623 53.738C78.921 54.0305 78.122 54.1473 77.328 54.0794H76.242V56.1898H77.3056C78.161 56.1598 79.0132 56.3085 79.8078 56.6264C80.0545 56.7413 80.261 56.9275 80.4007 57.161C80.5404 57.3945 80.6069 57.6646 80.5915 57.9362C80.6175 58.2189 80.5692 58.5034 80.4514 58.7617C80.3336 59.0199 80.1503 59.2428 79.9198 59.4084C79.2795 59.7487 78.5538 59.8947 77.8318 59.8283C77.1958 59.8164 76.5639 59.7242 75.9509 59.554C75.3527 59.3811 74.7688 59.1621 74.2044 58.8991V61.2501C75.4473 61.7615 76.779 62.0222 78.1229 62.017C79.1815 62.0642 80.2391 61.9025 81.2353 61.5412C81.566 61.4152 81.8785 61.2458 82.1645 61.0374C82.6226 60.7134 82.9922 60.2798 83.2396 59.7762C83.487 59.2727 83.6043 58.7151 83.5807 58.1546C83.6044 57.7684 83.543 57.3817 83.4008 57.0219C83.2586 56.6621 83.0391 56.3379 82.7579 56.0722Z" fill="white"/>
<path d="M93.3153 54.8071C92.9577 54.4367 92.5263 54.1456 92.0489 53.9527C91.5715 53.7599 91.059 53.6695 90.5444 53.6876C89.9783 53.6307 89.4076 53.7344 88.8978 53.9869C88.3879 54.2393 87.9595 54.6303 87.6615 55.115H87.544C87.5563 54.3034 87.7474 53.5045 88.1038 52.7752C88.4117 52.2279 88.8947 51.8 89.4752 51.5605C90.2115 51.27 91.0029 51.1458 91.7927 51.1966C92.3199 51.2104 92.8438 51.2836 93.3545 51.4149V49.2262C92.7812 49.1106 92.1984 49.0488 91.6136 49.0415C89.4025 48.9799 87.7567 49.5509 86.6371 50.7712C85.5176 51.9915 84.9578 53.8779 84.9578 56.4305C84.9298 57.4887 85.1362 58.5401 85.5624 59.5092C85.8962 60.2624 86.4331 60.9078 87.113 61.3732L87.2641 61.4684C88.0377 61.9346 88.9247 62.1786 89.8279 62.1737C90.8416 62.2328 91.8472 61.9618 92.694 61.4012C92.8515 61.2887 92.9995 61.1633 93.1362 61.0262C93.868 60.1646 94.2854 59.0799 94.32 57.95C94.3546 56.82 94.0043 55.7119 93.3265 54.8071H93.3153ZM88.3613 56.2289C88.7648 55.8822 89.2852 55.7021 89.8167 55.7252C90.0698 55.7124 90.3227 55.756 90.5569 55.8528C90.7912 55.9496 91.001 56.0972 91.1714 56.2849C91.4885 56.7145 91.6468 57.2407 91.6192 57.7739C91.6632 58.3731 91.4925 58.9684 91.1378 59.4532C90.9672 59.6452 90.7549 59.7955 90.5171 59.8925C90.2793 59.9895 90.0225 60.0308 89.7663 60.013C89.4837 60.0095 89.2059 59.9399 88.955 59.8096C88.7042 59.6794 88.4874 59.4921 88.3221 59.2629C87.9398 58.7498 87.7425 58.1224 87.7623 57.4828C87.7619 57.2423 87.8155 57.0048 87.9192 56.7878C88.0229 56.5708 88.1739 56.3798 88.3613 56.2289Z" fill="white"/>
<path d="M99.137 59.8954V59.7723L100.772 58.2665C101.594 57.5778 102.365 56.8294 103.078 56.0274C103.475 55.562 103.8 55.0392 104.041 54.4769C104.249 53.9573 104.354 53.4021 104.349 52.8423C104.357 52.2041 104.178 51.5774 103.834 51.0399C103.479 50.4969 102.981 50.0628 102.395 49.786C101.725 49.4653 100.993 49.2953 100.251 49.2878C99.6879 49.266 99.1241 49.3111 98.5716 49.4221C98.0919 49.5169 97.627 49.675 97.189 49.8923C96.6173 50.208 96.0807 50.5833 95.588 51.0119L97.0938 52.792C97.5509 52.4218 98.0509 52.108 98.5828 51.8571C99.0427 51.6473 99.5441 51.544 100.049 51.5549C100.459 51.5551 100.856 51.6998 101.169 51.9635C101.316 52.1092 101.43 52.2842 101.504 52.4772C101.579 52.6701 101.611 52.8766 101.6 53.083C101.6 53.4211 101.533 53.7558 101.404 54.0682C101.243 54.4394 101.028 54.7847 100.766 55.0926C100.18 55.7833 99.5573 56.4429 98.9019 57.0686L95.6496 60.2425V62.1233L104.606 62.2689V60.0298L99.137 59.8954Z" fill="white"/>
<path d="M110.45 49.73L106.341 52.8591L107.651 54.4993L109.123 53.3797C109.297 53.2454 109.605 52.9655 110.053 52.5345V53.8387L110.097 55.0366V62.3137L112.611 62.3584V49.8196L110.45 49.73Z" fill="white"/>
<g style="mix-blend-mode:soft-light" opacity="0.6">
<path d="M101.264 67.7322L73.9805 67.4356L68.797 75.4906C68.7076 75.6242 68.5783 75.7261 68.4275 75.7817L68.3044 75.9776C68.2276 76.0944 68.1201 76.1876 67.9936 76.2469C67.8671 76.3062 67.7266 76.3292 67.5878 76.3135C67.449 76.2987 67.3172 76.2453 67.2073 76.1591C67.0974 76.073 67.014 75.9578 66.9665 75.8265L63.9884 67.3236H62.3091C60.8677 67.333 59.4799 66.7775 58.4431 65.7762C57.4062 64.7749 56.8026 63.4074 56.7617 61.9666V47.7092C56.7675 46.954 56.9431 46.2096 57.2755 45.5314C57.6078 44.8531 58.0884 44.2583 58.6817 43.7908L59.2079 43.7349C64.7162 43.1135 70.342 42.0556 73.3592 45.4981C74.2535 46.529 74.769 47.8344 74.8202 49.1982C74.8426 49.6271 74.8426 50.0568 74.8202 50.4857C74.725 53.2846 73.9581 56.2681 76.214 58.8823C76.388 59.0916 76.575 59.2897 76.7738 59.4756C78.0046 60.5438 79.5527 61.1772 81.1793 61.2781C83.1354 61.3918 85.0977 61.3432 87.0458 61.1325C88.9068 60.941 90.7826 60.941 92.6436 61.1325C94.5944 61.3603 96.4463 62.115 98.0007 63.3156C99.3378 64.3739 100.392 65.7471 101.068 67.3124C101.158 67.4691 101.208 67.5979 101.264 67.7322Z" fill="white"/>
</g>
</g>
<defs>
<linearGradient id="paint0_linear_66_1307" x1="14.1624" y1="60.5" x2="74.7698" y2="60.5" gradientUnits="userSpaceOnUse">
<stop stop-color="#444B8C"/>
<stop offset="1" stop-color="#26264F"/>
</linearGradient>
<clipPath id="clip0_66_1307">
<rect width="120" height="121" fill="white"/>
</clipPath>
</defs>
</svg>
