<svg width="218" height="201" viewBox="0 0 218 201" fill="none" xmlns="http://www.w3.org/2000/svg">
<path d="M180.63 188.616L180.945 187.587C183.057 187.858 185.231 187.748 187.359 187.223L187.745 187.946C188.573 189.499 190.422 190.292 192.077 189.684C193.179 189.279 193.93 188.416 194.236 187.416C194.498 186.56 194.432 185.606 193.977 184.754L193.693 184.222C195.587 182.804 197.129 181.051 198.277 179.091L198.472 179.15C200.158 179.663 202.028 178.921 202.767 177.324C203.26 176.262 203.18 175.12 202.687 174.196C202.266 173.407 201.543 172.779 200.618 172.497L200.538 172.473C200.844 170.106 200.666 167.661 199.959 165.291C201.636 164.372 202.266 162.276 201.364 160.587C200.909 159.735 200.152 159.148 199.294 158.887C198.45 158.63 197.511 158.69 196.667 159.124C195.09 157.216 193.155 155.705 191.016 154.637L191.028 154.597C191.478 153.124 190.959 151.484 189.665 150.644C188.472 149.868 187.112 149.888 186.044 150.455C185.253 150.875 184.623 151.596 184.341 152.52L184.25 152.817C181.979 152.674 179.66 152.971 177.424 153.749L177.199 153.327C176.29 151.624 174.173 150.869 172.452 151.749C170.708 152.642 170.04 154.782 170.958 156.502L171.394 157.318C169.77 158.787 168.465 160.525 167.512 162.425L166.48 162.111C164.631 161.548 162.598 162.508 162.006 164.344C161.405 166.206 162.45 168.19 164.317 168.758L165.687 169.175C165.56 171.183 165.78 173.228 166.375 175.221L165.015 175.943C163.292 176.859 162.649 179.008 163.598 180.719C164.533 182.407 166.713 182.959 168.419 182.052L169.667 181.389C170.992 182.993 172.571 184.316 174.312 185.331L173.893 186.698C173.324 188.562 174.391 190.534 176.275 191.075C178.133 191.609 180.066 190.462 180.63 188.616ZM194.135 170.525C194.133 170.607 194.127 170.689 194.123 170.771C194.12 170.839 194.119 170.908 194.114 170.976C194.108 171.057 194.1 171.137 194.093 171.216C194.086 171.284 194.082 171.352 194.075 171.419C194.066 171.5 194.054 171.58 194.044 171.66C194.035 171.726 194.028 171.793 194.018 171.859C194.006 171.94 193.991 172.02 193.977 172.1C193.966 172.166 193.956 172.231 193.944 172.296C193.928 172.379 193.909 172.462 193.891 172.544C193.878 172.606 193.867 172.668 193.852 172.729C193.831 172.819 193.807 172.907 193.784 172.996C193.77 173.05 193.757 173.105 193.742 173.158C193.713 173.264 193.681 173.369 193.648 173.475C193.637 173.511 193.628 173.547 193.616 173.582C193.571 173.723 193.523 173.862 193.473 174.001C193.46 174.036 193.446 174.069 193.433 174.103C193.394 174.207 193.355 174.312 193.313 174.414C193.295 174.456 193.276 174.497 193.259 174.538C193.219 174.633 193.179 174.727 193.136 174.82C193.111 174.874 193.085 174.926 193.059 174.979C193.021 175.06 192.983 175.14 192.943 175.22C192.914 175.276 192.883 175.331 192.854 175.385C192.814 175.461 192.775 175.537 192.733 175.612C192.7 175.67 192.665 175.727 192.631 175.785C192.59 175.856 192.55 175.926 192.507 175.995C192.471 176.054 192.432 176.112 192.394 176.17C192.352 176.237 192.31 176.304 192.265 176.37C192.226 176.428 192.185 176.484 192.145 176.541C192.099 176.606 192.055 176.672 192.008 176.736C191.965 176.794 191.921 176.85 191.877 176.907C191.828 176.97 191.78 177.035 191.73 177.098C191.375 177.541 190.983 177.958 190.555 178.346C190.46 178.433 190.359 178.515 190.26 178.598C190.187 178.66 190.115 178.725 190.04 178.785C189.937 178.868 189.829 178.945 189.723 179.024C189.647 179.08 189.575 179.138 189.499 179.193C189.378 179.278 189.251 179.358 189.126 179.438C189.059 179.481 188.995 179.528 188.926 179.57C188.73 179.69 188.53 179.805 188.323 179.914C188.155 180.003 187.986 180.088 187.816 180.167C187.767 180.19 187.718 180.21 187.668 180.232C187.546 180.287 187.424 180.342 187.301 180.392C187.234 180.419 187.166 180.443 187.099 180.469C186.993 180.509 186.888 180.551 186.781 180.589C186.706 180.615 186.63 180.637 186.554 180.662C186.455 180.694 186.356 180.729 186.256 180.757C186.18 180.78 186.103 180.798 186.027 180.819C185.927 180.846 185.828 180.875 185.728 180.899C185.647 180.918 185.567 180.933 185.486 180.95C185.389 180.971 185.293 180.994 185.196 181.013C185.114 181.028 185.032 181.039 184.95 181.053C184.855 181.069 184.759 181.086 184.662 181.099C184.58 181.111 184.497 181.118 184.414 181.128C184.317 181.139 184.218 181.152 184.121 181.16C183.712 181.196 183.303 181.208 182.896 181.197C182.814 181.196 182.731 181.19 182.649 181.186C182.581 181.183 182.512 181.181 182.443 181.176C182.363 181.171 182.282 181.163 182.203 181.156C182.135 181.149 182.067 181.145 181.999 181.138C181.919 181.129 181.838 181.117 181.758 181.107C181.691 181.098 181.625 181.091 181.558 181.081C181.473 181.069 181.389 181.053 181.305 181.038C181.244 181.027 181.182 181.018 181.12 181.006C181.033 180.99 180.947 180.97 180.86 180.952C180.801 180.939 180.743 180.928 180.685 180.915C180.596 180.894 180.507 180.87 180.418 180.847C180.364 180.833 180.309 180.82 180.256 180.806C180.149 180.777 180.044 180.744 179.938 180.711C179.902 180.7 179.866 180.691 179.831 180.679C179.69 180.634 179.55 180.587 179.411 180.536C179.368 180.521 179.326 180.503 179.284 180.487C179.188 180.451 179.091 180.415 178.996 180.376C178.945 180.355 178.894 180.331 178.842 180.31C178.757 180.273 178.672 180.238 178.588 180.2C178.538 180.177 178.49 180.152 178.441 180.128C178.356 180.088 178.271 180.049 178.188 180.006C178.139 179.982 178.091 179.955 178.042 179.929C177.959 179.885 177.877 179.843 177.795 179.797C177.742 179.767 177.69 179.735 177.638 179.705C177.562 179.661 177.486 179.618 177.411 179.572C177.356 179.538 177.302 179.502 177.247 179.467C177.176 179.422 177.105 179.378 177.035 179.331C176.981 179.295 176.928 179.256 176.874 179.218C176.806 179.17 176.737 179.124 176.669 179.074C176.614 179.034 176.56 178.992 176.506 178.95C176.439 178.9 176.372 178.85 176.306 178.798C176.075 178.613 175.851 178.419 175.633 178.214C175.509 178.098 175.393 177.971 175.274 177.848C175.19 177.76 175.101 177.677 175.019 177.586C174.899 177.454 174.789 177.313 174.675 177.174C174.602 177.085 174.525 177.001 174.455 176.909C174.336 176.754 174.227 176.59 174.116 176.427C174.058 176.344 173.997 176.265 173.941 176.179C173.779 175.927 173.625 175.666 173.482 175.398C173.41 175.263 173.341 175.128 173.275 174.992C173.255 174.95 173.237 174.907 173.218 174.865C173.173 174.771 173.129 174.676 173.088 174.581C173.066 174.531 173.047 174.48 173.026 174.43C172.989 174.342 172.952 174.255 172.918 174.167C172.896 174.109 172.876 174.05 172.855 173.992C172.825 173.911 172.794 173.83 172.766 173.749C172.745 173.686 172.726 173.623 172.707 173.56C172.682 173.483 172.656 173.406 172.633 173.329C172.614 173.263 172.597 173.198 172.579 173.132C172.559 173.056 172.537 172.981 172.518 172.906C172.501 172.84 172.487 172.773 172.472 172.707C172.455 172.631 172.436 172.556 172.42 172.48C172.406 172.411 172.394 172.342 172.381 172.273C172.367 172.198 172.351 172.122 172.338 172.047C172.29 171.753 172.253 171.459 172.229 171.164C172.222 171.079 172.217 170.994 172.213 170.909C172.209 170.843 172.203 170.776 172.2 170.71C172.197 170.628 172.196 170.546 172.195 170.463C172.194 170.396 172.192 170.329 172.192 170.262C172.192 170.179 172.195 170.095 172.196 170.012C172.198 169.947 172.198 169.882 172.201 169.817C172.204 169.734 172.211 169.651 172.216 169.567C172.221 169.503 172.223 169.437 172.228 169.373C172.235 169.289 172.245 169.206 172.253 169.123C172.26 169.059 172.265 168.994 172.273 168.931C172.284 168.848 172.296 168.766 172.308 168.683C172.317 168.619 172.326 168.555 172.336 168.491C172.35 168.405 172.368 168.32 172.384 168.234C172.395 168.174 172.405 168.115 172.417 168.055C172.436 167.961 172.459 167.868 172.481 167.774C172.492 167.724 172.502 167.673 172.515 167.623C172.551 167.481 172.589 167.338 172.631 167.196C172.645 167.145 172.663 167.094 172.679 167.042C172.707 166.953 172.733 166.863 172.763 166.774C172.781 166.719 172.802 166.665 172.821 166.61C172.851 166.525 172.88 166.441 172.912 166.357C172.936 166.296 172.962 166.235 172.986 166.173C173.017 166.097 173.046 166.022 173.078 165.946C173.104 165.885 173.132 165.826 173.159 165.766C173.193 165.691 173.225 165.616 173.26 165.542C173.288 165.484 173.319 165.426 173.347 165.368C173.384 165.294 173.42 165.219 173.459 165.145C173.491 165.084 173.527 165.023 173.56 164.963C173.598 164.894 173.635 164.824 173.675 164.756C173.709 164.696 173.747 164.638 173.783 164.579C173.825 164.509 173.866 164.438 173.91 164.37C174.129 164.027 174.368 163.695 174.625 163.376C174.687 163.299 174.753 163.224 174.818 163.148C174.871 163.086 174.923 163.023 174.977 162.961C175.043 162.887 175.113 162.816 175.182 162.744C175.237 162.685 175.29 162.625 175.347 162.568C175.418 162.496 175.493 162.428 175.566 162.357C175.623 162.303 175.679 162.246 175.738 162.192C175.812 162.124 175.889 162.06 175.965 161.994C176.027 161.94 176.088 161.885 176.151 161.832C176.231 161.767 176.314 161.704 176.395 161.641C176.458 161.592 176.52 161.54 176.584 161.492C176.676 161.424 176.771 161.359 176.865 161.294C176.923 161.253 176.979 161.211 177.038 161.172C177.15 161.097 177.267 161.025 177.383 160.953C177.427 160.927 177.468 160.898 177.512 160.872C177.673 160.775 177.838 160.682 178.006 160.593C178.211 160.484 178.42 160.381 178.629 160.287C178.699 160.255 178.77 160.229 178.84 160.198C178.98 160.138 179.121 160.076 179.263 160.023C179.343 159.992 179.424 159.967 179.505 159.939C179.638 159.892 179.77 159.843 179.904 159.802C179.994 159.773 180.085 159.752 180.175 159.726C180.303 159.69 180.429 159.651 180.557 159.62C181.118 159.482 181.684 159.391 182.25 159.344C182.331 159.337 182.412 159.333 182.494 159.328C182.565 159.324 182.636 159.319 182.707 159.316C182.787 159.312 182.867 159.312 182.947 159.311C183.016 159.309 183.085 159.306 183.154 159.306C183.235 159.306 183.316 159.309 183.396 159.311C183.464 159.312 183.533 159.312 183.601 159.316C183.686 159.319 183.77 159.325 183.854 159.331C183.918 159.335 183.983 159.338 184.046 159.343C184.133 159.35 184.22 159.36 184.307 159.369C184.367 159.375 184.428 159.38 184.489 159.388C184.578 159.399 184.667 159.413 184.757 159.426C184.814 159.434 184.872 159.441 184.929 159.45C185.023 159.466 185.115 159.484 185.207 159.502C185.26 159.511 185.313 159.52 185.366 159.531C185.461 159.55 185.554 159.573 185.648 159.595C185.699 159.606 185.749 159.616 185.799 159.629C185.943 159.665 186.086 159.703 186.228 159.744C186.259 159.754 186.29 159.764 186.321 159.773C186.431 159.807 186.542 159.84 186.651 159.876C186.707 159.895 186.761 159.916 186.816 159.935C186.9 159.964 186.985 159.993 187.069 160.025C187.131 160.049 187.192 160.075 187.254 160.099C187.33 160.129 187.406 160.159 187.481 160.19C187.542 160.216 187.601 160.245 187.662 160.272C187.737 160.305 187.812 160.338 187.887 160.373C187.946 160.401 188.004 160.431 188.063 160.461C188.137 160.498 188.211 160.533 188.284 160.572C188.346 160.604 188.407 160.64 188.469 160.674C188.537 160.712 188.606 160.748 188.674 160.787C188.736 160.823 188.797 160.861 188.859 160.899C188.927 160.94 188.995 160.979 189.061 161.022C189.641 161.389 190.188 161.813 190.696 162.291C190.817 162.405 190.931 162.53 191.047 162.65C191.134 162.74 191.226 162.826 191.31 162.919C191.428 163.049 191.538 163.189 191.65 163.327C191.724 163.417 191.803 163.503 191.874 163.596C191.995 163.755 192.108 163.924 192.222 164.091C192.276 164.171 192.335 164.245 192.387 164.326C192.549 164.578 192.702 164.839 192.846 165.108C192.918 165.242 192.987 165.378 193.053 165.514C193.074 165.558 193.093 165.604 193.114 165.649C193.157 165.741 193.2 165.832 193.24 165.924C193.264 165.978 193.284 166.032 193.306 166.086C193.342 166.17 193.377 166.254 193.41 166.339C193.434 166.4 193.455 166.462 193.477 166.524C193.505 166.601 193.535 166.678 193.561 166.757C193.583 166.821 193.602 166.887 193.623 166.951C193.647 167.027 193.672 167.102 193.694 167.178C193.713 167.241 193.729 167.304 193.746 167.367C193.768 167.445 193.79 167.523 193.81 167.601C193.826 167.667 193.84 167.732 193.855 167.798C193.873 167.874 193.891 167.95 193.907 168.026C193.921 168.093 193.933 168.159 193.945 168.226C193.96 168.304 193.976 168.382 193.989 168.46C194.106 169.15 194.152 169.84 194.135 170.525Z" fill="url(#paint0_linear_1_2842)" stroke="white" stroke-miterlimit="10"/>
<path d="M179.092 189.79L179.406 188.76C181.519 189.032 183.692 188.922 185.82 188.397L186.206 189.12C187.035 190.672 188.884 191.466 190.539 190.858C191.64 190.453 192.392 189.59 192.698 188.59C192.959 187.734 192.894 186.78 192.439 185.928L192.155 185.396C194.049 183.978 195.591 182.225 196.739 180.265L196.934 180.324C198.62 180.837 200.489 180.095 201.229 178.498C201.722 177.435 201.642 176.294 201.149 175.37C200.728 174.581 200.005 173.952 199.079 173.671L199 173.647C199.305 171.28 199.128 168.835 198.421 166.465C200.098 165.546 200.728 163.45 199.825 161.76C199.371 160.908 198.614 160.322 197.756 160.061C196.912 159.804 195.972 159.863 195.129 160.298C193.552 158.39 191.617 156.879 189.478 155.811L189.49 155.771C189.94 154.298 189.421 152.658 188.127 151.817C186.934 151.042 185.574 151.061 184.506 151.629C183.715 152.049 183.085 152.77 182.802 153.693L182.712 153.99C180.441 153.847 178.122 154.145 175.886 154.923L175.661 154.501C174.752 152.798 172.635 152.043 170.914 152.923C169.17 153.815 168.502 155.956 169.419 157.675L169.855 158.492C168.232 159.961 166.926 161.699 165.974 163.599L164.942 163.285C163.092 162.722 161.059 163.681 160.467 165.518C159.867 167.379 160.911 169.363 162.779 169.932L164.149 170.349C164.022 172.357 164.242 174.402 164.836 176.395L163.478 177.117C161.754 178.033 161.111 180.181 162.06 181.892C162.995 183.581 165.175 184.133 166.882 183.226L168.129 182.563C169.454 184.167 171.034 185.49 172.774 186.505L172.356 187.872C171.786 189.736 172.854 191.707 174.737 192.249C176.595 192.783 178.527 191.636 179.092 189.79ZM192.596 171.699C192.594 171.781 192.589 171.863 192.585 171.945C192.582 172.013 192.58 172.082 192.575 172.151C192.57 172.231 192.562 172.311 192.554 172.39C192.548 172.458 192.544 172.526 192.536 172.594C192.528 172.674 192.516 172.754 192.506 172.834C192.497 172.901 192.489 172.967 192.48 173.034C192.467 173.114 192.452 173.195 192.439 173.275C192.428 173.341 192.418 173.406 192.405 173.471C192.389 173.554 192.371 173.637 192.353 173.719C192.34 173.781 192.328 173.843 192.313 173.904C192.292 173.994 192.268 174.082 192.246 174.171C192.231 174.225 192.219 174.28 192.204 174.333C192.174 174.439 192.142 174.544 192.11 174.65C192.099 174.686 192.089 174.721 192.078 174.757C192.032 174.897 191.985 175.037 191.934 175.176C191.922 175.21 191.908 175.244 191.895 175.278C191.856 175.382 191.816 175.487 191.774 175.589C191.757 175.631 191.738 175.672 191.721 175.713C191.68 175.808 191.64 175.902 191.598 175.995C191.573 176.049 191.546 176.101 191.521 176.154C191.483 176.235 191.445 176.315 191.404 176.395C191.376 176.451 191.345 176.506 191.315 176.56C191.275 176.636 191.236 176.712 191.194 176.787C191.162 176.845 191.126 176.902 191.093 176.96C191.052 177.031 191.012 177.101 190.969 177.17C190.933 177.229 190.894 177.287 190.856 177.345C190.813 177.412 190.771 177.479 190.727 177.545C190.688 177.603 190.647 177.659 190.607 177.716C190.561 177.781 190.516 177.847 190.469 177.911C190.427 177.969 190.382 178.025 190.338 178.082C190.29 178.145 190.242 178.21 190.192 178.273C189.836 178.716 189.444 179.133 189.017 179.521C188.922 179.608 188.821 179.689 188.722 179.773C188.648 179.835 188.577 179.9 188.502 179.96C188.399 180.043 188.291 180.12 188.184 180.199C188.108 180.255 188.036 180.313 187.96 180.367C187.839 180.453 187.712 180.533 187.587 180.613C187.52 180.656 187.456 180.703 187.387 180.745C187.191 180.865 186.991 180.98 186.784 181.089C186.616 181.178 186.447 181.263 186.277 181.342C186.228 181.365 186.179 181.385 186.129 181.407C186.008 181.462 185.885 181.517 185.762 181.567C185.695 181.594 185.628 181.618 185.56 181.643C185.454 181.684 185.349 181.726 185.242 181.764C185.167 181.79 185.091 181.812 185.015 181.837C184.916 181.869 184.817 181.904 184.717 181.932C184.642 181.955 184.564 181.973 184.488 181.994C184.388 182.021 184.289 182.05 184.189 182.074C184.109 182.093 184.028 182.108 183.947 182.125C183.85 182.146 183.754 182.169 183.657 182.188C183.576 182.203 183.493 182.214 183.411 182.228C183.316 182.244 183.22 182.261 183.124 182.274C183.041 182.285 182.958 182.293 182.875 182.303C182.778 182.314 182.68 182.327 182.582 182.335C182.173 182.371 181.764 182.383 181.357 182.372C181.275 182.371 181.192 182.365 181.11 182.361C181.042 182.358 180.973 182.356 180.905 182.351C180.824 182.346 180.744 182.338 180.664 182.33C180.596 182.324 180.529 182.32 180.461 182.313C180.38 182.304 180.3 182.292 180.22 182.282C180.153 182.273 180.086 182.266 180.02 182.256C179.935 182.244 179.85 182.228 179.767 182.213C179.705 182.202 179.644 182.193 179.582 182.181C179.495 182.165 179.408 182.145 179.321 182.127C179.263 182.114 179.205 182.103 179.147 182.09C179.058 182.069 178.969 182.045 178.88 182.022C178.825 182.008 178.771 181.995 178.717 181.981C178.611 181.951 178.505 181.919 178.4 181.886C178.364 181.875 178.328 181.866 178.292 181.854C178.152 181.809 178.011 181.762 177.872 181.711C177.83 181.696 177.788 181.678 177.745 181.662C177.65 181.626 177.553 181.59 177.458 181.551C177.406 181.53 177.356 181.506 177.304 181.485C177.219 181.448 177.134 181.413 177.05 181.375C177 181.352 176.952 181.327 176.902 181.303C176.818 181.263 176.733 181.224 176.65 181.181C176.601 181.157 176.553 181.13 176.504 181.104C176.421 181.06 176.338 181.018 176.257 180.972C176.204 180.942 176.152 180.91 176.099 180.88C176.023 180.836 175.948 180.793 175.872 180.747C175.817 180.713 175.763 180.677 175.709 180.642C175.637 180.597 175.566 180.553 175.496 180.506C175.442 180.47 175.389 180.431 175.336 180.393C175.267 180.345 175.198 180.298 175.13 180.249C175.075 180.209 175.021 180.167 174.967 180.125C174.9 180.075 174.833 180.025 174.767 179.973C174.536 179.788 174.312 179.594 174.094 179.389C173.97 179.273 173.854 179.146 173.735 179.022C173.651 178.935 173.562 178.852 173.48 178.761C173.361 178.629 173.25 178.488 173.136 178.349C173.064 178.26 172.986 178.176 172.916 178.084C172.797 177.929 172.688 177.765 172.577 177.602C172.519 177.519 172.458 177.44 172.402 177.354C172.24 177.102 172.087 176.841 171.943 176.573C171.871 176.438 171.802 176.303 171.736 176.167C171.716 176.125 171.698 176.082 171.679 176.04C171.634 175.946 171.59 175.851 171.549 175.756C171.527 175.706 171.508 175.655 171.487 175.605C171.45 175.517 171.413 175.43 171.379 175.342C171.357 175.284 171.337 175.225 171.316 175.167C171.286 175.086 171.255 175.005 171.228 174.924C171.206 174.861 171.187 174.798 171.168 174.735C171.143 174.658 171.117 174.581 171.094 174.504C171.075 174.438 171.058 174.373 171.04 174.307C171.02 174.231 170.998 174.156 170.979 174.081C170.962 174.015 170.948 173.948 170.933 173.882C170.916 173.806 170.897 173.731 170.881 173.655C170.867 173.586 170.855 173.517 170.842 173.448C170.828 173.373 170.813 173.297 170.8 173.222C170.751 172.928 170.714 172.634 170.69 172.34C170.683 172.255 170.679 172.17 170.674 172.085C170.67 172.018 170.664 171.952 170.661 171.885C170.658 171.803 170.658 171.721 170.656 171.639C170.655 171.572 170.653 171.505 170.653 171.438C170.653 171.354 170.656 171.271 170.658 171.188C170.659 171.122 170.659 171.058 170.662 170.992C170.665 170.909 170.672 170.826 170.677 170.743C170.682 170.678 170.684 170.613 170.689 170.548C170.696 170.465 170.706 170.382 170.714 170.299C170.721 170.235 170.726 170.171 170.734 170.106C170.744 170.024 170.758 169.941 170.769 169.859C170.779 169.795 170.787 169.731 170.797 169.667C170.811 169.58 170.829 169.495 170.845 169.41C170.856 169.35 170.866 169.29 170.878 169.231C170.897 169.137 170.92 169.044 170.942 168.95C170.953 168.899 170.963 168.849 170.976 168.799C171.012 168.656 171.05 168.514 171.092 168.372C171.106 168.32 171.124 168.269 171.14 168.218C171.168 168.129 171.194 168.039 171.224 167.95C171.242 167.895 171.263 167.84 171.282 167.786C171.312 167.701 171.341 167.617 171.373 167.533C171.397 167.471 171.423 167.41 171.447 167.349C171.478 167.273 171.507 167.197 171.539 167.122C171.565 167.061 171.593 167.002 171.62 166.941C171.654 166.867 171.686 166.792 171.722 166.717C171.749 166.659 171.78 166.602 171.808 166.544C171.845 166.469 171.882 166.394 171.92 166.32C171.953 166.259 171.988 166.199 172.021 166.139C172.059 166.07 172.096 166 172.136 165.932C172.171 165.872 172.208 165.813 172.244 165.754C172.286 165.685 172.327 165.614 172.371 165.545C172.59 165.203 172.829 164.871 173.086 164.551C173.148 164.474 173.214 164.4 173.279 164.324C173.332 164.262 173.384 164.198 173.438 164.137C173.504 164.063 173.574 163.991 173.643 163.919C173.698 163.861 173.751 163.801 173.808 163.744C173.879 163.672 173.954 163.603 174.027 163.533C174.084 163.478 174.141 163.421 174.199 163.367C174.273 163.299 174.351 163.235 174.426 163.169C174.488 163.116 174.549 163.06 174.612 163.008C174.692 162.942 174.775 162.88 174.856 162.816C174.919 162.767 174.981 162.716 175.045 162.668C175.137 162.6 175.232 162.535 175.326 162.47C175.384 162.429 175.44 162.387 175.499 162.348C175.612 162.272 175.728 162.201 175.844 162.129C175.888 162.102 175.929 162.073 175.973 162.048C176.134 161.951 176.299 161.858 176.467 161.768C176.673 161.659 176.881 161.557 177.09 161.462C177.16 161.43 177.231 161.404 177.301 161.373C177.441 161.313 177.582 161.251 177.724 161.198C177.804 161.167 177.885 161.142 177.966 161.114C178.099 161.067 178.231 161.018 178.365 160.977C178.455 160.948 178.546 160.927 178.636 160.901C178.764 160.865 178.89 160.826 179.018 160.795C179.579 160.657 180.145 160.566 180.711 160.519C180.792 160.512 180.873 160.508 180.955 160.504C181.026 160.499 181.097 160.494 181.168 160.491C181.248 160.487 181.328 160.487 181.408 160.486C181.477 160.484 181.546 160.481 181.615 160.481C181.696 160.481 181.777 160.484 181.857 160.486C181.925 160.487 181.994 160.487 182.063 160.491C182.147 160.494 182.231 160.5 182.315 160.506C182.379 160.51 182.444 160.513 182.507 160.518C182.594 160.525 182.681 160.535 182.768 160.544C182.828 160.55 182.889 160.555 182.95 160.563C183.04 160.574 183.128 160.588 183.218 160.601C183.275 160.609 183.333 160.616 183.39 160.625C183.484 160.641 183.576 160.659 183.668 160.677C183.721 160.687 183.774 160.695 183.828 160.706C183.922 160.725 184.015 160.748 184.109 160.77C184.16 160.781 184.21 160.791 184.26 160.804C184.404 160.84 184.547 160.878 184.689 160.919C184.72 160.929 184.751 160.939 184.782 160.948C184.892 160.982 185.003 161.015 185.112 161.051C185.168 161.07 185.222 161.091 185.277 161.11C185.362 161.139 185.446 161.168 185.53 161.2C185.592 161.224 185.653 161.25 185.715 161.274C185.791 161.304 185.867 161.334 185.942 161.365C186.003 161.391 186.063 161.42 186.123 161.447C186.198 161.48 186.273 161.513 186.348 161.548C186.407 161.576 186.465 161.606 186.524 161.636C186.598 161.673 186.672 161.708 186.745 161.746C186.807 161.779 186.868 161.815 186.93 161.849C186.998 161.886 187.067 161.922 187.135 161.961C187.197 161.998 187.258 162.036 187.32 162.073C187.388 162.114 187.456 162.153 187.522 162.196C188.102 162.564 188.649 162.988 189.157 163.466C189.278 163.58 189.392 163.704 189.508 163.824C189.596 163.914 189.687 164 189.772 164.093C189.89 164.224 189.999 164.364 190.111 164.501C190.185 164.592 190.264 164.677 190.335 164.77C190.456 164.929 190.569 165.098 190.683 165.266C190.737 165.345 190.796 165.419 190.848 165.5C191.01 165.752 191.164 166.013 191.307 166.282C191.379 166.416 191.448 166.552 191.514 166.688C191.535 166.733 191.554 166.778 191.575 166.823C191.618 166.915 191.661 167.006 191.701 167.099C191.725 167.152 191.745 167.206 191.768 167.26C191.803 167.344 191.839 167.428 191.871 167.513C191.895 167.575 191.916 167.636 191.938 167.698C191.966 167.776 191.996 167.853 192.022 167.931C192.044 167.996 192.063 168.061 192.084 168.126C192.108 168.201 192.133 168.277 192.155 168.352C192.174 168.415 192.19 168.478 192.207 168.542C192.229 168.62 192.251 168.697 192.271 168.776C192.288 168.841 192.301 168.906 192.316 168.972C192.334 169.049 192.352 169.124 192.368 169.201C192.382 169.267 192.394 169.334 192.406 169.4C192.421 169.479 192.437 169.556 192.45 169.635C192.567 170.324 192.614 171.013 192.596 171.699Z" fill="url(#paint1_linear_1_2842)" stroke="white" stroke-miterlimit="10"/>
<path d="M206.232 158.449L206.38 157.963C207.376 158.091 208.401 158.039 209.404 157.792L209.585 158.133C209.976 158.865 210.847 159.239 211.627 158.952C212.146 158.761 212.501 158.354 212.645 157.883C212.768 157.48 212.737 157.03 212.523 156.628L212.389 156.377C213.282 155.709 214.009 154.883 214.55 153.958L214.642 153.986C215.437 154.228 216.318 153.878 216.667 153.125C216.9 152.624 216.862 152.086 216.63 151.65C216.431 151.278 216.091 150.982 215.654 150.849L215.616 150.838C215.76 149.722 215.677 148.569 215.343 147.451C216.134 147.018 216.431 146.03 216.005 145.234C215.791 144.832 215.434 144.556 215.03 144.432C214.631 144.312 214.188 144.339 213.791 144.545C213.048 143.645 212.136 142.933 211.127 142.429L211.133 142.411C211.345 141.716 211.1 140.943 210.491 140.547C209.928 140.182 209.287 140.191 208.784 140.458C208.411 140.657 208.114 140.996 207.981 141.432L207.938 141.572C206.868 141.505 205.774 141.645 204.72 142.011L204.614 141.812C204.185 141.009 203.187 140.653 202.376 141.068C201.554 141.489 201.238 142.498 201.671 143.308L201.877 143.693C201.111 144.386 200.496 145.205 200.047 146.101L199.56 145.953C198.688 145.687 197.73 146.14 197.451 147.006C197.168 147.883 197.66 148.819 198.541 149.087L199.187 149.283C199.127 150.23 199.231 151.194 199.51 152.133L198.87 152.474C198.057 152.906 197.755 153.919 198.202 154.725C198.643 155.521 199.67 155.781 200.475 155.354L201.063 155.042C201.688 155.798 202.432 156.422 203.253 156.9L203.056 157.544C202.787 158.423 203.29 159.353 204.178 159.608C205.055 159.86 205.966 159.319 206.232 158.449ZM212.599 149.92C212.597 150.003 212.588 150.086 212.582 150.169C212.578 150.226 212.577 150.284 212.57 150.341C212.561 150.425 212.546 150.508 212.533 150.591C212.525 150.646 212.519 150.701 212.509 150.755C212.491 150.849 212.467 150.942 212.443 151.035C212.433 151.077 212.425 151.12 212.414 151.162C212.377 151.296 212.334 151.429 212.286 151.559C212.281 151.573 212.275 151.587 212.269 151.601C212.225 151.718 212.18 151.833 212.128 151.945C212.107 151.99 212.082 152.034 212.06 152.079C212.02 152.159 211.981 152.24 211.937 152.319C211.907 152.372 211.873 152.424 211.84 152.477C211.799 152.544 211.761 152.612 211.717 152.677C211.681 152.731 211.639 152.783 211.6 152.836C211.555 152.897 211.513 152.96 211.464 153.02C211.297 153.229 211.112 153.426 210.91 153.608C210.867 153.648 210.82 153.687 210.774 153.725C210.738 153.755 210.704 153.786 210.668 153.815C210.62 153.854 210.57 153.889 210.521 153.926C210.485 153.953 210.45 153.981 210.413 154.008C210.359 154.045 210.303 154.081 210.247 154.117C210.212 154.139 210.179 154.164 210.143 154.185C210.051 154.242 209.956 154.296 209.859 154.348C209.701 154.432 209.539 154.507 209.377 154.573C209.325 154.594 209.272 154.609 209.22 154.628C209.108 154.669 208.997 154.712 208.884 154.745C208.818 154.765 208.75 154.777 208.683 154.794C208.584 154.819 208.485 154.847 208.385 154.865C208.311 154.879 208.237 154.885 208.163 154.896C208.068 154.91 207.973 154.927 207.878 154.935C207.685 154.952 207.492 154.957 207.3 154.952C207.216 154.95 207.133 154.942 207.05 154.936C206.993 154.931 206.935 154.93 206.878 154.924C206.793 154.915 206.71 154.9 206.626 154.886C206.572 154.878 206.517 154.872 206.463 154.862C206.368 154.844 206.274 154.82 206.18 154.797C206.139 154.786 206.097 154.779 206.055 154.768C205.921 154.731 205.788 154.688 205.657 154.641C205.64 154.635 205.624 154.627 205.607 154.621C205.493 154.578 205.38 154.533 205.27 154.483C205.22 154.461 205.173 154.433 205.125 154.409C205.049 154.371 204.971 154.335 204.896 154.293C204.847 154.265 204.799 154.233 204.751 154.204C204.679 154.16 204.607 154.119 204.538 154.073C204.488 154.04 204.442 154.002 204.393 153.968C204.327 153.92 204.259 153.873 204.194 153.822C204.085 153.735 203.979 153.643 203.877 153.547C203.82 153.493 203.767 153.435 203.712 153.379C203.671 153.336 203.628 153.295 203.587 153.251C203.534 153.192 203.484 153.128 203.433 153.066C203.396 153.021 203.358 152.978 203.322 152.932C203.263 152.855 203.208 152.774 203.153 152.693C203.129 152.658 203.103 152.624 203.08 152.588C203.003 152.469 202.931 152.347 202.863 152.22C202.795 152.093 202.733 151.965 202.677 151.835C202.657 151.79 202.643 151.744 202.625 151.698C202.591 151.613 202.555 151.528 202.526 151.442C202.509 151.39 202.496 151.338 202.48 151.286C202.455 151.205 202.43 151.125 202.409 151.044C202.395 150.988 202.386 150.931 202.374 150.875C202.357 150.796 202.338 150.718 202.325 150.639C202.302 150.501 202.285 150.362 202.273 150.223C202.267 150.142 202.266 150.061 202.263 149.981C202.262 149.92 202.256 149.859 202.256 149.798C202.256 149.716 202.262 149.634 202.266 149.551C202.268 149.494 202.268 149.436 202.273 149.379C202.281 149.288 202.294 149.199 202.306 149.109C202.313 149.061 202.316 149.012 202.324 148.963C202.345 148.834 202.372 148.706 202.403 148.578C202.405 148.57 202.406 148.562 202.408 148.554C202.441 148.419 202.48 148.286 202.525 148.153C202.536 148.119 202.551 148.087 202.562 148.053C202.598 147.956 202.632 147.858 202.673 147.763C202.693 147.715 202.717 147.67 202.739 147.623C202.776 147.543 202.812 147.463 202.853 147.385C202.88 147.334 202.911 147.285 202.94 147.235C202.981 147.162 203.02 147.089 203.065 147.019C203.168 146.857 203.281 146.701 203.402 146.551C203.463 146.475 203.531 146.404 203.597 146.332C203.646 146.278 203.691 146.222 203.742 146.17C203.813 146.099 203.89 146.034 203.965 145.967C204.017 145.919 204.067 145.869 204.121 145.824C204.207 145.752 204.301 145.687 204.393 145.621C204.443 145.585 204.488 145.546 204.539 145.512C204.685 145.415 204.837 145.324 204.996 145.24C205.092 145.188 205.191 145.14 205.289 145.095C205.329 145.077 205.37 145.062 205.41 145.045C205.469 145.02 205.528 144.994 205.587 144.971C205.628 144.955 205.67 144.942 205.712 144.928C205.771 144.907 205.83 144.885 205.89 144.867C205.935 144.853 205.982 144.842 206.027 144.829C206.084 144.813 206.14 144.795 206.197 144.781C206.462 144.716 206.728 144.673 206.996 144.651C207.079 144.644 207.162 144.644 207.245 144.641C207.304 144.639 207.363 144.633 207.422 144.633C207.507 144.633 207.592 144.639 207.676 144.644C207.732 144.646 207.787 144.646 207.842 144.651C207.928 144.657 208.012 144.67 208.096 144.681C208.15 144.689 208.205 144.692 208.259 144.701C208.366 144.719 208.473 144.742 208.579 144.766C208.608 144.773 208.638 144.777 208.668 144.785C208.803 144.818 208.937 144.857 209.07 144.901C209.115 144.917 209.159 144.936 209.204 144.952C209.29 144.984 209.376 145.014 209.46 145.05C209.512 145.071 209.561 145.098 209.612 145.121C209.688 145.156 209.765 145.19 209.839 145.229C209.891 145.256 209.941 145.288 209.992 145.317C210.063 145.358 210.135 145.397 210.205 145.441C210.479 145.614 210.736 145.814 210.976 146.04C211.03 146.091 211.081 146.147 211.133 146.201C211.177 146.246 211.223 146.289 211.266 146.336C211.32 146.395 211.37 146.46 211.422 146.523C211.458 146.567 211.497 146.609 211.531 146.655C211.592 146.734 211.647 146.817 211.703 146.899C211.726 146.933 211.751 146.964 211.773 146.999C211.85 147.117 211.922 147.24 211.99 147.367C212.058 147.494 212.12 147.622 212.176 147.752C212.196 147.798 212.212 147.846 212.23 147.893C212.264 147.976 212.299 148.06 212.327 148.145C212.345 148.198 212.358 148.251 212.374 148.305C212.398 148.384 212.424 148.463 212.444 148.543C212.458 148.599 212.467 148.655 212.479 148.712C212.496 148.79 212.515 148.869 212.528 148.947C212.585 149.271 212.607 149.597 212.599 149.92Z" fill="url(#paint2_linear_1_2842)" stroke="white" stroke-miterlimit="10"/>
<path d="M159.745 147.902H90.2698C85.7711 147.902 82.6153 143.882 83.2199 138.922L97.036 25.6358C97.6405 20.6766 101.778 16.6557 106.276 16.6557H175.751C180.25 16.6557 183.405 20.6758 182.801 25.6358L168.985 138.922C168.38 143.882 164.243 147.902 159.745 147.902Z" fill="#3A6BE8" stroke="#00063A" stroke-miterlimit="10"/>
<path d="M165.953 88.6747H96.5457L104.015 27.7755H173.422L165.953 88.6747Z" fill="white" stroke="#00063A" stroke-width="2" stroke-miterlimit="10"/>
<path d="M158.556 121.262H98.5011C95.896 121.262 94.0432 119.153 94.3625 116.551L94.9481 111.778C95.2675 109.176 97.6376 107.067 100.243 107.067H160.297C162.902 107.067 164.755 109.176 164.436 111.778L163.85 116.551C163.531 119.152 161.161 121.262 158.556 121.262Z" fill="white" stroke="#00063A" stroke-width="0.5" stroke-miterlimit="10"/>
<path d="M136.488 144.062H112.494C110.187 144.062 108.545 141.58 108.828 138.518C109.111 135.456 111.21 132.974 113.517 132.974H137.512C139.819 132.974 141.46 135.456 141.177 138.518C140.895 141.58 138.795 144.062 136.488 144.062Z" fill="#6FD22A"/>
<path d="M105.098 111.881C104.996 112.714 104.535 113.462 103.89 113.97C103.35 114.396 102.68 114.654 101.982 114.654C101.283 114.654 100.677 114.396 100.24 113.97C99.7196 113.462 99.4432 112.714 99.545 111.881C99.7327 110.349 101.128 109.107 102.662 109.107C104.195 109.107 105.285 110.349 105.098 111.881Z" fill="black"/>
<path d="M105.912 117.889H97.2578C97.4447 116.363 98.4006 115.023 99.6897 114.254C100.219 114.846 101.001 115.212 101.913 115.212C102.824 115.212 103.696 114.846 104.371 114.254C105.471 115.023 106.099 116.363 105.912 117.889Z" fill="black"/>
<path d="M150.722 55.3466C150.157 59.9582 147.609 64.0988 144.037 66.9105C141.05 69.2657 137.339 70.6933 133.475 70.6933C129.607 70.6933 126.25 69.265 123.837 66.9105C120.954 64.0988 119.423 59.9575 119.988 55.3466C121.029 46.8672 128.751 39.9948 137.24 39.9948C145.725 39.9948 151.762 46.8672 150.722 55.3466Z" fill="#3A6BE8"/>
<path d="M155.226 88.0316H107.331C108.367 79.3403 113.656 72.4417 120.793 68.4862C123.725 71.5338 128.049 73.4157 133.096 73.4157C138.142 73.4157 142.962 71.5338 146.699 68.4862C152.788 72.4417 156.262 79.3403 155.226 88.0316Z" fill="#3A6BE8"/>
<path d="M154.552 115.594H115.447C114.289 115.594 113.464 114.655 113.606 113.498C113.748 112.34 114.803 111.402 115.962 111.402H155.065C156.224 111.402 157.048 112.34 156.907 113.498C156.765 114.655 155.711 115.594 154.552 115.594Z" fill="#C6C6C6"/>
<path d="M119.851 139.935L119.792 140.409H118.179L118.563 137.28H119.074L118.749 139.935H119.851Z" fill="#FEFEFE"/>
<path d="M120.234 138.845C120.343 137.958 121.152 137.239 122.039 137.239C122.926 137.239 123.559 137.958 123.45 138.845C123.341 139.731 122.532 140.45 121.645 140.45C120.758 140.451 120.126 139.731 120.234 138.845ZM122.944 138.845C123.02 138.224 122.598 137.745 121.977 137.745C121.362 137.745 120.817 138.224 120.741 138.845C120.665 139.465 121.092 139.945 121.708 139.945C122.329 139.945 122.868 139.465 122.944 138.845Z" fill="#FEFEFE"/>
<path d="M127.14 138.72L127.125 138.845C127.016 139.731 126.207 140.45 125.32 140.45C124.428 140.45 123.801 139.731 123.909 138.845C124.018 137.958 124.822 137.239 125.714 137.239C126.32 137.239 126.81 137.578 127.021 138.078L126.553 138.313C126.408 137.969 126.075 137.745 125.652 137.745C125.031 137.745 124.487 138.224 124.411 138.845C124.334 139.465 124.761 139.945 125.382 139.945C125.894 139.945 126.357 139.616 126.54 139.147H125.475L125.527 138.719H127.14V138.72Z" fill="#FEFEFE"/>
<path d="M127.917 137.281H128.428L128.045 140.41H127.533L127.917 137.281Z" fill="#FEFEFE"/>
<path d="M131.895 137.281L131.511 140.41H131L129.552 138.084L129.267 140.41H128.755L129.139 137.281H129.65L131.104 139.601L131.389 137.281H131.895Z" fill="#FEFEFE"/>
<path d="M114.58 2.25684H71.2137V44.8975H114.58V2.25684Z" fill="white" stroke="#00063A" stroke-width="3" stroke-miterlimit="10"/>
<path d="M110.318 44.8975H98.1721C98.1438 40.5428 101.02 36.1866 101.02 36.1866C104.677 37.6454 107.837 41.172 110.318 44.8975Z" fill="#3380F5"/>
<path d="M101.261 44.8975H76.4268C76.7949 41.3005 77.4394 38.6231 78.503 37.8936C78.5124 37.8871 78.5204 37.8813 78.5299 37.8762C78.9256 37.6062 79.3439 37.3595 79.7804 37.1359C81.6216 36.1938 83.7931 35.6473 86.0344 35.3614H86.0359C86.703 35.2757 87.373 35.2133 88.0459 35.1705C90.4822 35.0159 92.9083 35.1175 94.991 35.3077C95.8567 35.386 96.6628 35.4797 97.3866 35.5747C99.5865 35.8687 101.02 36.1851 101.02 36.1851L101.261 44.8975Z" fill="#3380F5"/>
<path d="M84.2717 44.8975H72.0247C74.146 41.4064 76.4383 38.7529 78.5298 37.8769C79.4973 37.4705 80.4226 37.4458 81.268 37.8943C83.8352 39.2574 84.5598 41.8593 84.2717 44.8975Z" fill="#3380F5"/>
<path d="M89.0607 39.7429C86.7124 39.4309 74.9711 37.088 72.7792 31.3086C70.5873 25.5291 90.9397 24.124 97.3581 35.5261C101.399 42.7027 89.0607 39.7429 89.0607 39.7429Z" fill="black"/>
<path d="M87.8488 36.5197C87.8488 36.5197 89.3248 27.287 88.4453 24.0993C87.5658 20.911 89.6267 14.1888 89.6267 14.1888L97.0367 15.4102L98.4305 26.7688L95.6894 30.5552L94.6906 37.35C94.6913 37.35 91.5261 38.3262 87.8488 36.5197Z" fill="white" stroke="black" stroke-miterlimit="10"/>
<path d="M86.3101 16.0794C85.0923 16.5969 84.5591 18.0267 85.1425 19.2119C86.1006 21.1592 88.4285 22.8031 88.5231 23.9273C89.0156 29.8069 97.9859 35.7663 99.4671 26.681C99.7952 24.6662 97.6884 21.5743 97.6884 21.5743C97.6884 21.5743 92.0491 24.0253 90.4654 20.9821C88.8817 17.9389 89.5393 17.044 89.5393 17.044C89.5393 17.044 96.5557 17.523 98.3184 15.2194C99.4089 13.7939 99.4009 9.97992 99.4009 9.97992C99.4009 9.97992 88.9836 9.33325 87.3067 11.8757C86.2978 13.4064 86.3101 16.0794 86.3101 16.0794Z" fill="black"/>
<path d="M98.0682 23.1529C96.4234 27.3203 93.0028 23.9585 93.0028 23.9585L98.0682 23.1529Z" fill="#FEFEFE"/>
<path d="M88.4176 19.6372C88.4176 19.6372 86.113 18.3047 85.3157 19.5552C84.5184 20.8058 87.7628 22.5136 88.9864 22.2617L88.4176 19.6372Z" fill="white" stroke="black" stroke-miterlimit="10"/>
<path d="M81.0767 31.3086C81.0767 31.3086 86.556 38.025 94.6971 37.5561" stroke="white" stroke-miterlimit="10"/>
<path d="M55.149 185.995L54.4412 197.649H76.7403C76.7403 197.649 78.5103 192.175 71.4312 190.939C64.3522 189.703 63.1133 184.406 63.1133 184.406L55.149 185.995Z" fill="white" stroke="black" stroke-miterlimit="10"/>
<path d="M7.47291 179.026L0.871849 188.667L20.0123 200.082C20.0123 200.082 24.3466 196.29 18.9058 191.605C13.4651 186.92 15.1259 181.739 15.1259 181.739L7.47291 179.026Z" fill="white" stroke="black" stroke-miterlimit="10"/>
<path d="M22.6421 91.6119C12.3287 121.908 34.6744 138.104 5.26939 179.491L15.9574 184.406C32.3821 166.876 38.3023 146.869 41.549 122.48C45.3594 131.055 54.0571 189.766 53.2758 188.79L66.9492 187.903C66.9492 187.903 61.977 114.2 50.6118 95.4201L22.6421 91.6119Z" fill="black"/>
<path d="M52.7965 53.6417C64.0417 58.1292 71.4313 78.6443 71.4313 78.6443L77.2146 50.7567H86.2105C86.2105 50.7567 84.4435 88.9018 73.3591 92.5881C62.2746 96.2744 56.0097 74.6372 51.9933 70.7913C45.5494 64.6192 52.7965 53.6417 52.7965 53.6417Z" fill="#3380F5" stroke="black" stroke-miterlimit="10"/>
<path d="M23.0779 100.121H54.0819L52.7964 53.6417C52.7964 53.6417 34.3318 49.5483 25.3265 55.7255C20.1862 59.2513 23.0779 100.121 23.0779 100.121Z" fill="#3381F5" stroke="black" stroke-miterlimit="10"/>
<path d="M28.7004 55.7254C20.1607 51.1886 4.9253 86.3376 8.62011 96.4347C12.3149 106.532 61.3114 93.5497 61.3114 93.5497V87.1389L22.4355 86.8181C22.4348 86.8181 39.8722 61.6609 28.7004 55.7254Z" fill="#3381F5" stroke="black" stroke-miterlimit="10"/>
<path d="M38.207 57.9812C35.3422 57.6002 21.0184 54.7421 18.3449 47.6918C15.6715 40.6415 40.4993 38.9265 48.3297 52.8361C53.2583 61.5913 38.207 57.9812 38.207 57.9812Z" fill="black"/>
<path d="M44.2232 58.7926C43.762 58.7926 43.271 58.7745 42.7494 58.7375C40.4142 58.5727 38.2973 58.077 38.1947 58.0531C36.5353 57.8317 32.3116 56.9949 28.1789 55.4054C25.7615 54.4757 23.7268 53.424 22.1314 52.2794C20.1949 50.8903 18.8986 49.3552 18.2773 47.7179C17.6415 46.042 18.4926 44.5607 20.6721 43.5453C22.2355 42.8174 24.3488 42.3855 26.7836 42.2955C29.3261 42.2019 32.0388 42.4958 34.6286 43.1454C40.8827 44.7138 45.7713 48.1425 48.3931 52.8013C49.5134 54.7914 49.6924 56.3148 48.9249 57.3273C48.1858 58.3013 46.6072 58.7926 44.2232 58.7926ZM27.6995 42.4312C24.9853 42.4312 22.5061 42.8508 20.7332 43.676C18.6323 44.6543 17.8081 46.0711 18.4133 47.6656C20.894 54.2064 33.8677 57.3302 38.2172 57.9086L38.2245 57.9101C38.2754 57.9224 41.3272 58.6409 44.205 58.6409C46.1372 58.6409 47.9915 58.3173 48.8085 57.2387C49.5381 56.2763 49.3555 54.8066 48.2658 52.8717C45.6629 48.2484 40.807 44.8438 34.5923 43.2855C32.3109 42.7136 29.9263 42.4312 27.6995 42.4312Z" fill="url(#paint3_linear_1_2842)"/>
<path d="M61.3107 88.0665C61.3107 88.0665 69.825 86.8189 77.3754 91.9473C77.3754 91.9473 76.0121 97.9749 71.592 95.9543C67.7364 94.1914 63.7208 93.7102 61.3107 93.0693V88.0665Z" fill="white" stroke="black" stroke-miterlimit="10"/>
<path d="M69.147 93.041C69.147 93.041 72.417 93.9482 75.5567 95.5907" stroke="black" stroke-miterlimit="10"/>
<path d="M69.825 91.466C69.825 91.466 73.7345 92.1686 76.3584 94.3815" stroke="black" stroke-miterlimit="10"/>
<path d="M71.2705 90.1843C73.4398 91.1286 75.6775 92.0743 77.035 93.0091" stroke="black" stroke-miterlimit="10"/>
<path d="M78.5452 50.7575C78.5452 50.7575 78.5554 42.2346 80.5159 39.1601C82.4764 36.0864 83.4571 34.4099 83.5967 35.2481C83.7371 36.0864 81.9163 39.719 81.9163 39.719C81.9163 39.719 85.4176 34.1304 87.7986 34.6893C90.1796 35.2481 83.8775 42.514 84.1576 44.1905C84.4377 45.8671 87.2384 40.4179 89.7591 39.9991C92.2798 39.5796 84.1176 47.9632 83.6469 50.7575H78.5452Z" fill="white" stroke="black" stroke-miterlimit="10"/>
<path d="M83.1589 40.3395L87.3817 34.6523" stroke="black" stroke-miterlimit="10"/>
<path d="M36.7288 54.0489C36.7288 54.0489 38.5293 42.7862 37.457 38.8967C36.384 35.0072 38.8981 26.8065 38.8981 26.8065L47.9376 28.2966L49.6377 42.1533L46.2943 46.7729L45.0758 55.0621C45.0758 55.0621 41.2144 56.2531 36.7288 54.0489Z" fill="white" stroke="black" stroke-miterlimit="10"/>
<path d="M34.8519 29.1131C33.3664 29.7445 32.7161 31.4886 33.4275 32.9343C34.5959 35.3098 37.4366 37.3152 37.5516 38.6862C38.1524 45.8591 49.0957 53.1294 50.902 42.0451C51.3029 39.5869 48.7327 35.8157 48.7327 35.8157C48.7327 35.8157 41.8531 38.806 39.9209 35.0928C37.9895 31.3804 38.7912 30.2888 38.7912 30.2888C38.7912 30.2888 47.3505 30.8731 49.5009 28.0629C50.8315 26.3239 50.8213 21.6709 50.8213 21.6709C50.8213 21.6709 38.1132 20.8819 36.0675 23.9832C34.8366 25.8521 34.8519 29.1131 34.8519 29.1131Z" fill="black"/>
<path d="M49.1962 37.7419C47.1898 42.8254 43.0163 38.7246 43.0163 38.7246L49.1962 37.7419Z" fill="#FEFEFE"/>
<path d="M37.4228 33.454C37.4228 33.454 34.6119 31.829 33.6393 33.3538C32.6666 34.8794 36.6248 36.9624 38.1168 36.6554L37.4228 33.454Z" fill="white" stroke="black" stroke-miterlimit="10"/>
<path d="M28.4672 47.6919C28.4672 47.6919 35.1519 55.8854 45.0826 55.3134L28.4672 47.6919Z" fill="white"/>
<path d="M44.1046 55.4141C39.395 55.4141 35.5045 53.4704 33.0093 51.7772C30.1212 49.8168 28.4269 47.7585 28.4102 47.7374L28.523 47.646C28.5397 47.6663 30.223 49.7116 33.0951 51.6596C35.7424 53.4559 39.9697 55.5346 45.078 55.2414L45.0867 55.3865C44.7557 55.4054 44.4283 55.4141 44.1046 55.4141Z" fill="url(#paint4_linear_1_2842)"/>
<defs>
<linearGradient id="paint0_linear_1_2842" x1="182.467" y1="140.428" x2="182.467" y2="196.157" gradientUnits="userSpaceOnUse">
<stop stop-color="white"/>
<stop offset="0.043" stop-color="#F6F5FD"/>
<stop offset="0.3864" stop-color="#B1ACF0"/>
<stop offset="0.6714" stop-color="#7E77E6"/>
<stop offset="0.8839" stop-color="#5F55E0"/>
<stop offset="1" stop-color="#5349DE"/>
</linearGradient>
<linearGradient id="paint1_linear_1_2842" x1="180.228" y1="202.173" x2="182.082" y2="121.366" gradientUnits="userSpaceOnUse">
<stop stop-color="#3D9591"/>
<stop offset="1" stop-color="#0E476A"/>
</linearGradient>
<linearGradient id="paint2_linear_1_2842" x1="207.935" y1="167.979" x2="206.313" y2="132.916" gradientUnits="userSpaceOnUse">
<stop stop-color="#4AED78"/>
<stop offset="1" stop-color="#799DF8"/>
</linearGradient>
<linearGradient id="paint3_linear_1_2842" x1="18.1773" y1="50.5355" x2="49.2864" y2="50.5355" gradientUnits="userSpaceOnUse">
<stop stop-color="#7866FA"/>
<stop offset="1" stop-color="#5349DE"/>
</linearGradient>
<linearGradient id="paint4_linear_1_2842" x1="28.4929" y1="51.5302" x2="45.0809" y2="51.5302" gradientUnits="userSpaceOnUse">
<stop stop-color="#7866FA"/>
<stop offset="1" stop-color="#5349DE"/>
</linearGradient>
</defs>
</svg>
